<svg id="Layer_1" data-name="Layer 1" xmlns="http://www.w3.org/2000/svg" xmlns:xlink="http://www.w3.org/1999/xlink" viewBox="0 0 1286.84 1290.02"><defs><style>.cls-1{fill:none;}.cls-2{fill:#16023b;}.cls-3{clip-path:url(#clip-path);}.cls-4{fill:url(#linear-gradient);}.cls-5{fill:url(#linear-gradient-2);}.cls-6{fill:url(#linear-gradient-3);}.cls-7{fill:url(#linear-gradient-4);}.cls-8{fill:url(#linear-gradient-5);}.cls-9{fill:url(#linear-gradient-6);}.cls-10{fill:url(#linear-gradient-7);}.cls-11{fill:url(#linear-gradient-8);}.cls-12{fill:#e64c30;}.cls-13{fill:url(#linear-gradient-9);}.cls-14{fill:url(#linear-gradient-10);}.cls-15{fill:url(#linear-gradient-11);}.cls-16{fill:#fce8a6;}.cls-17{fill:#ed3205;}.cls-18{fill:#ffbf45;}.cls-19{fill:url(#linear-gradient-12);}.cls-20{fill:url(#linear-gradient-13);}.cls-21{fill:url(#linear-gradient-14);}.cls-22{fill:url(#linear-gradient-15);}.cls-23{fill:url(#linear-gradient-16);}.cls-24{fill:url(#linear-gradient-17);}.cls-25{fill:url(#linear-gradient-18);}.cls-26{fill:url(#linear-gradient-19);}.cls-27{fill:url(#linear-gradient-20);}.cls-28{fill:url(#linear-gradient-21);}.cls-29{fill:url(#linear-gradient-22);}.cls-30{fill:url(#linear-gradient-23);}.cls-31{fill:url(#linear-gradient-24);}.cls-32{fill:url(#linear-gradient-25);}.cls-33{fill:url(#linear-gradient-26);}.cls-34{fill:url(#linear-gradient-27);}.cls-35{fill:url(#linear-gradient-28);}.cls-36{fill:url(#linear-gradient-29);}.cls-37{fill:url(#linear-gradient-30);}.cls-38{fill:#ff7257;}.cls-39{fill:url(#linear-gradient-31);}.cls-40{fill:url(#linear-gradient-32);}.cls-41{fill:url(#linear-gradient-33);}.cls-42{fill:url(#linear-gradient-34);}.cls-43{fill:url(#linear-gradient-35);}.cls-44{fill:url(#linear-gradient-36);}.cls-45{fill:url(#linear-gradient-37);}.cls-46{fill:url(#linear-gradient-38);}.cls-47{fill:url(#linear-gradient-39);}.cls-48{fill:url(#linear-gradient-40);}.cls-49{fill:url(#linear-gradient-41);}.cls-50{fill:url(#linear-gradient-42);}.cls-51{fill:url(#linear-gradient-43);}.cls-52{fill:url(#linear-gradient-44);}.cls-53{fill:url(#linear-gradient-45);}.cls-54{fill:url(#linear-gradient-46);}.cls-55{fill:url(#linear-gradient-47);}.cls-56{fill:url(#linear-gradient-48);}.cls-57{fill:url(#linear-gradient-49);}.cls-58{fill:url(#linear-gradient-50);}.cls-59{fill:url(#linear-gradient-51);}.cls-60{fill:url(#linear-gradient-52);}.cls-61{fill:url(#linear-gradient-53);}.cls-62{fill:url(#linear-gradient-54);}.cls-63{fill:url(#linear-gradient-55);}.cls-64{fill:url(#linear-gradient-56);}.cls-65{fill:url(#linear-gradient-57);}.cls-66{fill:url(#linear-gradient-58);}.cls-67{fill:url(#linear-gradient-59);}.cls-68{fill:url(#linear-gradient-60);}.cls-69{fill:url(#linear-gradient-61);}.cls-70{fill:url(#linear-gradient-62);}.cls-71{fill:url(#linear-gradient-63);}.cls-72{fill:url(#linear-gradient-64);}.cls-73{fill:url(#linear-gradient-65);}.cls-74{fill:url(#linear-gradient-66);}.cls-75{fill:url(#linear-gradient-67);}.cls-76{fill:url(#linear-gradient-68);}.cls-77{fill:url(#linear-gradient-69);}.cls-78{fill:url(#linear-gradient-70);}.cls-79{fill:url(#linear-gradient-71);}.cls-80{fill:url(#linear-gradient-72);}.cls-81{fill:url(#linear-gradient-73);}.cls-82{fill:url(#linear-gradient-74);}.cls-83{fill:url(#linear-gradient-75);}.cls-84{fill:url(#linear-gradient-76);}.cls-85{fill:url(#linear-gradient-77);}.cls-86{fill:url(#linear-gradient-78);}.cls-87{fill:url(#linear-gradient-79);}.cls-88{fill:url(#linear-gradient-80);}.cls-89{fill:url(#linear-gradient-81);}.cls-90{fill:url(#linear-gradient-82);}.cls-91{fill:url(#linear-gradient-83);}.cls-92{fill:url(#linear-gradient-84);}.cls-93{fill:url(#linear-gradient-85);}.cls-94{fill:url(#linear-gradient-86);}.cls-95{fill:url(#linear-gradient-87);}.cls-96{fill:url(#linear-gradient-88);}.cls-97{fill:url(#linear-gradient-89);}.cls-98{fill:url(#linear-gradient-90);}</style><clipPath id="clip-path" transform="translate(19.53 40.79)"><rect id="SVGID" class="cls-1" width="868.27" height="1146"/></clipPath><linearGradient id="linear-gradient" x1="-10224.14" y1="-257.93" x2="-10322.13" y2="281.99" gradientTransform="translate(11136.55)" gradientUnits="userSpaceOnUse"><stop offset="0" stop-color="#e64c30"/><stop offset="1" stop-color="#16023b"/></linearGradient><linearGradient id="linear-gradient-2" x1="-4873.8" y1="12586.84" x2="-4326.31" y2="12763.25" gradientTransform="translate(9541.63 10096.4) rotate(116.61)" gradientUnits="userSpaceOnUse"><stop offset="0.01" stop-color="#e64c30"/><stop offset="0.42" stop-color="#b69d21"/><stop offset="1" stop-color="#16023b"/></linearGradient><linearGradient id="linear-gradient-3" x1="-4862.65" y1="12552.28" x2="-4315.14" y2="12728.71" xlink:href="#linear-gradient-2"/><linearGradient id="linear-gradient-4" x1="-4897.89" y1="12661.56" x2="-4350.3" y2="12838" xlink:href="#linear-gradient-2"/><linearGradient id="linear-gradient-5" x1="-4890.27" y1="12637.88" x2="-4342.66" y2="12814.34" xlink:href="#linear-gradient-2"/><linearGradient id="linear-gradient-6" x1="-4878.81" y1="12602.34" x2="-4331.24" y2="12778.78" xlink:href="#linear-gradient-2"/><linearGradient id="linear-gradient-7" x1="-4857.16" y1="12535.22" x2="-4309.61" y2="12711.65" xlink:href="#linear-gradient-2"/><linearGradient id="linear-gradient-8" x1="-4897.61" y1="12660.73" x2="-4350.04" y2="12837.17" xlink:href="#linear-gradient-2"/><linearGradient id="linear-gradient-9" x1="-13097.03" y1="214.51" x2="-12877.01" y2="214.51" gradientTransform="translate(13737.77)" xlink:href="#linear-gradient"/><linearGradient id="linear-gradient-10" x1="-12978.03" y1="216.05" x2="-12863.27" y2="216.05" gradientTransform="translate(13737.77)" xlink:href="#linear-gradient"/><linearGradient id="linear-gradient-11" x1="-13048.1" y1="284.87" x2="-12918.4" y2="284.87" gradientTransform="translate(13737.77)" xlink:href="#linear-gradient"/><linearGradient id="linear-gradient-12" x1="162.26" y1="-10079.3" x2="551.65" y2="-10079.3" gradientTransform="matrix(0.02, 1, 1, -0.02, 10236.58, -315.94)" gradientUnits="userSpaceOnUse"><stop offset="0" stop-color="#e3c500"/><stop offset="1" stop-color="#16023b"/></linearGradient><linearGradient id="linear-gradient-13" x1="3659.5" y1="-6380.22" x2="3561.53" y2="-5840.42" gradientTransform="matrix(-0.6, 0.8, 0.8, 0.6, 7358.99, 1313.48)" xlink:href="#linear-gradient"/><linearGradient id="linear-gradient-14" x1="-1937.97" y1="3682.46" x2="-1699.71" y2="3682.46" gradientTransform="matrix(0.27, 0.96, -0.96, 0.27, 4797.8, 975.28)" xlink:href="#linear-gradient-12"/><linearGradient id="linear-gradient-15" x1="-9057.16" y1="1383.47" x2="-8432.23" y2="1584.83" gradientTransform="matrix(0.26, 0.97, 0.97, -0.26, 1486.23, 9296.96)" gradientUnits="userSpaceOnUse"><stop offset="0.01" stop-color="#ffbf45"/><stop offset="0.42" stop-color="#b69d21"/><stop offset="1" stop-color="#16023b"/></linearGradient><linearGradient id="linear-gradient-16" x1="-9044.45" y1="1344.02" x2="-8419.47" y2="1545.4" xlink:href="#linear-gradient-15"/><linearGradient id="linear-gradient-17" x1="-9084.66" y1="1468.74" x2="-8459.62" y2="1670.14" xlink:href="#linear-gradient-15"/><linearGradient id="linear-gradient-18" x1="-9075.96" y1="1441.72" x2="-8450.9" y2="1643.13" xlink:href="#linear-gradient-15"/><linearGradient id="linear-gradient-19" x1="-9062.88" y1="1401.15" x2="-8437.87" y2="1602.54" xlink:href="#linear-gradient-15"/><linearGradient id="linear-gradient-20" x1="-9038.18" y1="1324.54" x2="-8413.17" y2="1525.93" xlink:href="#linear-gradient-15"/><linearGradient id="linear-gradient-21" x1="-9084.34" y1="1467.8" x2="-8459.32" y2="1669.19" xlink:href="#linear-gradient-15"/><linearGradient id="linear-gradient-22" x1="2796.82" y1="278.16" x2="2798.82" y2="674.1" gradientTransform="matrix(-1, 0, 0, 1, 3512.47, 0)" gradientUnits="userSpaceOnUse"><stop offset="0.01" stop-color="#ffbf45"/><stop offset="0.42" stop-color="#e64c30"/><stop offset="1" stop-color="#16023b"/></linearGradient><linearGradient id="linear-gradient-23" x1="-8973.66" y1="989.02" x2="-8348.73" y2="1190.39" xlink:href="#linear-gradient-15"/><linearGradient id="linear-gradient-24" x1="-8960.94" y1="949.58" x2="-8335.96" y2="1150.96" xlink:href="#linear-gradient-15"/><linearGradient id="linear-gradient-25" x1="-9001.15" y1="1074.29" x2="-8376.12" y2="1275.69" xlink:href="#linear-gradient-15"/><linearGradient id="linear-gradient-26" x1="-8992.45" y1="1047.28" x2="-8367.4" y2="1248.68" xlink:href="#linear-gradient-15"/><linearGradient id="linear-gradient-27" x1="-8979.37" y1="1006.7" x2="-8354.36" y2="1208.1" xlink:href="#linear-gradient-15"/><linearGradient id="linear-gradient-28" x1="-8954.67" y1="930.09" x2="-8329.66" y2="1131.49" xlink:href="#linear-gradient-15"/><linearGradient id="linear-gradient-29" x1="-9000.84" y1="1073.35" x2="-8375.81" y2="1274.75" xlink:href="#linear-gradient-15"/><linearGradient id="linear-gradient-30" x1="3079.95" y1="752.45" x2="3318.12" y2="752.45" gradientTransform="matrix(-1, 0, 0, 1, 3512.47, 0)" xlink:href="#linear-gradient-12"/><linearGradient id="linear-gradient-31" x1="3402.54" y1="969.34" x2="3463.31" y2="969.34" gradientTransform="matrix(-1, 0, 0, 1, 3512.47, 0)" gradientUnits="userSpaceOnUse"><stop offset="0" stop-color="#16023b"/><stop offset="1" stop-color="#fce8a6"/></linearGradient><linearGradient id="linear-gradient-32" x1="-11864.24" y1="-4484.51" x2="-11803.46" y2="-4484.51" gradientTransform="matrix(0.95, -0.32, -0.32, -0.95, 10122.43, -7681.71)" xlink:href="#linear-gradient-31"/><linearGradient id="linear-gradient-33" x1="2548.74" y1="577.05" x2="2758.63" y2="898.89" gradientTransform="matrix(-1, 0, 0, 1, 3512.47, 0)" xlink:href="#linear-gradient-15"/><linearGradient id="linear-gradient-34" x1="2525.44" y1="592.07" x2="2735.39" y2="913.99" gradientTransform="matrix(-1, 0, 0, 1, 3512.47, 0)" xlink:href="#linear-gradient-15"/><linearGradient id="linear-gradient-35" x1="2587.3" y1="551.98" x2="2797.16" y2="873.77" gradientTransform="matrix(-1, 0, 0, 1, 3512.47, 0)" xlink:href="#linear-gradient-15"/><linearGradient id="linear-gradient-36" x1="2551.15" y1="575.31" x2="2761.1" y2="897.23" gradientTransform="matrix(-1, 0, 0, 1, 3512.47, 0)" xlink:href="#linear-gradient-15"/><linearGradient id="linear-gradient-37" x1="2619.83" y1="530.78" x2="2829.68" y2="852.56" gradientTransform="matrix(-1, 0, 0, 1, 3512.47, 0)" xlink:href="#linear-gradient-15"/><linearGradient id="linear-gradient-38" x1="2576.03" y1="559.08" x2="2785.97" y2="881" gradientTransform="matrix(-1, 0, 0, 1, 3512.47, 0)" xlink:href="#linear-gradient-15"/><linearGradient id="linear-gradient-39" x1="2646.26" y1="513.53" x2="2856.11" y2="835.3" gradientTransform="matrix(-1, 0, 0, 1, 3512.47, 0)" xlink:href="#linear-gradient-15"/><linearGradient id="linear-gradient-40" x1="2604.63" y1="540.41" x2="2814.58" y2="862.33" gradientTransform="matrix(-1, 0, 0, 1, 3512.47, 0)" xlink:href="#linear-gradient-15"/><linearGradient id="linear-gradient-41" x1="2673.22" y1="495.99" x2="2883.04" y2="817.72" gradientTransform="matrix(-1, 0, 0, 1, 3512.47, 0)" xlink:href="#linear-gradient-15"/><linearGradient id="linear-gradient-42" x1="2623.72" y1="527.97" x2="2833.66" y2="849.88" gradientTransform="matrix(-1, 0, 0, 1, 3512.47, 0)" xlink:href="#linear-gradient-15"/><linearGradient id="linear-gradient-43" x1="2701.18" y1="477.66" x2="2911.03" y2="799.44" gradientTransform="matrix(-1, 0, 0, 1, 3512.47, 0)" xlink:href="#linear-gradient-15"/><linearGradient id="linear-gradient-44" x1="2640.38" y1="517.1" x2="2850.32" y2="839.01" gradientTransform="matrix(-1, 0, 0, 1, 3512.47, 0)" xlink:href="#linear-gradient-15"/><linearGradient id="linear-gradient-45" x1="2720.68" y1="464.84" x2="2930.57" y2="786.67" gradientTransform="matrix(-1, 0, 0, 1, 3512.47, 0)" xlink:href="#linear-gradient-15"/><linearGradient id="linear-gradient-46" x1="2652.86" y1="508.97" x2="2862.79" y2="830.87" gradientTransform="matrix(-1, 0, 0, 1, 3512.47, 0)" xlink:href="#linear-gradient-15"/><linearGradient id="linear-gradient-47" x1="2740.96" y1="451.45" x2="2950.92" y2="773.39" gradientTransform="matrix(-1, 0, 0, 1, 3512.47, 0)" xlink:href="#linear-gradient-15"/><linearGradient id="linear-gradient-48" x1="2665.47" y1="500.74" x2="2875.41" y2="822.64" gradientTransform="matrix(-1, 0, 0, 1, 3512.47, 0)" xlink:href="#linear-gradient-15"/><linearGradient id="linear-gradient-49" x1="2749.54" y1="445.71" x2="2959.59" y2="767.78" gradientTransform="matrix(-1, 0, 0, 1, 3512.47, 0)" xlink:href="#linear-gradient-15"/><linearGradient id="linear-gradient-50" x1="2678.98" y1="491.92" x2="2888.92" y2="813.82" gradientTransform="matrix(-1, 0, 0, 1, 3512.47, 0)" xlink:href="#linear-gradient-15"/><linearGradient id="linear-gradient-51" x1="2760.12" y1="438.88" x2="2970.14" y2="760.91" gradientTransform="matrix(-1, 0, 0, 1, 3512.47, 0)" xlink:href="#linear-gradient-15"/><linearGradient id="linear-gradient-52" x1="2689.73" y1="484.91" x2="2899.67" y2="806.8" gradientTransform="matrix(-1, 0, 0, 1, 3512.47, 0)" xlink:href="#linear-gradient-15"/><linearGradient id="linear-gradient-53" x1="2766.26" y1="434.92" x2="2976.25" y2="756.91" gradientTransform="matrix(-1, 0, 0, 1, 3512.47, 0)" xlink:href="#linear-gradient-15"/><linearGradient id="linear-gradient-54" x1="2697.19" y1="480.04" x2="2907.13" y2="801.94" gradientTransform="matrix(-1, 0, 0, 1, 3512.47, 0)" xlink:href="#linear-gradient-15"/><linearGradient id="linear-gradient-55" x1="2762.2" y1="437.6" x2="2972.18" y2="759.56" gradientTransform="matrix(-1, 0, 0, 1, 3512.47, 0)" xlink:href="#linear-gradient-15"/><linearGradient id="linear-gradient-56" x1="2708.95" y1="472.36" x2="2918.89" y2="794.26" gradientTransform="matrix(-1, 0, 0, 1, 3512.47, 0)" xlink:href="#linear-gradient-15"/><linearGradient id="linear-gradient-57" x1="2738.64" y1="452.99" x2="2948.59" y2="774.91" gradientTransform="matrix(-1, 0, 0, 1, 3512.47, 0)" xlink:href="#linear-gradient-15"/><linearGradient id="linear-gradient-58" x1="2624.65" y1="540.95" x2="2814.39" y2="831.88" gradientTransform="matrix(-1, 0, 0, 1, 3512.47, 0)" xlink:href="#linear-gradient-15"/><linearGradient id="linear-gradient-59" x1="2807.81" y1="919.29" x2="3197.09" y2="919.29" gradientTransform="matrix(-1, 0, 0, 1, 3512.47, 0)" xlink:href="#linear-gradient-15"/><linearGradient id="linear-gradient-60" x1="3016.93" y1="934.18" x2="3236.95" y2="934.18" gradientTransform="matrix(-1, 0, 0, 1, 3512.47, 0)" xlink:href="#linear-gradient"/><linearGradient id="linear-gradient-61" x1="3135.93" y1="935.73" x2="3250.69" y2="935.73" gradientTransform="matrix(-1, 0, 0, 1, 3512.47, 0)" xlink:href="#linear-gradient"/><linearGradient id="linear-gradient-62" x1="3065.86" y1="1004.54" x2="3195.57" y2="1004.54" gradientTransform="matrix(-1, 0, 0, 1, 3512.47, 0)" xlink:href="#linear-gradient"/><linearGradient id="linear-gradient-63" x1="2548.8" y1="1078.98" x2="2852.86" y2="1078.98" gradientTransform="matrix(-1, 0, 0, 1, 3512.47, 0)" gradientUnits="userSpaceOnUse"><stop offset="0" stop-color="#16023b"/><stop offset="0.58" stop-color="#e64c30"/><stop offset="0.99" stop-color="#ffbf45"/></linearGradient><linearGradient id="linear-gradient-64" x1="-15700.93" y1="3798.95" x2="-15638.86" y2="3463.75" gradientTransform="matrix(0, -1, -1, 0, 4402.04, -14649.04)" xlink:href="#linear-gradient-15"/><linearGradient id="linear-gradient-65" x1="5822.85" y1="4800.3" x2="5771.65" y2="4992.87" gradientTransform="matrix(0.07, 1, 1, -0.07, -4369.82, -4471.4)" xlink:href="#linear-gradient-15"/><linearGradient id="linear-gradient-66" x1="-15219.16" y1="3739.98" x2="-15711.67" y2="3371" gradientTransform="matrix(0, -1, -1, 0, 4402.04, -14649.04)" xlink:href="#linear-gradient-15"/><linearGradient id="linear-gradient-67" x1="-4052.1" y1="12098.6" x2="-3553.37" y2="12259.3" xlink:href="#linear-gradient-2"/><linearGradient id="linear-gradient-68" x1="-4041.95" y1="12067.12" x2="-3543.19" y2="12227.83" xlink:href="#linear-gradient-2"/><linearGradient id="linear-gradient-69" x1="-4074.05" y1="12166.66" x2="-3575.23" y2="12327.39" xlink:href="#linear-gradient-2"/><linearGradient id="linear-gradient-70" x1="-4067.11" y1="12145.1" x2="-3568.25" y2="12305.84" xlink:href="#linear-gradient-2"/><linearGradient id="linear-gradient-71" x1="-4073.79" y1="12165.91" x2="-3574.99" y2="12326.63" xlink:href="#linear-gradient-2"/><linearGradient id="linear-gradient-72" x1="4441.22" y1="-4291.01" x2="4119.3" y2="-3603.19" gradientTransform="matrix(-0.78, 0.63, 0.63, 0.78, 5943.1, 1322.53)" gradientUnits="userSpaceOnUse"><stop offset="0.01" stop-color="#e64c30"/><stop offset="1" stop-color="#16023b"/></linearGradient><linearGradient id="linear-gradient-73" x1="4203.01" y1="-4402.48" x2="3881.12" y2="-3714.74" xlink:href="#linear-gradient-72"/><linearGradient id="linear-gradient-74" x1="4243.09" y1="-4383.71" x2="3921.23" y2="-3696" xlink:href="#linear-gradient-72"/><linearGradient id="linear-gradient-75" x1="4283.04" y1="-4365" x2="3961.19" y2="-3677.31" xlink:href="#linear-gradient-72"/><linearGradient id="linear-gradient-76" x1="4211.68" y1="-4398.41" x2="3889.82" y2="-3710.71" xlink:href="#linear-gradient-72"/><linearGradient id="linear-gradient-77" x1="4489.32" y1="-4268.39" x2="4167.48" y2="-3580.72" xlink:href="#linear-gradient-72"/><linearGradient id="linear-gradient-78" x1="4239.15" y1="-4385.56" x2="3917.27" y2="-3697.82" xlink:href="#linear-gradient-72"/><linearGradient id="linear-gradient-79" x1="4282.72" y1="-4365.15" x2="3960.85" y2="-3677.44" xlink:href="#linear-gradient-72"/><linearGradient id="linear-gradient-80" x1="4319.38" y1="-4347.99" x2="3997.52" y2="-3660.28" xlink:href="#linear-gradient-72"/><linearGradient id="linear-gradient-81" x1="4509.98" y1="-4258.78" x2="4188.1" y2="-3571.03" xlink:href="#linear-gradient-72"/><linearGradient id="linear-gradient-82" x1="4414.46" y1="-4303.45" x2="4092.61" y2="-3615.78" xlink:href="#linear-gradient-72"/><linearGradient id="linear-gradient-83" x1="4333.29" y1="-4341.54" x2="4011.37" y2="-3653.72" xlink:href="#linear-gradient-72"/><linearGradient id="linear-gradient-84" x1="4453.99" y1="-4284.99" x2="4132.11" y2="-3597.24" xlink:href="#linear-gradient-72"/><linearGradient id="linear-gradient-85" x1="4376.61" y1="-4321.16" x2="4054.76" y2="-3633.5" xlink:href="#linear-gradient-72"/><linearGradient id="linear-gradient-86" x1="4436.4" y1="-4293.17" x2="4114.55" y2="-3605.5" xlink:href="#linear-gradient-72"/><linearGradient id="linear-gradient-87" x1="4088.08" y1="-4392.18" x2="3766.24" y2="-3704.51" xlink:href="#linear-gradient-72"/><linearGradient id="linear-gradient-88" x1="4568.23" y1="-4231.5" x2="4246.36" y2="-3543.76" xlink:href="#linear-gradient-72"/><linearGradient id="linear-gradient-89" x1="4405.88" y1="-4307.5" x2="4084.01" y2="-3619.77" xlink:href="#linear-gradient-72"/><linearGradient id="linear-gradient-90" x1="4363.92" y1="-4327.13" x2="4042.06" y2="-3639.42" xlink:href="#linear-gradient-72"/></defs><title>LogIn</title><rect class="cls-2" x="19.53" y="40.79" width="867.99" height="1146"/><g class="cls-3"><path class="cls-4" d="M1058.77,341.16c-4-10.14-55-85.28-26.2-144,22.84-46.59-2.64-53.52-25.69-51.1s-43.76,15-49-13.68C940.82,37.92,867-23,850.82,40.22c-8.76,34.2-48.88,18.29-53.77-5.5-10.37-50.48-40.27-79.86-60.54-47.24-19.93,32.07-42.93,41.69-54.83,22.31s-13.32-64.16-53.5-46.58c-15.83,6.93-25.89,49.36-7.43,80,10.52,17.47,57.61,62,6,66-53.14,4.2-31.26,41.76-3.11,49.95,10.49,3.06,105.41,38.93,75.62,54.22-35.15,18-21.86,49.72,28.43,54.39,22.84,2.13,73.83-8.36,70.5,11.12s-1.67,47.62,33.38,50.29C892.05,333.79,1050.58,320.1,1058.77,341.16Z" transform="translate(19.53 40.79)"/><path class="cls-2" d="M1113.57,387.31C1056.32,332.67,1003.86,304,917,256.53c-24.84-13.57-53-28.95-84.91-46.93-74.9-42.17-126.61-98.2-156.8-137.78-32.72-42.9-47.94-76.29-48.09-76.63l2.26-1c.15.33,15.28,33.52,47.85,76.21,30,39.37,81.49,95.12,156,137.06,31.92,18,60.06,33.35,84.88,46.91,87.08,47.58,139.64,76.3,197.13,131.17Z" transform="translate(19.53 40.79)"/><path class="cls-2" d="M758.16,158.68C730.25,110.55,747.21,32.76,747.38,32l2.42.54c-.17.77-16.92,77.63,10.5,124.92Z" transform="translate(19.53 40.79)"/><path class="cls-2" d="M768.9,167.33C706.29,132.58,629.17,138,628.39,138l-.18-2.47c.77-.06,78.62-5.48,141.89,29.63Z" transform="translate(19.53 40.79)"/><path class="cls-2" d="M889,238.56l-2.47-.12c7.16-141.69-7.5-177.93-7.65-178.28l2.27-1C881.72,60.62,896.16,96,889,238.56Z" transform="translate(19.53 40.79)"/><path class="cls-2" d="M698.56,242.27l-.61-2.4c.3-.07,29.62-7.46,62.11-14.32,43.71-9.24,72-13.19,84.19-11.74l-.29,2.46C815.54,212.87,699.73,242,698.56,242.27Z" transform="translate(19.53 40.79)"/><path class="cls-2" d="M822.15,305.84l-.88-2.32c.92-.35,93.37-35.14,153.1-17.85l-.69,2.38C914.74,271,823.07,305.48,822.15,305.84Z" transform="translate(19.53 40.79)"/><path class="cls-5" d="M408.2,133.53s15.42-30.8,45.07-43.07C464,86,486.44,87.69,491.19,99.21s-5,26.5-20.67,33C440.87,144.43,408.2,133.53,408.2,133.53Z" transform="translate(19.53 40.79)"/><path class="cls-6" d="M376,198.47s26.65-21.82,58.73-20.91c11.62.34,31.4,11,31,23.47s-15.43,22.13-32.33,21.65C401.31,221.77,376,198.47,376,198.47Z" transform="translate(19.53 40.79)"/><path class="cls-7" d="M396.72,126.71s-30-10.84-48.3-37.2c-6.64-9.56-11.31-30.77-2.94-36.58s23.59,1.62,33.23,15.52C397,94.81,396.72,126.71,396.72,126.71Z" transform="translate(19.53 40.79)"/><path class="cls-8" d="M366.53,193s-30.87-10.24-49.18-36.59c-6.63-9.57-10.9-31-2.05-37.2s24.46,1,34.11,14.91C367.71,160.46,366.53,193,366.53,193Z" transform="translate(19.53 40.79)"/><path class="cls-9" d="M319.85,279s-27.37-5.17-41.34-25.31c-5.06-7.29-6.62-24.86,2.23-31s22.46-1.87,29.82,8.74C324.55,251.5,319.85,279,319.85,279Z" transform="translate(19.53 40.79)"/><path class="cls-10" d="M331.11,284.41s19-18.59,44.89-21.72c9.37-1.14,26.42,4.09,27.49,12.95s-10,17.5-23.6,19.15C354,297.92,331.11,284.41,331.11,284.41Z" transform="translate(19.53 40.79)"/><path class="cls-11" d="M424.47,73.57S410.6,36.7,423,1.61c4.47-12.71,22.9-30.89,36.1-26.24S477.25,0,470.75,18.44C458.4,53.53,424.47,73.57,424.47,73.57Z" transform="translate(19.53 40.79)"/><path class="cls-12" d="M443.4,3.83l5.9,1.53c-.46,1.67-45.11,169.77-169.57,351l-5-3.44C398.55,172.61,443,5.5,443.4,3.83Z" transform="translate(19.53 40.79)"/><rect class="cls-2" x="370.6" y="44.91" width="1" height="89.83" transform="translate(34.59 268.52) rotate(-34.78)"/><rect class="cls-2" x="373.67" y="93.91" width="16.41" height="1" transform="translate(224.28 486.45) rotate(-77.12)"/><rect class="cls-2" x="353.4" y="66.58" width="21.64" height="1" transform="translate(255.68 455.38) rotate(-80.2)"/><rect class="cls-2" x="324.75" y="135.91" width="21.64" height="1" transform="translate(163.59 484.67) rotate(-80.2)"/><rect class="cls-2" x="362.39" y="80.22" width="1" height="15.72" transform="translate(263.88 482.99) rotate(-85.14)"/><polygon class="cls-2" points="310.91 279.35 295.25 278.01 295.34 277.02 311 278.35 310.91 279.35"/><rect class="cls-2" x="402.06" y="118.24" width="92.58" height="1" transform="translate(6.5 206.88) rotate(-20.69)"/><rect class="cls-2" x="420.5" y="107.41" width="39.05" height="1" transform="translate(167.74 495.27) rotate(-63.68)"/><polygon class="cls-2" points="481.67 155.07 480.75 154.67 491.74 129.01 492.66 129.4 481.67 155.07"/><rect class="cls-2" x="458.35" y="112.97" width="1" height="20.87" transform="translate(150.27 507.88) rotate(-61.38)"/><rect class="cls-2" x="420.31" y="156" width="1" height="89.87" transform="translate(216.67 650.91) rotate(-86.86)"/><rect class="cls-2" x="340.73" y="112.9" width="1" height="89" transform="matrix(0.79, -0.62, 0.62, 0.79, -4.81, 285.19)"/><rect class="cls-2" x="330.84" y="279.53" width="72.91" height="1" transform="translate(-11.68 87.34) rotate(-6.96)"/><rect class="cls-2" x="299.8" y="216.51" width="1" height="68.58" transform="translate(-69.89 256.9) rotate(-34.78)"/><rect class="cls-2" x="351.67" y="271.7" width="28.05" height="1" transform="translate(-68.06 361.55) rotate(-42.78)"/><rect class="cls-2" x="386.05" y="273.94" width="1" height="20.88" transform="translate(-28.7 528.3) rotate(-61.38)"/><rect class="cls-2" x="290.17" y="238.89" width="26.17" height="1" transform="translate(50.01 553.79) rotate(-83.38)"/><rect class="cls-2" x="427.54" y="192.06" width="27.62" height="1" transform="translate(2.97 382.31) rotate(-41.59)"/><rect class="cls-2" x="395.12" y="192.06" width="20.5" height="1" transform="translate(0.44 379.1) rotate(-44.36)"/><polygon class="cls-2" points="452.51 263.76 436.82 241.48 437.64 240.9 453.33 263.18 452.51 263.76"/><rect class="cls-2" x="389.71" y="23.97" width="104.11" height="1" transform="translate(291.49 473.82) rotate(-70.6)"/><rect class="cls-2" x="443.35" y="-18.91" width="1" height="30.01" transform="translate(30.34 134.33) rotate(-12.18)"/><rect class="cls-2" x="438.77" y="30.59" width="28.16" height="1" transform="translate(21.83 127.06) rotate(-10.91)"/><path class="cls-13" d="M857.83,381.24C808,255,751.58,171.72,713,124.08c-41.71-51.55-72-73.53-72.28-73.74l1.83-2.57c.31.22,30.92,22.45,72.9,74.32,38.7,47.82,95.31,131.39,145.29,258Z" transform="translate(19.53 40.79)"/><path class="cls-14" d="M871.39,352c-13-77.1-42.64-146.43-65.23-191C781.66,112.69,760,82.2,759.74,81.9l2.56-1.83c.21.3,22,30.94,46.63,79.47,22.71,44.8,52.52,114.47,65.57,192Z" transform="translate(19.53 40.79)"/><path class="cls-15" d="M816.27,371c-12.13-70.35-45.95-112.62-72.19-135.69-28.39-25-54.16-33.4-54.42-33.48l1-3c.27.08,26.66,8.73,55.54,34.12,26.62,23.4,60.93,66.26,73.21,137.52Z" transform="translate(19.53 40.79)"/><path class="cls-16" d="M626,30.39c-19.31,16.24-29.62,35.75-23,43.57s27.56,1,46.86-15.24S679.41,23,672.83,15.15,645.27,14.15,626,30.39Z" transform="translate(19.53 40.79)"/><path class="cls-2" d="M634.09,40.06c-6.13,5.15-9.41,11.35-7.32,13.83s8.75.32,14.88-4.83S651.06,37.7,649,35.22,640.22,34.9,634.09,40.06Z" transform="translate(19.53 40.79)"/><path class="cls-17" d="M754.48,73.21c-8,6.76-12.33,14.89-9.59,18.15s11.47.41,19.51-6.35,12.34-14.89,9.6-18.14S762.52,66.45,754.48,73.21Z" transform="translate(19.53 40.79)"/><path class="cls-2" d="M757.87,77.24c-2.56,2.14-3.92,4.72-3,5.76s3.64.13,6.2-2,3.91-4.72,3-5.76S760.42,75.09,757.87,77.24Z" transform="translate(19.53 40.79)"/><path class="cls-18" d="M682,194.61c-7.73,11.12-10.34,22.67-5.84,25.81s14.42-3.35,22.15-14.47,10.35-22.67,5.84-25.81S689.72,183.49,682,194.61Z" transform="translate(19.53 40.79)"/><path class="cls-2" d="M687.56,198.48c-2.46,3.53-3.29,7.2-1.86,8.19s4.58-1.06,7-4.59,3.28-7.2,1.85-8.19S690,195,687.56,198.48Z" transform="translate(19.53 40.79)"/><path class="cls-19" d="M304.69,441.47c-7.93-3.78-65.38-49.31-114.34-29.6-38.84,15.64-42.92-5.28-39.6-23.7s14.66-34.35-8.12-40.22c-75-19.35-119.7-82.37-67.84-91.68,28-5,17.61-38.28-1.25-43.63-40-11.33-61.89-37.14-34.44-51.54,27-14.15,36.08-32.1,21.19-42.82S9.45,103.76,26,72.45c6.5-12.34,41.24-17.94,64.8-1.26,13.44,9.5,46.45,50,52.77,8.76,6.52-42.55,35.45-22.71,40.38.44,1.84,8.63,25.1,87.17,39.16,64.09,16.6-27.24,41.31-14.67,42.1,26.11.36,18.51-11.09,58.95,4.79,57.42s38.42,1.46,38.5,29.84C308.6,306.79,288.23,433.63,304.69,441.47Z" transform="translate(19.53 40.79)"/><path class="cls-2" d="M337.05,489.59c-40.76-49.53-60.77-93.55-93.92-166.48C233.68,302.32,223,278.76,210.39,252,181,189.52,139.18,144.79,109.26,118.27c-32.42-28.73-58.2-42.85-58.45-43l.95-1.76c.26.14,26.23,14.37,58.82,43.25,30.07,26.64,72.11,71.59,101.62,134.38,12.58,26.77,23.3,50.34,32.75,71.14C278,395.06,298,439,338.59,488.32Z" transform="translate(19.53 40.79)"/><path class="cls-2" d="M174.46,190.3C138,165.42,75.19,174.37,74.55,174.47l-.29-2c.64-.1,64.25-9.16,101.33,16.15Z" transform="translate(19.53 40.79)"/><path class="cls-2" d="M180.1,198.64c-24.53-53-15.57-115.38-15.47-116l2,.3c-.1.61-9,62.4,15.3,114.86Z" transform="translate(19.53 40.79)"/><path class="cls-2" d="M232.15,298.67C117,296.06,89.38,282.35,88.26,281.77l.92-1.78c.28.14,28.57,14.09,143,16.68Z" transform="translate(19.53 40.79)"/><path class="cls-2" d="M214.87,261.22c-1.06-23.45,28.35-112.48,29.6-116.26l1.9.63c-.3.92-30.55,92.46-29.5,115.54Z" transform="translate(19.53 40.79)"/><path class="cls-2" d="M265,370.23c-10.38-49.11,23.07-121.5,23.41-122.22l1.81.84c-.34.72-33.51,72.51-23.26,121Z" transform="translate(19.53 40.79)"/><path class="cls-20" d="M451.5,872.22c-5.72-9.25-35-95.26-99.18-107.62-50.94-9.8-41.14-34.33-25.32-51.28S365.32,687.4,345.55,666c-65.1-70.52-69.33-166.16-9.09-141,32.58,13.59,44-28,28-46.26-34.05-38.68-39.5-80.24-1.25-76.8,37.59,3.39,59.11-9.19,50.81-30.36s-43.19-49.26-5-70.77c15.06-8.48,55,9,68.32,42.22,7.61,18.92,14.78,83.31,49.07,44.58,35.34-39.93,52.15.16,41.74,27.58-3.88,10.21-32.38,107.62-2.25,93,35.57-17.22,52.86,12.47,26.31,55.45-12.06,19.52-51.12,53.93-33.57,63s39,27.34,20.05,56.94C546,734.63,439.62,853,451.5,872.22Z" transform="translate(19.53 40.79)"/><path class="cls-2" d="M452.89,944.07c-9.19-79-.47-138.23,14-236.43,4.12-28,8.79-59.72,13.66-96C491.88,526.86,478.36,452.2,465,404.5c-14.46-51.71-31.84-83.78-32-84.09l2.18-1.19c.17.32,17.66,32.58,32.21,84.54,13.42,47.94,27,123,15.59,208.18C478.1,648.26,473.43,680,469.31,708c-14.41,98-23.11,157.14-14,235.77Z" transform="translate(19.53 40.79)"/><path class="cls-2" d="M484.53,523.22c-21.24-50.36-92.68-83.26-93.4-83.59l1-2.26c.72.33,73,33.63,94.65,84.89Z" transform="translate(19.53 40.79)"/><path class="cls-2" d="M487.25,536.05l-2.46-.35c10.06-71.67,61.26-130.58,61.77-131.17l1.86,1.64C547.91,406.75,497.2,465.12,487.25,536.05Z" transform="translate(19.53 40.79)"/><path class="cls-2" d="M471.84,674.82c-118.16-80.09-137.7-112.9-138.47-114.26l2.15-1.23h0c.26.45,20.5,34,137.71,113.44Z" transform="translate(19.53 40.79)"/><path class="cls-2" d="M481.13,625.46,479,624.22c14.63-25.13,105-98.08,108.87-101.17l1.56,1.93C588.48,525.74,495.53,600.73,481.13,625.46Z" transform="translate(19.53 40.79)"/><path class="cls-2" d="M460.33,772.28,458,771.4c22.15-58.11,105.57-111,106.41-111.54l1.32,2.1C564.92,662.48,482.19,715,460.33,772.28Z" transform="translate(19.53 40.79)"/><path class="cls-21" d="M693.32,167.14c-44.64,61.41-57.23,135.19-39.93,197.71,64.79-2.8,131.09-37.5,175.74-98.91s57.23-135.2,39.93-197.72C804.28,71,738,105.72,693.32,167.14Z" transform="translate(19.53 40.79)"/><rect class="cls-2" x="594.05" y="221.51" width="323.92" height="1" transform="translate(151.32 743.63) rotate(-53.97)"/><rect class="cls-2" x="811.92" y="140.78" width="50.88" height="1" transform="matrix(0.99, -0.16, 0.16, 0.99, 7.75, 172.78)"/><rect class="cls-2" x="779.37" y="184.53" width="62.71" height="1" transform="translate(0.62 169.17) rotate(-8.95)"/><rect class="cls-2" x="746.63" y="225.92" width="104.84" height="1" transform="translate(-5.95 167.77) rotate(-8.94)"/><rect class="cls-2" x="714.17" y="270.81" width="102" height="1" transform="translate(-13.35 163.05) rotate(-8.94)"/><rect class="cls-2" x="681.97" y="319.01" width="56.79" height="1" transform="translate(-21.53 155.19) rotate(-8.95)"/><rect class="cls-2" x="811.01" y="88.79" width="1" height="50.89" transform="translate(11.64 168.7) rotate(-8.97)"/><rect class="cls-2" x="776.31" y="105.17" width="1" height="79.36" transform="translate(6.45 163.67) rotate(-8.97)"/><rect class="cls-2" x="742.27" y="130" width="1" height="99.33" transform="translate(0.6 158.77) rotate(-8.97)"/><rect class="cls-2" x="709.58" y="171.99" width="1" height="102.02" transform="translate(-6.56 154.24) rotate(-8.97)"/><rect class="cls-2" x="678.22" y="230.94" width="1" height="87.65" transform="matrix(0.99, -0.16, 0.16, 0.99, -15.01, 149.97)"/><path class="cls-22" d="M561.09,239.46s-10.08-38-40.37-58.6c-11-7.46-36.42-10.8-44.41,1s-.51,30.79,15.45,41.65C522.05,244.06,561.09,239.46,561.09,239.46Z" transform="translate(19.53 40.79)"/><path class="cls-23" d="M582.05,319.54s-24.72-30.58-60.77-37c-13.07-2.32-37.65,5-40.14,19s12.09,28.32,31.09,31.7C548.29,339.68,582.05,319.54,582.05,319.54Z" transform="translate(19.53 40.79)"/><path class="cls-24" d="M575.5,234.51s36-5.15,62.62-30.35C647.76,195,657.9,172.41,649.9,164s-26.74-3.68-40.74,9.61C582.57,198.79,575.5,234.51,575.5,234.51Z" transform="translate(19.53 40.79)"/><path class="cls-25" d="M593.85,315.58s36.88-4.27,63.46-29.47C667,277,676.71,254,668.24,245s-27.57-4.55-41.58,8.74C600.08,279,593.85,315.58,593.85,315.58Z" transform="translate(19.53 40.79)"/><path class="cls-26" d="M626.05,422.53s31.79.57,52.07-18.69c7.36-7,13.19-26.24,4.72-35.17s-24.67-7.31-35.36,2.83C627.18,390.75,626.05,422.53,626.05,422.53Z" transform="translate(19.53 40.79)"/><path class="cls-27" d="M612.2,426s-16.94-25.2-45.12-34.71c-10.21-3.45-30.48-1.57-33.73,8.09s7.07,21.87,21.93,26.88C583.46,435.77,612.2,426,612.2,426Z" transform="translate(19.53 40.79)"/><path class="cls-12" d="M551.87,86.34l-6.94.34c.12,2,11,200.21,108,431.64l6.4-2.68C562.8,285.39,552,88.3,551.87,86.34Z" transform="translate(19.53 40.79)"/><rect class="cls-2" x="561.44" y="198.67" width="102.52" height="1.14" transform="translate(50.49 516.94) rotate(-43.47)"/><rect class="cls-2" x="599.02" y="192.5" width="1.14" height="18.73" transform="translate(15.55 53.02) rotate(-1.16)"/><rect class="cls-2" x="604.66" y="272.84" width="33.34" height="1.14" transform="translate(315.37 909.91) rotate(-85.1)"/><rect class="cls-2" x="613.32" y="174.85" width="24.7" height="1.14" transform="matrix(0.03, -1, 1, 0.03, 448.43, 835.51)"/><rect class="cls-2" x="621.71" y="190.23" width="1.14" height="17.94" transform="translate(369.46 833.91) rotate(-83.12)"/><rect class="cls-2" x="519.08" y="160.77" width="1.14" height="105.68" transform="translate(80.37 578.68) rotate(-57.6)"/><rect class="cls-2" x="530.91" y="181.15" width="1.14" height="44.58" transform="translate(-14.59 181.32) rotate(-14.6)"/><rect class="cls-2" x="502.11" y="173.74" width="1.14" height="31.87" transform="translate(-8.12 144.36) rotate(-11.45)"/><rect class="cls-2" x="494.93" y="215.81" width="23.83" height="1.14" transform="translate(-21.4 196.69) rotate(-16.82)"/><rect class="cls-2" x="530.77" y="260.57" width="1.14" height="102.58" transform="translate(163 831.33) rotate(-81.39)"/><rect class="cls-2" x="579.59" y="281.13" width="101.58" height="1.14" transform="translate(-13.61 513.49) rotate(-40.14)"/><rect class="cls-2" x="572.21" y="371.08" width="1.14" height="83.22" transform="translate(18.08 864.16) rotate(-71.34)"/><rect class="cls-2" x="615.31" y="395.03" width="78.27" height="1.14" transform="translate(-73.15 599.46) rotate(-43.46)"/><rect class="cls-2" x="575.82" y="388.31" width="1.14" height="32.02" transform="translate(-108.11 451.18) rotate(-35.54)"/><rect class="cls-2" x="538.34" y="412.51" width="23.83" height="1.14" transform="translate(-76.45 217.66) rotate(-16.82)"/><rect class="cls-2" x="638.86" y="381.58" width="29.87" height="1.14" transform="translate(233.44 1039.38) rotate(-84.8)"/><rect class="cls-2" x="509.76" y="281.97" width="1.14" height="31.53" transform="translate(-57.27 404.53) rotate(-36.67)"/><rect class="cls-2" x="549.97" y="294.39" width="1.14" height="23.4" transform="translate(-57.6 399.93) rotate(-33.9)"/><rect class="cls-2" x="508.04" y="322.04" width="31.11" height="1.14" transform="matrix(0.73, -0.68, 0.68, 0.73, -59.57, 485.84)"/><polygon class="cls-2" points="679.16 325.08 649.98 322.51 650.08 321.37 679.26 323.94 679.16 325.08"/><path class="cls-28" d="M556.83,168.68s24.07-38,18.4-80.07C573.18,73.37,556.82,48.76,541,50.9s-26,23.25-23.06,45.41C523.56,138.4,556.83,168.68,556.83,168.68Z" transform="translate(19.53 40.79)"/><rect class="cls-2" x="548.33" y="50.37" width="1.14" height="118.84" transform="translate(9.79 114.95) rotate(-7.66)"/><rect class="cls-2" x="536.04" y="77.02" width="34.25" height="1.14" transform="translate(277.33 592.48) rotate(-66.06)"/><rect class="cls-2" x="534.41" y="98.53" width="1.14" height="32.15" transform="translate(242.63 604.92) rotate(-67.34)"/><path class="cls-29" d="M465.26,657.45c4.27-10.83,59.32-90.92,28.87-153.91-24.17-50,3.13-57.25,27.78-54.52s46.72,16.32,52.45-14.35c18.85-100.94,98.16-165.73,115.12-98,9.17,36.64,52.19,19.86,57.56-5.57C758.43,277.2,790.59,246,812.09,281c21.13,34.42,45.67,44.84,58.52,24.18s14.62-68.56,57.51-49.51c16.9,7.5,27.41,52.94,7.48,85.62-11.36,18.62-62,65.93-6.86,70.59,56.83,4.8,33.21,44.85,3,53.45-11.24,3.21-113,41-81.22,57.56,37.51,19.51,23.1,53.32-30.73,58-24.44,2.13-78.93-9.38-75.48,11.48s1.5,51-36,53.6C643.65,650.54,474.14,635,465.26,657.45Z" transform="translate(19.53 40.79)"/><path class="cls-2" d="M406.36,706.5l-1.82-1.93c61.83-58.36,118.23-88.78,211.67-139.17C642.84,551,673,534.75,707.28,515.71c80-44.45,135.36-103.81,167.73-145.78,35.08-45.47,51.43-80.83,51.59-81.18l2.41,1.1c-.16.36-16.64,36-51.9,81.7C844.58,413.71,788.93,473.36,708.57,518c-34.26,19-64.46,35.33-91.11,49.7C524.22,618,467.93,648.37,406.36,706.5Z" transform="translate(19.53 40.79)"/><path class="cls-2" d="M787.92,464l-2.28-1.34c29.61-50.44,12.14-132.76,12-133.59l2.59-.56C800.37,329.33,818.05,412.66,787.92,464Z" transform="translate(19.53 40.79)"/><path class="cls-2" d="M776.38,473.18l-1.27-2.33c67.89-37.2,151.13-30.93,152-30.87l-.21,2.65C926,442.56,843.56,436.37,776.38,473.18Z" transform="translate(19.53 40.79)"/><path class="cls-2" d="M647.53,548.68c-6.87-152.59,8.78-190.33,9.45-191.86l2.42,1.06-1.21-.53,1.21.53c-.16.37-16,39.06-9.22,190.68Z" transform="translate(19.53 40.79)"/><path class="cls-2" d="M851.19,553.76c-1.25-.32-125-32.14-155.4-28.66l-.3-2.64c13-1.47,43.29,2.92,90,13,34.72,7.54,66,15.61,66.36,15.69Z" transform="translate(19.53 40.79)"/><path class="cls-2" d="M718.6,621c-1-.38-98.86-37.82-162-19.92l-.72-2.55c64-18.14,162.69,19.61,163.68,20Z" transform="translate(19.53 40.79)"/><path class="cls-2" d="M652.67,757.26c-.13,0,10.2-27.84,33.42-44,16.27-11.56,40.41-22.19,54.3-26.66,17.51-5.71,26.9-10.78,26.9-10.78s-11.95,13.47-22.61,21.06-29.22,20-44.61,30c-15.54,9.83-46.06,26.74-47.68,36.46S652.62,757.26,652.67,757.26Z" transform="translate(19.53 40.79)"/><path class="cls-2" d="M651.86,752.23s-10.22-7.59-20.07-15-29.93-23.08-44-29.36c-14-5.94-51.49-24.36-52.92-26.36-1.48-1.69,21.52,27.9,38.12,38.82,16.56,11.29,50.3,25,65.8,31.41S655.25,754.92,651.86,752.23Z" transform="translate(19.53 40.79)"/><path class="cls-2" d="M653.64,718c-.31-.12,22.91-33.52,39.82-44.69,16.45-11.39,37.37-21.76,57.62-29.18s26.44-8.63,26.42-8.64c-.2-.13-29,24.22-43.65,33.83-15,9.41-29.19,19.62-45.61,28.38s-33.14,19.55-34.8,29.38S653.56,718,653.64,718Z" transform="translate(19.53 40.79)"/><path class="cls-2" d="M651.79,719.85S646,712,635.94,697.53,613,665.12,605.26,658.29c-7.74-6.46-48.3-28.52-49.32-29.67-1.15-.83,13.79,34.28,28.59,47.29,17.39,15.62,36.2,23.46,53.21,38.36s15.9,16.11,15.89,16.17Q652.67,725.16,651.79,719.85Z" transform="translate(19.53 40.79)"/><path class="cls-2" d="M658.69,682.4s7.2-14.36,28.14-32.76,35.07-28.31,50.4-34.38,38.87-12.72,38.89-12.71-14.71,14.1-27.59,22.82c-13.06,8.59-40.32,25-56.31,35.74s-31.73,22.5-35.88,34.09S658.55,682.37,658.69,682.4Z" transform="translate(19.53 40.79)"/><path class="cls-2" d="M658.81,676.79c-.08,0-1.3-20.78-15.55-38.29s-18.4-27.3-27-33.15c-8.58-5.68-36.93-28.21-36.92-28.37-.29.18,18.6,46.08,33.18,59.82,14.29,14.05,33.59,24.75,43.93,41.52C661.87,687,658.8,676.78,658.81,676.79Z" transform="translate(19.53 40.79)"/><path class="cls-2" d="M665.25,642.69c-.09,0,15.76-20.49,29.67-31.39,13.75-11,28.57-21.4,53.08-31.26s36.37-13.19,36.34-13.23-8.13,13.51-32.25,28.53-45.84,25.49-56.72,32.51-26.66,16.36-30.68,22.1S665.21,642.68,665.25,642.69Z" transform="translate(19.53 40.79)"/><path class="cls-2" d="M667.89,619.53c-.14.13-14.32-34.24-17.45-47.95-4.77-19.21-35.5-40.74-37.45-43.72-2.15-2.74,5,39.93,14.12,52.75,4.81,7.41,27.13,34,33.79,44.32S669.84,628.66,667.89,619.53Z" transform="translate(19.53 40.79)"/><path class="cls-2" d="M675.46,605.62s12.76-13.29,26-24.41c13-11.28,39.29-29.47,53-33.73,13.51-4.41,38-10.32,38.05-10.3s-6.07,12.41-26.49,23.61-39.06,21.27-53.36,28.12-36.38,19.68-39.57,27S675.4,605.6,675.46,605.62Z" transform="translate(19.53 40.79)"/><path class="cls-2" d="M682.1,580a121.3,121.3,0,0,0-2.64-27.5c-3.22-13.75-6.77-30.28-9.93-40.76s-12.9-26.65-12.88-26.69c-.16,0-6.22,29.18-2.25,44.6,3.65,15.56,20.73,43.59,24,57.47C681.14,599,682,580,682.1,580Z" transform="translate(19.53 40.79)"/><path class="cls-2" d="M688.46,572.18c-.06,0,15.81-16,22.17-26.42,6.11-10.64,27.9-29.37,44-35.64,16-6.43,36.59-14.07,36.61-14.05s-14.48,13.32-22.94,20.28-18.19,15-39.21,30-42.87,33.13-46.3,37.25S688.39,572.15,688.46,572.18Z" transform="translate(19.53 40.79)"/><path class="cls-2" d="M688.7,562.84s1.19-6,3.54-21c2.19-15.09,11.24-41.18,17.33-48.82,5.63-7.94,40-31.72,42.11-34,1.61-2.51-11.78,28.16-16.24,37.5-4.75,9.25-7.5,20.84-15.41,29.48-8.23,8.5-29,36-29.4,40.75C690,571.41,688.69,562.85,688.7,562.84Z" transform="translate(19.53 40.79)"/><path class="cls-2" d="M649.35,759.71c-.48-18.09-.24-33.3.8-40.84-1-28.37,15.55-106.66,29.6-139.19,7.28-19.51,19.3-32.61,19.68-34.21s-7.75,22.49-10.65,30.28c-3.4,7.66-15.69,45.17-21.06,67.14-6.13,21.83-9.91,59.14-10.89,74.93-1.31,7.3-1.8,29.5-.55,56" transform="translate(19.53 40.79)"/><path class="cls-30" d="M201.26,421.43s-10.08-38-40.38-58.59c-11-7.46-36.41-10.81-44.41,1s-.51,30.79,15.45,41.65C162.22,426,201.26,421.43,201.26,421.43Z" transform="translate(19.53 40.79)"/><path class="cls-31" d="M222.22,501.51s-24.72-30.58-60.78-37c-13.06-2.32-37.65,5-40.14,19s12.1,28.32,31.1,31.7C188.46,521.66,222.22,501.51,222.22,501.51Z" transform="translate(19.53 40.79)"/><path class="cls-32" d="M215.67,416.49s36-5.15,62.62-30.36c9.64-9.14,19.77-31.75,11.77-40.19s-26.74-3.68-40.73,9.62C222.73,380.76,215.67,416.49,215.67,416.49Z" transform="translate(19.53 40.79)"/><path class="cls-33" d="M234,497.55s36.88-4.27,63.45-29.47c9.64-9.15,19.4-32.16,10.93-41.09s-27.57-4.54-41.58,8.74C240.24,460.94,234,497.55,234,497.55Z" transform="translate(19.53 40.79)"/><path class="cls-34" d="M266.21,604.5s31.79.57,52.08-18.68c7.35-7,13.18-26.25,4.72-35.18s-24.68-7.31-35.37,2.84C267.34,572.72,266.21,604.5,266.21,604.5Z" transform="translate(19.53 40.79)"/><path class="cls-35" d="M252.37,608s-17-25.2-45.12-34.71c-10.21-3.45-30.48-1.57-33.73,8.09s7.07,21.87,21.92,26.88C223.62,617.74,252.37,608,252.37,608Z" transform="translate(19.53 40.79)"/><path class="cls-12" d="M192,268.31l-6.94.35c.12,2,11,200.2,108,431.63l6.4-2.68C203,467.36,192.12,270.28,192,268.31Z" transform="translate(19.53 40.79)"/><rect class="cls-2" x="201.6" y="380.64" width="102.52" height="1.14" transform="translate(-173.38 319.3) rotate(-43.47)"/><rect class="cls-2" x="239.18" y="374.47" width="1.14" height="18.73" transform="translate(11.78 45.74) rotate(-1.16)"/><rect class="cls-2" x="244.83" y="454.81" width="33.34" height="1.14" transform="translate(-195.03 717.81) rotate(-85.1)"/><rect class="cls-2" x="253.48" y="356.83" width="24.7" height="1.14" transform="translate(-80.94 651.62) rotate(-88.04)"/><rect class="cls-2" x="261.88" y="372.2" width="1.14" height="17.94" transform="translate(-127.91 636.83) rotate(-83.12)"/><rect class="cls-2" x="159.25" y="342.74" width="1.14" height="105.68" transform="translate(-240.28 359.32) rotate(-57.6)"/><rect class="cls-2" x="171.07" y="363.12" width="1.14" height="44.58" transform="translate(-72.07 96.5) rotate(-14.6)"/><rect class="cls-2" x="142.27" y="355.72" width="1.14" height="31.87" transform="translate(-51.41 76.55) rotate(-11.45)"/><polygon class="cls-2" points="155.3 443.16 154.97 442.06 177.77 435.15 178.1 436.24 155.3 443.16"/><rect class="cls-2" x="170.94" y="442.55" width="1.14" height="102.58" transform="matrix(0.15, -0.99, 0.99, 0.15, -322.9, 630.29)"/><rect class="cls-2" x="219.76" y="463.11" width="101.58" height="1.14" transform="translate(-215.65 324.39) rotate(-40.14)"/><rect class="cls-2" x="212.37" y="553.05" width="1.14" height="83.22" transform="translate(-399.06 646.99) rotate(-71.34)"/><rect class="cls-2" x="255.47" y="577" width="78.27" height="1.14" transform="translate(-297 401.83) rotate(-43.46)"/><rect class="cls-2" x="215.98" y="570.28" width="1.14" height="32.01" transform="translate(-280.92 275.89) rotate(-35.54)"/><rect class="cls-2" x="178.51" y="594.48" width="23.83" height="1.14" transform="translate(-144.49 121.34) rotate(-16.82)"/><rect class="cls-2" x="279.02" y="563.56" width="29.87" height="1.14" transform="translate(-274.98 846.5) rotate(-84.8)"/><rect class="cls-2" x="149.92" y="463.94" width="1.14" height="31.53" transform="translate(-237.19 225.64) rotate(-36.67)"/><rect class="cls-2" x="190.14" y="476.37" width="1.14" height="23.4" transform="translate(-220.3 230.17) rotate(-33.91)"/><rect class="cls-2" x="148.2" y="504.01" width="31.11" height="1.14" transform="translate(-281.15 289.02) rotate(-43.12)"/><polygon class="cls-2" points="319.32 507.05 290.14 504.48 290.25 503.34 319.43 505.91 319.32 507.05"/><path class="cls-36" d="M197,350.65s24.07-38,18.4-80.07c-2-15.24-18.41-39.84-34.24-37.71s-26.05,23.25-23.07,45.42C163.73,320.37,197,350.65,197,350.65Z" transform="translate(19.53 40.79)"/><rect class="cls-2" x="188.5" y="232.34" width="1.14" height="118.84" transform="translate(-17.68 68.6) rotate(-7.66)"/><rect class="cls-2" x="176.2" y="258.99" width="34.25" height="1.14" transform="translate(-102.82 371.73) rotate(-66.06)"/><rect class="cls-2" x="174.58" y="280.5" width="1.14" height="32.15" transform="translate(-146.49 384.73) rotate(-67.34)"/><path class="cls-37" d="M379.29,804.54c-47.08,59.57-114.71,91.58-179.56,91.77-14.78-63.16.76-136.38,47.84-195.94s114.72-91.58,179.57-91.78C441.91,671.75,426.37,745,379.29,804.54Z" transform="translate(19.53 40.79)"/><rect class="cls-2" x="147.61" y="758.46" width="323.91" height="1" transform="translate(-458.17 571.58) rotate(-51.65)"/><rect class="cls-2" x="364.85" y="633.38" width="1" height="50.89" transform="translate(-54.47 87.66) rotate(-6.67)"/><rect class="cls-2" x="329.91" y="664.92" width="1" height="62.73" transform="translate(-59.08 83.87) rotate(-6.67)"/><rect class="cls-2" x="293.22" y="666.25" width="1" height="104.87" transform="translate(-61.93 79.76) rotate(-6.67)"/><rect class="cls-2" x="259.13" y="712.41" width="1" height="102.02" transform="translate(-67.36 76.1) rotate(-6.67)"/><rect class="cls-2" x="227.51" y="800.81" width="1" height="56.81" transform="translate(-75.21 72.88) rotate(-6.67)"/><rect class="cls-2" x="372.92" y="675.94" width="50.88" height="1" transform="translate(-55.38 90.91) rotate(-6.58)"/><rect class="cls-2" x="338.57" y="717.61" width="79.33" height="1" transform="translate(-61.61 89.79) rotate(-6.7)"/><rect class="cls-2" x="304.26" y="759.79" width="99.3" height="1" transform="translate(-66.7 87.24) rotate(-6.7)"/><rect class="cls-2" x="270" y="802.96" width="101.99" height="1" transform="translate(-71.88 83.66) rotate(-6.69)"/><rect class="cls-2" x="235.8" y="847.12" width="87.63" height="1" transform="translate(-77.39 79.17) rotate(-6.7)"/><path class="cls-38" d="M274.92,69.39s7.93-3,14.18-.81c12.67,4.43,10.13,13.16.81,14.19s-19.37-3.34-23.17-5.46,11.53,4,7.58,15.48-19.45-12.13-6.71-23.74S259,86.71,251.87,92.72s-12.2-2.45-8.37-8.74c2.87-4.72,4.6-12.42,30.52-11s-10.82,8.46-25.51-6.31-13.72-19.86-6.06-19.32S273.89,64,260.58,78.55s1.45-.91,2.93-9.14c1-5.69,3.75-21.79,9.84-25.42,7.56-4.5,13.26-1.94,8.62,11.39S274.92,69.39,274.92,69.39Z" transform="translate(19.53 40.79)"/><path class="cls-2" d="M265.14,73.6a2.46,2.46,0,1,0-.76-3.24A2.35,2.35,0,0,0,265.14,73.6Z" transform="translate(19.53 40.79)"/><path class="cls-39" d="M87.08,969.82s7.93-3,14.19-.81c12.66,4.43,10.12,13.16.81,14.19s-19.37-3.33-23.17-5.46,11.53,4,7.57,15.48S67,981.09,79.78,969.48,71.15,987.14,64,993.16s-12.21-2.46-8.38-8.75c2.87-4.72,4.6-12.42,30.52-11s-10.82,8.46-25.5-6.31S47,947.21,54.62,947.75,86.05,964.4,72.75,979s1.44-.91,2.92-9.14c1-5.69,3.76-21.79,9.84-25.42,7.57-4.5,13.27-1.94,8.62,11.39S87.08,969.82,87.08,969.82Z" transform="translate(19.53 40.79)"/><path class="cls-2" d="M77.31,974a2.46,2.46,0,1,0-.77-3.24A2.36,2.36,0,0,0,77.31,974Z" transform="translate(19.53 40.79)"/><path class="cls-40" d="M354.41,375.52s-6.54,5.39-13.17,5.33c-13.42-.12-13.82-9.2-5.33-13.17s19.41-3.08,23.69-2.29-12.18,0-12.16-12.22,22.32,5.22,14,20.32,2.48-19.5,7.27-27.49,12.35-1.6,10.75,5.59c-1.2,5.39-.36,13.24-25.34,20.27s7.52-11.5,26.18-2.24S399.68,384,392.25,386s-35.12-5.64-27.22-23.73-1.07,1.33.18,9.6c.86,5.71,3.45,21.84-1.14,27.23-5.71,6.7-11.93,6.11-11.83-8S354.41,375.52,354.41,375.52Z" transform="translate(19.53 40.79)"/><path class="cls-2" d="M362.31,368.38a2.47,2.47,0,1,0,1.76,2.82A2.37,2.37,0,0,0,362.31,368.38Z" transform="translate(19.53 40.79)"/><path class="cls-41" d="M716.3,1060.93c-4.52-3.64-9.42-6.62-23.25-7.93s-46.54-8-65-6.52c-18.31,1.62-45.54,3-47,2.66-1.37-.16,40.27,14.82,62.51,15.51,18.71.78,37.62-1.15,48.69-2.31s22.23-.8,28,2.77A32.67,32.67,0,0,0,716.3,1060.93Z" transform="translate(19.53 40.79)"/><path class="cls-42" d="M703.7,1032.2s-1-13.19,8.91-32.59,20.51-36.09,27.38-43.67,25.84-20.55,28-22.76c2.05-2.25-6,19-9.39,25.48-3.53,6.45-11.8,18.61-24.44,32.06C721.37,1004.12,706.26,1026,703.7,1032.2Z" transform="translate(19.53 40.79)"/><path class="cls-43" d="M701.6,1030.25c-7-2.7-23.75-5.06-33.88-6.92s-18.78.15-56.83-10.61a245.07,245.07,0,0,1-58.16-25.13s6.47.84,27.76,1.47,51.36,12.82,75.88,20.1,39.73,15.65,39.76,15.67C698,1026.65,699.77,1028.45,701.6,1030.25Z" transform="translate(19.53 40.79)"/><path class="cls-44" d="M683.86,1002.16c-.3,0,10.26-35.94,19.41-52.36,8.68-16.49,14.74-29.33,34.79-38.31s29.43-15.42,29.43-15.42-13.9,19.45-26,34.2c-12.36,14.65-27.4,35.15-33.43,41.57C701.72,978.17,688.07,1002.25,683.86,1002.16Z" transform="translate(19.53 40.79)"/><path class="cls-45" d="M679.15,981.61c-8.12-5.3-16.71-9.51-36.81-17-19-7.07-41.88-15.76-54.19-18.19-12.14-2.21-52.64-10.7-53.76-11-1,0,29.12,21.73,48.16,27.55,19,6,35.22,12.16,59.66,13.82S679,983.86,684.7,990,681.07,982.9,679.15,981.61Z" transform="translate(19.53 40.79)"/><path class="cls-46" d="M673.63,960.07c-.06,0,5.28-16.7,15.42-24.24,9.82-7.64,30.19-31.6,36.28-39.61,5.47-8.26,33.31-39.75,34.92-42.31,1.25-2.72-14.27,9.28-28.18,16.23s-29.93,23.65-39.39,38.07c-9.82,14.31-21.73,42.07-22.08,46.3A5.17,5.17,0,0,0,673.63,960.07Z" transform="translate(19.53 40.79)"/><path class="cls-47" d="M665.82,944s-17.71-9.12-34.09-16.66S586.15,910,578.34,906.19c-7.65-3.56-47.91-14.52-49-15.9-1-1.19,22.2,20.18,47.6,32.12s43.11,16,60.84,19.29,28.23,7.22,31.65,11.17S665.79,944,665.82,944Z" transform="translate(19.53 40.79)"/><path class="cls-48" d="M658.26,902.13c-.22-.07,15.83-29.25,26.77-40.77,10.58-11.66,21.77-25.69,33.59-33.73s30.06-20.06,30.09-20-14.1,21.73-25.4,35.76c-11.52,13.94-23.67,29.57-38.3,43.38a287.25,287.25,0,0,1-28,23.31Q657.59,906.09,658.26,902.13Z" transform="translate(19.53 40.79)"/><path class="cls-49" d="M652.46,900.32c0,.12-31.42-18.17-48.74-26.91C586.5,865,556.9,852.31,544,848.51a220.31,220.31,0,0,1-24.47-8.74c0,.35,47.11,36.45,69.82,43.52,22.87,7.79,62.29,21.44,69.3,30.8C665.67,923.63,652.37,900.38,652.46,900.32Z" transform="translate(19.53 40.79)"/><path class="cls-50" d="M650.41,860.73c-.27-.1,17.74-31.72,25.35-41.25,7.15-9.71,24.93-24.25,36.9-29.59,11.81-5.43,39.26-19,43.06-23.07s-10.06,17.52-25,30.14c-15.2,12.51-36.78,30-52.89,44.55s-24.41,20-25.62,31.2S650.3,860.73,650.41,860.73Z" transform="translate(19.53 40.79)"/><path class="cls-51" d="M645.94,857s-17.18-12.79-31.69-20.71-36.8-16.65-47.48-22c-10.56-5.1-49.85-18.86-51.88-21.26-2-2.1,30.52,30.68,58.12,42,27.53,11.54,47,15.64,56.84,20.36S649,865.81,649,865.81C648,862.89,647,860,645.94,857Z" transform="translate(19.53 40.79)"/><path class="cls-52" d="M647.8,813c-.14,0,16.77-25.74,34.63-39.76,17.59-14.16,48-25,58.89-29.17a102.45,102.45,0,0,1,17.62-5.43s-14.36,13.08-31,26.44-41.08,26.18-52.2,31.91-27.33,19.84-28.42,24.24S647.76,813,647.8,813Z" transform="translate(19.53 40.79)"/><path class="cls-53" d="M643.46,815.54c0,.06-21.11-19-39.82-28.84S568,766.21,557.9,762s-35.13-18.23-35.15-18.31,16,22.58,38.14,36.86c16.67,11.06,65.47,29.94,79.67,38.58C652,826.29,643.44,815.55,643.46,815.54Z" transform="translate(19.53 40.79)"/><path class="cls-54" d="M648.36,776.16c-.15,0,12.72-28.88,38.39-44.55,18-11.23,44.26-21,59.25-24.82,18.91-4.93,29.19-9.71,29.19-9.71S761.62,710.6,749.82,718s-32.28,19.38-49.24,28.94c-17.11,9.43-50.55,25.41-53,35.62S648.3,776.15,648.36,776.16Z" transform="translate(19.53 40.79)"/><path class="cls-55" d="M647.85,770.77s-10.27-8.69-20.17-17.14-30-26.38-44.41-33.92c-14.34-7.18-52.72-29.1-54.09-31.3-1.45-1.89,20.79,30.94,37.57,43.57,16.72,13,51.42,29.73,67.36,37.47S651.25,773.84,647.85,770.77Z" transform="translate(19.53 40.79)"/><path class="cls-56" d="M652.12,734.58c-.32-.15,26.56-34.09,45.21-44.86,18.19-11,41-20.69,62.94-27.27S788.82,655,788.8,655c-.21-.15-32.36,23.84-48.5,33.09-16.45,9-32.22,18.94-50.19,27.2s-36.4,18.62-38.84,28.93S652,734.56,652.12,734.58Z" transform="translate(19.53 40.79)"/><path class="cls-57" d="M650,736.44s-5.62-8.72-15.2-24.67S612.9,676,605.16,668.23c-7.73-7.35-49.06-33.3-50.06-34.59-1.15-1,12.18,37.22,26.92,52,17.28,17.66,36.62,27.17,53.56,44s15.67,18.09,15.66,18.16Q650.59,742.12,650,736.44Z" transform="translate(19.53 40.79)"/><path class="cls-58" d="M660,697.17c0,.05,8.61-14.76,32-32.93s39-27.79,55.67-33.25,42-11,42-11-16.53,14-30.75,22.45c-14.41,8.27-44.37,24-62,34.31s-35.1,21.83-40.3,33.86S659.8,697.13,660,697.17Z" transform="translate(19.53 40.79)"/><path class="cls-59" d="M660.46,691.23c-.07-.05.08-22.1-13.75-41.57s-17.54-30.11-26.18-36.85c-8.67-6.57-37.06-32.26-37-32.43-.32.18,16.43,50,30.89,65.52,14.12,15.81,33.77,28.38,43.53,46.82C663,702.23,660.46,691.23,660.46,691.23Z" transform="translate(19.53 40.79)"/><path class="cls-60" d="M669.65,655.49c-.09,0,18.1-20.71,33.56-31.39,15.3-10.76,31.69-20.87,58.28-29.76s39.37-11.68,39.34-11.72-9.54,13.81-36.08,28.2-50.24,24.1-62.22,30.86-29.33,15.64-34,21.48S669.61,655.48,669.65,655.49Z" transform="translate(19.53 40.79)"/><path class="cls-61" d="M674.07,631.11c-.17.13-12.75-37.21-15.1-51.94-3.7-20.66-34.67-45.44-36.52-48.72-2.09-3,2.47,42.65,11.23,56.82,4.57,8.16,26.3,37.73,32.62,49.12S675.49,640.92,674.07,631.11Z" transform="translate(19.53 40.79)"/><path class="cls-62" d="M683,616.85s14.42-13.28,29.19-24.23c14.58-11.13,43.59-28.75,58.33-32.39,14.6-3.82,40.93-8.53,41-8.5s-7.29,12.76-29.65,23.35-42.78,20.06-58.37,26.41S683.67,620,679.78,627.57,683,616.82,683,616.85Z" transform="translate(19.53 40.79)"/><path class="cls-63" d="M691.84,590.11a128,128,0,0,0-.86-29.32c-2.44-14.79-5-32.53-7.65-43.84s-11.77-29.08-11.75-29.12c-.16-.05-8.61,30.55-5.49,47.15,2.77,16.73,18.86,47.52,21.35,62.45C689.5,610.22,691.77,590.1,691.84,590.11Z" transform="translate(19.53 40.79)"/><path class="cls-64" d="M699.11,582.22c-.05-.05,17.83-15.93,25.28-26.6,7.21-10.88,31.55-29.36,49-35,17.3-5.81,39.66-12.6,39.68-12.57s-16.23,13.2-25.66,20-20.28,14.8-43.55,29.33-47.62,32.4-51.53,36.54S699,582.19,699.11,582.22Z" transform="translate(19.53 40.79)"/><path class="cls-65" d="M700,572.34s1.68-6.3,5.21-22.08C708.6,534.42,720,507.33,727,499.62c6.51-8.07,44.55-31.08,46.88-33.33,1.88-2.56-14.41,29.1-19.78,38.72-5.67,9.5-9.38,21.62-18.36,30.28-9.28,8.48-33.16,36.28-33.91,41.32C700.8,581.5,700,572.35,700,572.34Z" transform="translate(19.53 40.79)"/><path class="cls-66" d="M714.19,1065.26c-32.53-53-62-144.06-64.52-171-8.41-29.23-6.39-134.19-1.3-159,1-30.13,23.89-112.07,41-145.67,9.06-20.22,22.69-33.34,23.2-35S702.82,578,699.2,586c-4.13,7.91-19.74,46.9-27,69.84-8,22.75-14.61,62.07-16.74,78.75-4.07,16.42-9,105.94,2.36,157.9,2.08,11.74,11.85,51.87,28.8,92.67a580.68,580.68,0,0,0,27.74,59.14" transform="translate(19.53 40.79)"/><path class="cls-67" d="M315.38,1053.32c3.93-7.85,50.64-64.36,31.95-113.73-14.83-39.17,6.17-42.81,24.51-39.12s34,15.38,40.37-7.28c20.89-74.6,84.81-118,93-66,4.45,28.15,37.89,18.41,43.62-.35,12.16-39.77,38.4-61.12,52.23-33.37,13.59,27.28,31.34,36.75,42.37,22.08S659,765.05,690,782.22c12.2,6.77,17.07,41.62-.08,64.84-9.78,13.24-51,45.42-9.85,52.6,42.38,7.39,22,35.91-1.28,40.37-8.66,1.66-87.65,23.3-64.87,37.84,26.88,17.16,13.81,41.61-27,41.56-18.51,0-58.69-12.31-57.49,3.59s-2.26,38.4-30.63,37.89C449.9,1060,323.55,1037,315.38,1053.32Z" transform="translate(19.53 40.79)"/><path class="cls-2" d="M267.85,1086.26l-1.24-1.57c50.35-39.74,94.76-58.83,168.33-90.47,21-9,44.75-19.25,71.76-31.27,63-28.07,108.6-69,135.72-98.33,29.4-31.83,44.07-57.36,44.22-57.61l1.73,1c-.14.25-14.9,25.94-44.44,57.93-27.25,29.52-73,70.63-136.42,98.84-27,12-50.8,22.26-71.78,31.29C362.31,1027.63,318,1046.69,267.85,1086.26Z" transform="translate(19.53 40.79)"/><path class="cls-2" d="M570.75,929.45l-1.63-1.16c25.61-35.92,18-98.95,17.89-99.59l2-.25C589.07,829.09,596.81,892.89,570.75,929.45Z" transform="translate(19.53 40.79)"/><path class="cls-2" d="M561.46,935.59l-.8-1.83c53.5-23.43,115.64-13.18,116.26-13.07l-.34,2C676,922.55,614.4,912.4,561.46,935.59Z" transform="translate(19.53 40.79)"/><path class="cls-2" d="M461.6,983.82l-2-.08c5-115.13,19.28-142.44,19.88-143.55l1.76,1C481.09,841.42,466.57,869.42,461.6,983.82Z" transform="translate(19.53 40.79)"/><path class="cls-2" d="M612.31,1001.13c-.91-.32-91.81-32.44-114.87-31.9l-.05-2h.66c24.41,0,111.21,30.71,114.93,32Z" transform="translate(19.53 40.79)"/><path class="cls-2" d="M508.19,1042.85c-.71-.35-71.77-35-120.42-25.76l-.37-2c49.31-9.36,121,25.59,121.67,25.94Z" transform="translate(19.53 40.79)"/><path class="cls-68" d="M278.44,1100.92l-2.93-1.16c50-126.6,106.6-210.17,145.29-258,42-51.87,72.6-74.1,72.9-74.32l1.84,2.56c-.3.22-30.66,22.28-72.4,73.88C384.61,891.52,328.24,974.77,278.44,1100.92Z" transform="translate(19.53 40.79)"/><path class="cls-69" d="M264.88,1071.72l-3.1-.53c13.05-77.51,42.85-147.18,65.56-192,24.6-48.54,46.42-79.17,46.64-79.48l2.56,1.84c-.22.3-21.93,30.78-46.42,79.12C307.52,925.29,277.86,994.62,264.88,1071.72Z" transform="translate(19.53 40.79)"/><path class="cls-70" d="M320,1090.63l-3.11-.54c12.28-71.26,46.59-114.11,73.21-137.52,28.88-25.39,55.27-34,55.54-34.11l1,3c-.26.08-26.14,8.58-54.54,33.58C365.88,978.11,332.12,1020.35,320,1090.63Z" transform="translate(19.53 40.79)"/><path class="cls-16" d="M510.31,750.06c19.31,16.25,29.63,35.75,23.05,43.58s-27.56,1-46.87-15.24-29.63-35.75-23.05-43.57S491,733.82,510.31,750.06Z" transform="translate(19.53 40.79)"/><path class="cls-2" d="M502.18,759.73c6.13,5.16,9.41,11.36,7.32,13.84s-8.75.32-14.88-4.84-9.41-11.35-7.32-13.83S496.05,754.58,502.18,759.73Z" transform="translate(19.53 40.79)"/><path class="cls-17" d="M381.79,792.89c8,6.76,12.34,14.88,9.6,18.14s-11.48.42-19.52-6.35-12.33-14.88-9.59-18.14S373.75,786.12,381.79,792.89Z" transform="translate(19.53 40.79)"/><path class="cls-2" d="M378.41,796.91c2.55,2.15,3.91,4.73,3,5.76s-3.64.14-6.19-2-3.92-4.73-3.05-5.76S375.85,794.77,378.41,796.91Z" transform="translate(19.53 40.79)"/><path class="cls-18" d="M454.28,914.28c7.73,11.12,10.35,22.68,5.84,25.81S445.7,936.75,438,925.63s-10.34-22.68-5.84-25.81S446.55,903.16,454.28,914.28Z" transform="translate(19.53 40.79)"/><path class="cls-2" d="M448.72,918.16c2.45,3.53,3.28,7.2,1.85,8.19s-4.58-1.06-7-4.59-3.29-7.2-1.86-8.2S446.26,914.63,448.72,918.16Z" transform="translate(19.53 40.79)"/><path class="cls-38" d="M613,1086.21s6.49,5.46,7.63,12c2.32,13.22-6.54,15.26-12,7.63s-6.54-18.53-6.54-22.89,2.18,12-9.81,14.17,1.09-22.9,17.44-17.45-19.62,1.1-28.34-2.17-3.81-11.86,3.55-11.59c5.51.2,13.08-2,24.52,21.26s-12.67-5.31-7-25.35,10.63-21.67,13.9-14.72.82,35.57-18.39,31.08,1.5.81,9.4-1.91c5.46-1.89,20.84-7.36,27-3.82,7.63,4.41,8.18,10.63-5.72,13.09S613,1086.21,613,1086.21Z" transform="translate(19.53 40.79)"/><path class="cls-2" d="M604.56,1079.73a2.46,2.46,0,1,0,2.45-2.25A2.35,2.35,0,0,0,604.56,1079.73Z" transform="translate(19.53 40.79)"/><path class="cls-71" d="M741.11,1104l-22,21.37a318.73,318.73,0,0,1-59.53-37.18,258.4,258.4,0,0,1,38-53.45c74.56-80.53,241.27-32.59,266,109.35-42.43,20.54-105.87,24.54-174.41,6.93A377.51,377.51,0,0,1,738.2,1134Z" transform="translate(19.53 40.79)"/><path class="cls-2" d="M963.33,1144.42c-30.3-33-65.11-56.53-103.47-69.82-30.68-10.64-63.68-14.81-98.1-12.39-58.6,4.11-101.51,26.19-101.94,26.41l-.42-.81c.42-.22,43.5-22.39,102.3-26.51,34.54-2.43,67.67,1.76,98.46,12.43,38.5,13.35,73.44,36.92,103.85,70.08Z" transform="translate(19.53 40.79)"/><polygon class="cls-2" points="735.37 1110.19 706.39 1087.96 706.94 1087.23 735.93 1109.46 735.37 1110.19"/><rect class="cls-2" x="734.25" y="1012.18" width="0.91" height="59.28" transform="translate(-508.42 906.85) rotate(-46.88)"/><rect class="cls-2" x="770.76" y="994.17" width="0.91" height="77.3" transform="translate(-474.86 829.24) rotate(-42.32)"/><rect class="cls-2" x="811.33" y="989.09" width="0.91" height="84.98" transform="translate(-412.37 652.38) rotate(-33.14)"/><rect class="cls-2" x="847.23" y="996.19" width="0.91" height="84.24" transform="translate(-352.57 523.42) rotate(-26.28)"/><rect class="cls-2" x="889.09" y="1015.04" width="0.91" height="83.04" transform="translate(-302.43 434.13) rotate(-21.21)"/><rect class="cls-2" x="925.7" y="1046.32" width="0.91" height="74.55" transform="translate(-267.47 375.93) rotate(-17.81)"/><rect class="cls-2" x="679.39" y="1088.83" width="47.56" height="0.91" transform="translate(-571.51 1207.57) rotate(-60.58)"/><rect class="cls-2" x="699.26" y="1092.52" width="73.81" height="0.91" transform="translate(-561.95 1152.39) rotate(-56.85)"/><rect class="cls-2" x="730.74" y="1100.06" width="89.51" height="0.91" transform="translate(-543.57 1285.14) rotate(-60.96)"/><rect class="cls-2" x="766.91" y="1109.27" width="94.72" height="0.91" transform="translate(-520.67 1395.33) rotate(-63.98)"/><rect class="cls-2" x="802.47" y="1117.08" width="90.78" height="0.91" transform="translate(-498.96 1475.9) rotate(-65.9)"/><rect class="cls-2" x="850.88" y="1128.33" width="74.61" height="0.91" transform="translate(-496.59 1471.18) rotate(-63.92)"/><rect class="cls-2" x="902.18" y="1138.45" width="46.49" height="0.91" transform="translate(-509.51 1374.78) rotate(-58.54)"/><path class="cls-72" d="M1065.4,1011.55a65.52,65.52,0,0,1-14.86,6.52c12.56-12,23.63-27.56,32-46.1a165.7,165.7,0,0,0,10.5-31.24c-3-1.89-6-3.58-8.7-5-5.66-3-12.6-7.25-20.36-12.41-2.72,15.79-9.24,29.93-19.39,40.72,6.8-14,9.68-30.67,8.42-48.18-28.6-19.88-64.34-47.45-89.44-64.91-4.28,21-15.43,38.75-33,49.25-1.59.94-3.21,1.79-4.85,2.6,15.7-14.78,23.81-36.92,23.73-61.27-.63-.38-1.23-.77-1.82-1.13-11.28-6.89-25.78-17-41.15-27.69a66.39,66.39,0,0,0-11.29,9.61,73.09,73.09,0,0,1,7.49-12.25c-12.12-8.4-24.65-17-36.48-24.5-1.56,25.47-12.39,47.9-31.74,61,12.31-20.08,15.51-47.09,8.8-74.44a119.13,119.13,0,0,0-14.75-6.69c-30.63-10.93-106.86.25-105.2,5.26,4.26,12.89-7.76,24.07-2.67,86.28a217.07,217.07,0,0,0,7.22,40.3c19.93,3.88,42.9.61,64.27-10.5A111.48,111.48,0,0,1,735,918.9a313.78,313.78,0,0,0,27.17,54.15c13.59-.06,28.57-4.17,42.56-12.54,2.21-1.33,4.34-2.74,6.38-4.19a86.08,86.08,0,0,1-29.35,28.43,90.36,90.36,0,0,1-8.89,4.69c7.77,11.31,16.07,22.32,24.69,33,7.51,9.34,18.1,19.49,30.92,30.13.53-.77,1.06-1.56,1.6-2.33q4.71-6.69,9.66-12.67a109,109,0,0,0-5.36,19.81c10.83,8.67,23,17.63,36.14,26.7,11.42-6.44,24.13-17.54,36.15-32.1a187.28,187.28,0,0,1-22,41.68c16.12,10.74,33.29,21.58,50.82,32.23a178.81,178.81,0,0,0,17.18-34.9c1.91,10.31-.64,24.88-7,41,25.74,15.42,51.91,30.32,76.3,43.87,7.24-14.8,11.84-28.74,13.38-40.22,6.19,8.65,4.87,25.79-2.55,46.21q6.6,3.64,13,7.12c86.48,47.27,221.66-4.28,221.66-4.28s-76.76-129.56-86.8-159.66c-5.77-17.29-47.94-57.55-80.2-79.58C1099.44,973.6,1087.48,998.34,1065.4,1011.55Z" transform="translate(19.53 40.79)"/><path class="cls-73" d="M1182.77,1149.75s7.78-94.56-2.26-124.66c-5.77-17.29-47.94-57.55-80.2-79.58-.87,28.09-12.83,52.83-34.91,66a65.52,65.52,0,0,1-14.86,6.52c12.56-12,23.63-27.56,32-46.1a165.7,165.7,0,0,0,10.5-31.24c-3-1.89-6-3.58-8.7-5-5.66-3-12.6-7.25-20.36-12.41-2.72,15.79-9.24,29.93-19.39,40.72,6.8-14,9.68-30.67,8.42-48.18-28.6-19.88-64.34-47.45-89.44-64.91-4.28,21-15.43,38.75-33,49.25-1.59.94-3.21,1.79-4.85,2.6,15.7-14.78,23.81-36.92,23.73-61.27-.63-.38-1.23-.77-1.82-1.13-11.28-6.89-25.78-17-41.15-27.69a66.39,66.39,0,0,0-11.29,9.61,73.09,73.09,0,0,1,7.49-12.25c-12.12-8.4-24.65-17-36.48-24.5-1.56,25.47-12.39,47.9-31.74,61,12.31-20.08,15.51-47.09,8.8-74.44a119.13,119.13,0,0,0-14.75-6.69c-29-10.34-98.84-.88-104.81,4.41,144.48,181.79,307,315.16,458.13,381.45C1182.45,1150.29,1182.77,1149.75,1182.77,1149.75Z" transform="translate(19.53 40.79)"/><path class="cls-74" d="M1180.39,1143.64c-149.54-67-296.55-177.23-455.78-374.25a5.69,5.69,0,0,0-1.32.79c144.08,182,307.38,313.27,457.28,380.24C1181.18,1149.45,1180.09,1148.58,1180.39,1143.64Z" transform="translate(19.53 40.79)"/><path class="cls-75" d="M482.23,1083.94s14-28.06,41.06-39.23c9.79-4,30.21-2.53,34.54,8s-4.6,24.14-18.83,30C512,1093.87,482.23,1083.94,482.23,1083.94Z" transform="translate(19.53 40.79)"/><path class="cls-76" d="M452.85,1143.1s24.28-19.88,53.5-19c10.58.31,28.6,10,28.27,21.38s-14,20.16-29.44,19.72C476,1164.33,452.85,1143.1,452.85,1143.1Z" transform="translate(19.53 40.79)"/><path class="cls-77" d="M471.77,1077.73s-27.32-9.88-44-33.89c-6-8.71-10.3-28-2.67-33.32s21.49,1.47,30.26,14.13C472.05,1048.67,471.77,1077.73,471.77,1077.73Z" transform="translate(19.53 40.79)"/><path class="cls-78" d="M444.27,1138.09s-28.12-9.33-44.8-33.34c-6-8.71-9.93-28.28-1.86-33.88s22.28.93,31.06,13.58C445.35,1108.47,444.27,1138.09,444.27,1138.09Z" transform="translate(19.53 40.79)"/><path class="cls-79" d="M497.05,1029.32s-12.64-33.59-1.37-65.55c4.07-11.58,20.85-28.14,32.88-23.9s16.57,22.4,10.65,39.23C528,1011.07,497.05,1029.32,497.05,1029.32Z" transform="translate(19.53 40.79)"/><path class="cls-12" d="M413,1200.11c73.29-128.85,101-233.06,101.32-234.32l5.37,1.4c-.35,1.28-29.16,109.73-105.71,242.34l-1.5,2.59" transform="translate(19.53 40.79)"/><rect class="cls-2" x="447.98" y="1003.21" width="0.91" height="81.83" transform="translate(-495.94 483.1) rotate(-34.78)"/><rect class="cls-2" x="450.78" y="1047.85" width="14.95" height="0.91" transform="translate(-646.39 1301.66) rotate(-77.1)"/><rect class="cls-2" x="432.31" y="1022.96" width="19.72" height="0.91" transform="matrix(0.17, -0.99, 0.99, 0.17, -621.9, 1326.32)"/><rect class="cls-2" x="406.21" y="1086.1" width="19.72" height="0.91" transform="translate(-705.76 1353.22) rotate(-80.24)"/><rect class="cls-2" x="440.5" y="1035.38" width="0.91" height="14.32" transform="translate(-615.7 1434.25) rotate(-85.13)"/><rect class="cls-2" x="476.64" y="1070.01" width="84.33" height="0.91" transform="translate(-324.05 291.91) rotate(-20.61)"/><rect class="cls-2" x="493.43" y="1060.15" width="35.57" height="0.91" transform="translate(-646.56 1088.69) rotate(-63.65)"/><rect class="cls-2" x="523.23" y="1054.07" width="25.43" height="0.91" transform="translate(-624.93 1172.17) rotate(-66.78)"/><rect class="cls-2" x="527.91" y="1065.21" width="0.91" height="19.02" transform="translate(-648.6 1064.59) rotate(-61.38)"/><rect class="cls-2" x="493.26" y="1104.41" width="0.91" height="81.86" transform="translate(-657.41 1616.41) rotate(-86.86)"/><rect class="cls-2" x="420.77" y="1065.15" width="0.91" height="81.07" transform="translate(-573.49 537.15) rotate(-38.15)"/><polygon class="cls-2" points="522.85 1187.2 522.25 1186.52 541.07 1169.82 541.67 1170.5 522.85 1187.2"/><rect class="cls-2" x="470.31" y="1137.26" width="18.68" height="0.91" transform="translate(-638.72 699.3) rotate(-44.3)"/><rect class="cls-2" x="497.57" y="1142.58" width="0.91" height="24.83" transform="translate(-554.67 538.24) rotate(-35.16)"/><rect class="cls-2" x="465.39" y="984.14" width="94.84" height="0.91" transform="translate(-566.73 1181.75) rotate(-70.59)"/><rect class="cls-2" x="514.25" y="945.08" width="0.91" height="27.33" transform="translate(-171.16 170.97) rotate(-12.18)"/><polygon class="cls-2" points="529.92 1034.29 529.75 1033.4 554.94 1028.54 555.11 1029.43 529.92 1034.29"/><path class="cls-80" d="M216.76,1249.22a978.62,978.62,0,0,0-15.44-274.46,962,962,0,0,0-67.06-207.83C83,654,26.68,589.65,26.11,589l-5.72,5.06c.56.63,56.22,64.26,107,176.29a955.05,955.05,0,0,1,66.44,206.09,971.08,971.08,0,0,1,15.27,272.13Z" transform="translate(19.53 40.79)"/><path class="cls-81" d="M30.7,598.79S27.81,574.21,11,556.57c-6.1-6.38-21.45-12.83-27.39-7.16s-3,18.39,5.88,27.69C6.29,594.74,30.7,598.79,30.7,598.79Z" transform="translate(19.53 40.79)"/><path class="cls-82" d="M54.58,633.72S39.65,617.45,18,612.87c-7.85-1.67-22.62,1.09-24.08,8S1.24,635.54,12.66,638C34.35,642.54,54.58,633.72,54.58,633.72Z" transform="translate(19.53 40.79)"/><path class="cls-83" d="M89.78,696.43S75.17,682.35,56.42,681.5c-6.79-.3-18.79,5.18-19.12,12.59s8.06,13.79,17.92,14.23C74,709.16,89.78,696.43,89.78,696.43Z" transform="translate(19.53 40.79)"/><path class="cls-84" d="M51.12,633s18.37-8.3,26-25.31c2.79-6.18,2.14-19.26-4.57-22.29s-15.69,2.35-19.73,11.33C45.2,613.7,51.12,633,51.12,633Z" transform="translate(19.53 40.79)"/><path class="cls-85" d="M211,1053.55s20.6-1.71,35.77-15.29c5.49-4.92,11.25-17.56,6.67-22.69s-15.28-3-23.28,4.13C215,1033.27,211,1053.55,211,1053.55Z" transform="translate(19.53 40.79)"/><path class="cls-86" d="M93.6,694.05s20.25-11.16,29.63-31.95c3.39-7.54,3.59-23.1-3.4-26.25s-17,3.88-21.9,14.84C88.55,671.49,93.6,694.05,93.6,694.05Z" transform="translate(19.53 40.79)"/><path class="cls-87" d="M130.57,761.31s21.62-8,29.8-26.16c3-6.58,1.4-21-6.86-24.71s-18.74,1.63-23,11.2C122.27,739.82,130.57,761.31,130.57,761.31Z" transform="translate(19.53 40.79)"/><path class="cls-88" d="M124.83,762.56S111.72,744,91.67,739.85c-7.26-1.5-21.22,2.68-22.94,11S74.8,768,85.37,770.18C105.42,774.34,124.83,762.56,124.83,762.56Z" transform="translate(19.53 40.79)"/><path class="cls-89" d="M209.27,1056.86a61.94,61.94,0,0,0-21.6-32.31c-6.32-4.9-21.75-9.89-27.29-5.59s-2,14,7.19,21.15C185.05,1053.65,209.27,1056.86,209.27,1056.86Z" transform="translate(19.53 40.79)"/><path class="cls-90" d="M180.07,901.11s-11.52-9.44-31-9.58c-7.05-.06-21.14,4-23.5,9.18s4.7,9.38,15,9.46C160,910.31,180.07,901.11,180.07,901.11Z" transform="translate(19.53 40.79)"/><path class="cls-91" d="M160.84,834.3S173,827.42,178.73,811c2.06-6,2.24-19.14-1.92-22.72S166.6,789.36,163.6,798C157.9,814.48,160.84,834.3,160.84,834.3Z" transform="translate(19.53 40.79)"/><path class="cls-92" d="M196.86,982.78s-6.38-23.19-19.59-35.12c-4.79-4.32-15-5.73-17.4,1.73s1.76,19,8.73,25.3A32.68,32.68,0,0,0,196.86,982.78Z" transform="translate(19.53 40.79)"/><path class="cls-93" d="M179.16,904.31s25.85-11,39.84-28.88c5.07-6.49,7.33-19.25-.67-21.19S197.4,859,190,868.4C176,886.3,179.16,904.31,179.16,904.31Z" transform="translate(19.53 40.79)"/><path class="cls-94" d="M200.56,985.3s24.47-10.48,36.49-27.11c4.36-6,5.3-17.79-2.82-19.47s-20.24,4.66-26.58,13.41C195.61,968.77,200.56,985.3,200.56,985.3Z" transform="translate(19.53 40.79)"/><path class="cls-95" d="M39.66,506.23s20.6-1.72,35.77-15.29c5.49-4.93,11.25-17.57,6.66-22.69s-15.28-3-23.26,4.13C43.66,485.94,39.66,506.23,39.66,506.23Z" transform="translate(19.53 40.79)"/><path class="cls-96" d="M215.66,1126.49s-4.95-14.1-21.61-24.17c-6-3.66-20.29-7.31-25-4s-.87,10.59,7.91,15.89C193.58,1124.23,215.66,1126.49,215.66,1126.49Z" transform="translate(19.53 40.79)"/><path class="cls-97" d="M73.35,851.55S59.7,833.84,43.37,827c-5.92-2.48-15.92-1.32-15.72,5.4s8,15.32,16.56,18.91C60.54,858.16,73.35,851.55,73.35,851.55Z" transform="translate(19.53 40.79)"/><path class="cls-98" d="M160.08,839.6s-11.32-15.2-33.69-23.35c-8.09-3-25.14-4.24-28.88.52s3.49,12.35,15.28,16.64C135.15,841.58,160.08,839.6,160.08,839.6Z" transform="translate(19.53 40.79)"/><path class="cls-18" d="M181.69,990.55a2.43,2.43,0,1,0,2.43-2.43A2.43,2.43,0,0,0,181.69,990.55Z" transform="translate(19.53 40.79)"/><path class="cls-18" d="M181.69,981.73a2.43,2.43,0,1,0,2.43-2.43A2.43,2.43,0,0,0,181.69,981.73Z" transform="translate(19.53 40.79)"/><path class="cls-18" d="M190.54,984a2.43,2.43,0,1,0,3.32.89A2.43,2.43,0,0,0,190.54,984Z" transform="translate(19.53 40.79)"/><path class="cls-18" d="M193,992.86a2.43,2.43,0,1,0,.89,3.32A2.43,2.43,0,0,0,193,992.86Z" transform="translate(19.53 40.79)"/><path class="cls-18" d="M186.55,999.37a2.43,2.43,0,1,0-2.43,2.43A2.43,2.43,0,0,0,186.55,999.37Z" transform="translate(19.53 40.79)"/><path class="cls-18" d="M177.7,997.06a2.43,2.43,0,1,0-3.32-.88A2.42,2.42,0,0,0,177.7,997.06Z" transform="translate(19.53 40.79)"/><path class="cls-18" d="M175.27,988.24a2.43,2.43,0,1,0-.89-3.31A2.43,2.43,0,0,0,175.27,988.24Z" transform="translate(19.53 40.79)"/><path class="cls-18" d="M41.76,658.6a2.43,2.43,0,1,0,2.42-2.43A2.42,2.42,0,0,0,41.76,658.6Z" transform="translate(19.53 40.79)"/><path class="cls-18" d="M41.76,649.78a2.43,2.43,0,1,0,2.42-2.43A2.42,2.42,0,0,0,41.76,649.78Z" transform="translate(19.53 40.79)"/><path class="cls-18" d="M50.61,652.09a2.43,2.43,0,1,0,3.31.89A2.43,2.43,0,0,0,50.61,652.09Z" transform="translate(19.53 40.79)"/><path class="cls-18" d="M53,660.91a2.42,2.42,0,1,0,.89,3.32A2.42,2.42,0,0,0,53,660.91Z" transform="translate(19.53 40.79)"/><path class="cls-18" d="M46.61,667.42a2.43,2.43,0,1,0-2.43,2.43A2.43,2.43,0,0,0,46.61,667.42Z" transform="translate(19.53 40.79)"/><path class="cls-18" d="M37.76,665.11a2.42,2.42,0,1,0-3.31-.88A2.42,2.42,0,0,0,37.76,665.11Z" transform="translate(19.53 40.79)"/><path class="cls-18" d="M35.34,656.3a2.43,2.43,0,1,0-.89-3.32A2.42,2.42,0,0,0,35.34,656.3Z" transform="translate(19.53 40.79)"/><path class="cls-18" d="M39.76,568.62a2.43,2.43,0,1,0,2.43-2.43A2.42,2.42,0,0,0,39.76,568.62Z" transform="translate(19.53 40.79)"/><path class="cls-18" d="M39.76,559.8a2.43,2.43,0,1,0,2.43-2.43A2.42,2.42,0,0,0,39.76,559.8Z" transform="translate(19.53 40.79)"/><path class="cls-18" d="M48.61,562.1a2.43,2.43,0,1,0,3.31.89A2.43,2.43,0,0,0,48.61,562.1Z" transform="translate(19.53 40.79)"/><path class="cls-18" d="M51,570.92a2.43,2.43,0,1,0,.88,3.32A2.43,2.43,0,0,0,51,570.92Z" transform="translate(19.53 40.79)"/><path class="cls-18" d="M44.61,577.44a2.43,2.43,0,1,0-2.42,2.42A2.42,2.42,0,0,0,44.61,577.44Z" transform="translate(19.53 40.79)"/><path class="cls-18" d="M35.76,575.13a2.43,2.43,0,1,0-3.31-.89A2.43,2.43,0,0,0,35.76,575.13Z" transform="translate(19.53 40.79)"/><path class="cls-18" d="M33.34,566.31a2.43,2.43,0,1,0-.89-3.32A2.42,2.42,0,0,0,33.34,566.31Z" transform="translate(19.53 40.79)"/><path class="cls-18" d="M180.76,823a2.43,2.43,0,1,0,2.43-2.43A2.43,2.43,0,0,0,180.76,823Z" transform="translate(19.53 40.79)"/><path class="cls-18" d="M180.76,814.15a2.43,2.43,0,1,0,2.43-2.43A2.43,2.43,0,0,0,180.76,814.15Z" transform="translate(19.53 40.79)"/><path class="cls-18" d="M189.61,816.45a2.43,2.43,0,1,0,3.32.89A2.43,2.43,0,0,0,189.61,816.45Z" transform="translate(19.53 40.79)"/><path class="cls-18" d="M192,825.27a2.43,2.43,0,1,0,.89,3.32A2.42,2.42,0,0,0,192,825.27Z" transform="translate(19.53 40.79)"/><path class="cls-18" d="M185.62,831.79a2.43,2.43,0,1,0-2.43,2.43A2.43,2.43,0,0,0,185.62,831.79Z" transform="translate(19.53 40.79)"/><path class="cls-18" d="M176.77,829.48a2.43,2.43,0,1,0-3.32-.89A2.43,2.43,0,0,0,176.77,829.48Z" transform="translate(19.53 40.79)"/><path class="cls-18" d="M174.34,820.66a2.43,2.43,0,1,0-.89-3.32A2.43,2.43,0,0,0,174.34,820.66Z" transform="translate(19.53 40.79)"/></g></svg>