<svg id="Layer_1" data-name="Layer 1" xmlns="http://www.w3.org/2000/svg" xmlns:xlink="http://www.w3.org/1999/xlink" viewBox="0 0 1286.45 1289.88"><defs><style>.cls-1{fill:none;}.cls-2{fill:#0c1153;}.cls-3{clip-path:url(#clip-path);}.cls-4{fill:url(#linear-gradient);}.cls-5{fill:url(#linear-gradient-2);}.cls-6{fill:url(#linear-gradient-3);}.cls-7{fill:url(#linear-gradient-4);}.cls-8{fill:url(#linear-gradient-5);}.cls-9{fill:url(#linear-gradient-6);}.cls-10{fill:url(#linear-gradient-7);}.cls-11{fill:url(#linear-gradient-8);}.cls-12{fill:#2f2fe2;}.cls-13{fill:url(#linear-gradient-9);}.cls-14{fill:url(#linear-gradient-10);}.cls-15{fill:url(#linear-gradient-11);}.cls-16{fill:#60bbea;}.cls-17{fill:#e9bd5a;}.cls-18{fill:#ff586b;}.cls-19{fill:url(#linear-gradient-12);}.cls-20{fill:url(#linear-gradient-13);}.cls-21{fill:url(#linear-gradient-14);}.cls-22{fill:url(#linear-gradient-15);}.cls-23{fill:url(#linear-gradient-16);}.cls-24{fill:url(#linear-gradient-17);}.cls-25{fill:url(#linear-gradient-18);}.cls-26{fill:url(#linear-gradient-19);}.cls-27{fill:url(#linear-gradient-20);}.cls-28{fill:url(#linear-gradient-21);}.cls-29{fill:url(#linear-gradient-22);}.cls-30{fill:url(#linear-gradient-23);}.cls-31{fill:url(#linear-gradient-24);}.cls-32{fill:url(#linear-gradient-25);}.cls-33{fill:url(#linear-gradient-26);}.cls-34{fill:url(#linear-gradient-27);}.cls-35{fill:url(#linear-gradient-28);}.cls-36{fill:url(#linear-gradient-29);}.cls-37{fill:url(#linear-gradient-30);}.cls-38{fill:#f4c462;}.cls-39{fill:url(#linear-gradient-31);}.cls-40{fill:url(#linear-gradient-32);}.cls-41{fill:url(#linear-gradient-33);}.cls-42{fill:url(#linear-gradient-34);}.cls-43{fill:url(#linear-gradient-35);}.cls-44{fill:url(#linear-gradient-36);}.cls-45{fill:url(#linear-gradient-37);}.cls-46{fill:url(#linear-gradient-38);}.cls-47{fill:url(#linear-gradient-39);}.cls-48{fill:url(#linear-gradient-40);}.cls-49{fill:url(#linear-gradient-41);}.cls-50{fill:url(#linear-gradient-42);}.cls-51{fill:url(#linear-gradient-43);}.cls-52{fill:url(#linear-gradient-44);}.cls-53{fill:url(#linear-gradient-45);}.cls-54{fill:url(#linear-gradient-46);}.cls-55{fill:url(#linear-gradient-47);}.cls-56{fill:url(#linear-gradient-48);}.cls-57{fill:url(#linear-gradient-49);}.cls-58{fill:url(#linear-gradient-50);}.cls-59{fill:url(#linear-gradient-51);}.cls-60{fill:url(#linear-gradient-52);}.cls-61{fill:url(#linear-gradient-53);}.cls-62{fill:url(#linear-gradient-54);}.cls-63{fill:url(#linear-gradient-55);}.cls-64{fill:url(#linear-gradient-56);}.cls-65{fill:url(#linear-gradient-57);}.cls-66{fill:url(#linear-gradient-58);}.cls-67{fill:url(#linear-gradient-59);}.cls-68{fill:url(#linear-gradient-60);}.cls-69{fill:url(#linear-gradient-61);}.cls-70{fill:url(#linear-gradient-62);}.cls-71{fill:url(#linear-gradient-63);}.cls-72{fill:url(#linear-gradient-64);}.cls-73{fill:url(#linear-gradient-65);}.cls-74{fill:url(#linear-gradient-66);}.cls-75{fill:url(#linear-gradient-67);}.cls-76{fill:url(#linear-gradient-68);}.cls-77{fill:url(#linear-gradient-69);}.cls-78{fill:url(#linear-gradient-70);}.cls-79{fill:url(#linear-gradient-71);}.cls-80{fill:url(#linear-gradient-72);}.cls-81{fill:url(#linear-gradient-73);}.cls-82{fill:url(#linear-gradient-74);}.cls-83{fill:url(#linear-gradient-75);}.cls-84{fill:url(#linear-gradient-76);}.cls-85{fill:url(#linear-gradient-77);}.cls-86{fill:url(#linear-gradient-78);}.cls-87{fill:url(#linear-gradient-79);}.cls-88{fill:url(#linear-gradient-80);}.cls-89{fill:url(#linear-gradient-81);}.cls-90{fill:url(#linear-gradient-82);}.cls-91{fill:url(#linear-gradient-83);}.cls-92{fill:url(#linear-gradient-84);}.cls-93{fill:url(#linear-gradient-85);}.cls-94{fill:url(#linear-gradient-86);}.cls-95{fill:url(#linear-gradient-87);}.cls-96{fill:url(#linear-gradient-88);}.cls-97{fill:url(#linear-gradient-89);}.cls-98{fill:url(#linear-gradient-90);}</style><clipPath id="clip-path" transform="translate(398.93 40.79)"><rect id="SVGID" class="cls-1" width="868" height="1145.87"/></clipPath><linearGradient id="linear-gradient" x1="-7579.94" y1="-257.91" x2="-7677.92" y2="281.96" gradientTransform="matrix(-1, 0, 0, 1, -7624.09, 0)" gradientUnits="userSpaceOnUse"><stop offset="0" stop-color="#2f2fe2"/><stop offset="1" stop-color="#0c1153"/></linearGradient><linearGradient id="linear-gradient-2" x1="-6058.32" y1="10222.84" x2="-5510.97" y2="10399.21" gradientTransform="matrix(0.45, 0.89, 0.89, -0.45, -6029.16, 10096.4)" gradientUnits="userSpaceOnUse"><stop offset="0.01" stop-color="#2f2fe2"/><stop offset="0.42" stop-color="#b22097"/><stop offset="1" stop-color="#0c1153"/></linearGradient><linearGradient id="linear-gradient-3" x1="-6047.17" y1="10188.28" x2="-5499.81" y2="10364.65" xlink:href="#linear-gradient-2"/><linearGradient id="linear-gradient-4" x1="-6082.42" y1="10297.53" x2="-5534.91" y2="10473.95" xlink:href="#linear-gradient-2"/><linearGradient id="linear-gradient-5" x1="-6074.8" y1="10273.85" x2="-5527.28" y2="10450.28" xlink:href="#linear-gradient-2"/><linearGradient id="linear-gradient-6" x1="-6063.33" y1="10238.31" x2="-5515.86" y2="10414.71" xlink:href="#linear-gradient-2"/><linearGradient id="linear-gradient-7" x1="-6041.66" y1="10171.21" x2="-5494.26" y2="10347.6" xlink:href="#linear-gradient-2"/><linearGradient id="linear-gradient-8" x1="-6082.14" y1="10296.71" x2="-5534.66" y2="10473.12" xlink:href="#linear-gradient-2"/><linearGradient id="linear-gradient-9" x1="-10452.76" y1="214.48" x2="-10232.81" y2="214.48" gradientTransform="matrix(-1, 0, 0, 1, -10225.3, 0)" xlink:href="#linear-gradient"/><linearGradient id="linear-gradient-10" x1="-10333.8" y1="216.03" x2="-10219.07" y2="216.03" gradientTransform="matrix(-1, 0, 0, 1, -10225.3, 0)" xlink:href="#linear-gradient"/><linearGradient id="linear-gradient-11" x1="-10403.85" y1="284.83" x2="-10274.18" y2="284.83" gradientTransform="matrix(-1, 0, 0, 1, -10225.3, 0)" xlink:href="#linear-gradient"/><linearGradient id="linear-gradient-12" x1="216.99" y1="-7435.48" x2="606.34" y2="-7435.48" gradientTransform="translate(-6724.12 -315.94) rotate(91.19)" gradientUnits="userSpaceOnUse"><stop offset="0" stop-color="#934fae"/><stop offset="1" stop-color="#0c1153"/></linearGradient><linearGradient id="linear-gradient-13" x1="2067.55" y1="-4268.68" x2="1969.61" y2="-3729" gradientTransform="translate(-3846.52 1313.47) rotate(52.99)" xlink:href="#linear-gradient"/><linearGradient id="linear-gradient-14" x1="-1225.13" y1="1136.19" x2="-986.89" y2="1136.19" gradientTransform="matrix(-0.27, 0.96, 0.96, 0.27, -1285.33, 975.28)" xlink:href="#linear-gradient-12"/><linearGradient id="linear-gradient-15" x1="-8378.53" y1="3938.93" x2="-7753.72" y2="4140.25" gradientTransform="translate(2026.24 9296.96) rotate(104.87)" gradientUnits="userSpaceOnUse"><stop offset="0.01" stop-color="#ff586b"/><stop offset="0.42" stop-color="#b22097"/><stop offset="1" stop-color="#0c1153"/></linearGradient><linearGradient id="linear-gradient-16" x1="-8365.81" y1="3899.49" x2="-7740.98" y2="4100.82" xlink:href="#linear-gradient-15"/><linearGradient id="linear-gradient-17" x1="-8406.03" y1="4024.17" x2="-7781.07" y2="4225.55" xlink:href="#linear-gradient-15"/><linearGradient id="linear-gradient-18" x1="-8397.33" y1="3997.15" x2="-7772.35" y2="4198.53" xlink:href="#linear-gradient-15"/><linearGradient id="linear-gradient-19" x1="-8384.24" y1="3956.58" x2="-7759.33" y2="4157.94" xlink:href="#linear-gradient-15"/><linearGradient id="linear-gradient-20" x1="-8359.53" y1="3880" x2="-7734.65" y2="4081.35" xlink:href="#linear-gradient-15"/><linearGradient id="linear-gradient-21" x1="-8405.71" y1="4023.24" x2="-7780.77" y2="4224.61" xlink:href="#linear-gradient-15"/><linearGradient id="linear-gradient-22" x1="152.58" y1="278.13" x2="154.58" y2="674.03" gradientUnits="userSpaceOnUse"><stop offset="0.01" stop-color="#ff586b"/><stop offset="0.42" stop-color="#2f2fe2"/><stop offset="1" stop-color="#0c1153"/></linearGradient><linearGradient id="linear-gradient-23" x1="-8295.01" y1="3544.59" x2="-7670.21" y2="3745.92" xlink:href="#linear-gradient-15"/><linearGradient id="linear-gradient-24" x1="-8282.29" y1="3505.15" x2="-7657.46" y2="3706.49" xlink:href="#linear-gradient-15"/><linearGradient id="linear-gradient-25" x1="-8322.51" y1="3629.84" x2="-7697.56" y2="3831.21" xlink:href="#linear-gradient-15"/><linearGradient id="linear-gradient-26" x1="-8313.81" y1="3602.82" x2="-7688.84" y2="3804.2" xlink:href="#linear-gradient-15"/><linearGradient id="linear-gradient-27" x1="-8300.73" y1="3562.25" x2="-7675.81" y2="3763.61" xlink:href="#linear-gradient-15"/><linearGradient id="linear-gradient-28" x1="-8276.01" y1="3485.67" x2="-7651.14" y2="3687.02" xlink:href="#linear-gradient-15"/><linearGradient id="linear-gradient-29" x1="-8322.19" y1="3628.9" x2="-7697.26" y2="3830.27" xlink:href="#linear-gradient-15"/><linearGradient id="linear-gradient-30" x1="435.61" y1="752.37" x2="673.72" y2="752.37" gradientTransform="matrix(1, 0, 0, 1, 0, 0)" xlink:href="#linear-gradient-12"/><linearGradient id="linear-gradient-31" x1="758.11" y1="969.24" x2="818.86" y2="969.24" gradientUnits="userSpaceOnUse"><stop offset="0" stop-color="#0c1153"/><stop offset="1" stop-color="#60bbea"/></linearGradient><linearGradient id="linear-gradient-32" x1="-9360.66" y1="-5335.65" x2="-9299.91" y2="-5335.65" gradientTransform="translate(-6609.96 -7681.71) rotate(-161.22)" xlink:href="#linear-gradient-31"/><linearGradient id="linear-gradient-33" x1="-95.43" y1="577.09" x2="114.4" y2="898.83" gradientTransform="matrix(1, 0, 0, 1, 0, 0)" xlink:href="#linear-gradient-15"/><linearGradient id="linear-gradient-34" x1="-118.76" y1="592.03" x2="91.16" y2="913.9" gradientTransform="matrix(1, 0, 0, 1, 0, 0)" xlink:href="#linear-gradient-15"/><linearGradient id="linear-gradient-35" x1="-56.84" y1="552.07" x2="152.93" y2="873.72" gradientTransform="matrix(1, 0, 0, 1, 0, 0)" xlink:href="#linear-gradient-15"/><linearGradient id="linear-gradient-36" x1="-93.05" y1="575.27" x2="116.86" y2="897.13" gradientTransform="matrix(1, 0, 0, 1, 0, 0)" xlink:href="#linear-gradient-15"/><linearGradient id="linear-gradient-37" x1="-24.33" y1="530.87" x2="185.43" y2="852.5" gradientTransform="matrix(1, 0, 0, 1, 0, 0)" xlink:href="#linear-gradient-15"/><linearGradient id="linear-gradient-38" x1="-68.18" y1="559.04" x2="141.73" y2="880.9" gradientTransform="matrix(1, 0, 0, 1, 0, 0)" xlink:href="#linear-gradient-15"/><linearGradient id="linear-gradient-39" x1="2.11" y1="513.62" x2="211.86" y2="835.24" gradientTransform="matrix(1, 0, 0, 1, 0, 0)" xlink:href="#linear-gradient-15"/><linearGradient id="linear-gradient-40" x1="-39.58" y1="540.38" x2="170.33" y2="862.24" gradientTransform="matrix(1, 0, 0, 1, 0, 0)" xlink:href="#linear-gradient-15"/><linearGradient id="linear-gradient-41" x1="29.07" y1="496.11" x2="238.78" y2="817.66" gradientTransform="matrix(1, 0, 0, 1, 0, 0)" xlink:href="#linear-gradient-15"/><linearGradient id="linear-gradient-42" x1="-20.5" y1="527.94" x2="189.41" y2="849.79" gradientTransform="matrix(1, 0, 0, 1, 0, 0)" xlink:href="#linear-gradient-15"/><linearGradient id="linear-gradient-43" x1="56.99" y1="477.73" x2="266.75" y2="799.36" gradientTransform="matrix(1, 0, 0, 1, 0, 0)" xlink:href="#linear-gradient-15"/><linearGradient id="linear-gradient-44" x1="-3.84" y1="517.07" x2="206.06" y2="838.91" gradientTransform="matrix(1, 0, 0, 1, 0, 0)" xlink:href="#linear-gradient-15"/><linearGradient id="linear-gradient-45" x1="76.48" y1="464.89" x2="286.28" y2="786.58" gradientTransform="matrix(1, 0, 0, 1, 0, 0)" xlink:href="#linear-gradient-15"/><linearGradient id="linear-gradient-46" x1="8.64" y1="508.93" x2="218.53" y2="830.77" gradientTransform="matrix(1, 0, 0, 1, 0, 0)" xlink:href="#linear-gradient-15"/><linearGradient id="linear-gradient-47" x1="96.71" y1="451.43" x2="306.62" y2="773.3" gradientTransform="matrix(1, 0, 0, 1, 0, 0)" xlink:href="#linear-gradient-15"/><linearGradient id="linear-gradient-48" x1="21.25" y1="500.7" x2="231.15" y2="822.54" gradientTransform="matrix(1, 0, 0, 1, 0, 0)" xlink:href="#linear-gradient-15"/><linearGradient id="linear-gradient-49" x1="105.23" y1="445.6" x2="315.31" y2="767.72" gradientTransform="matrix(1, 0, 0, 1, 0, 0)" xlink:href="#linear-gradient-15"/><linearGradient id="linear-gradient-50" x1="34.76" y1="491.88" x2="244.65" y2="813.72" gradientTransform="matrix(1, 0, 0, 1, 0, 0)" xlink:href="#linear-gradient-15"/><linearGradient id="linear-gradient-51" x1="115.84" y1="438.8" x2="325.87" y2="760.84" gradientTransform="matrix(1, 0, 0, 1, 0, 0)" xlink:href="#linear-gradient-15"/><linearGradient id="linear-gradient-52" x1="45.51" y1="484.87" x2="255.4" y2="806.7" gradientTransform="matrix(1, 0, 0, 1, 0, 0)" xlink:href="#linear-gradient-15"/><linearGradient id="linear-gradient-53" x1="121.99" y1="434.86" x2="331.98" y2="756.84" gradientTransform="matrix(1, 0, 0, 1, 0, 0)" xlink:href="#linear-gradient-15"/><linearGradient id="linear-gradient-54" x1="52.97" y1="480" x2="262.86" y2="801.83" gradientTransform="matrix(1, 0, 0, 1, 0, 0)" xlink:href="#linear-gradient-15"/><linearGradient id="linear-gradient-55" x1="117.95" y1="437.55" x2="327.9" y2="759.48" gradientTransform="matrix(1, 0, 0, 1, 0, 0)" xlink:href="#linear-gradient-15"/><linearGradient id="linear-gradient-56" x1="64.73" y1="472.31" x2="274.62" y2="794.15" gradientTransform="matrix(1, 0, 0, 1, 0, 0)" xlink:href="#linear-gradient-15"/><linearGradient id="linear-gradient-57" x1="94.4" y1="452.94" x2="304.32" y2="774.81" gradientTransform="matrix(1, 0, 0, 1, 0, 0)" xlink:href="#linear-gradient-15"/><linearGradient id="linear-gradient-58" x1="-19.58" y1="540.89" x2="170.14" y2="831.79" gradientTransform="matrix(1, 0, 0, 1, 0, 0)" xlink:href="#linear-gradient-15"/><linearGradient id="linear-gradient-59" x1="163.55" y1="919.19" x2="552.72" y2="919.19" gradientTransform="matrix(1, 0, 0, 1, 0, 0)" xlink:href="#linear-gradient-15"/><linearGradient id="linear-gradient-60" x1="372.62" y1="934.08" x2="592.57" y2="934.08" gradientTransform="matrix(1, 0, 0, 1, 0, 0)" xlink:href="#linear-gradient"/><linearGradient id="linear-gradient-61" x1="491.58" y1="935.63" x2="606.3" y2="935.63" gradientTransform="matrix(1, 0, 0, 1, 0, 0)" xlink:href="#linear-gradient"/><linearGradient id="linear-gradient-62" x1="421.53" y1="1004.43" x2="551.2" y2="1004.43" gradientTransform="matrix(1, 0, 0, 1, 0, 0)" xlink:href="#linear-gradient"/><linearGradient id="linear-gradient-63" x1="-95.37" y1="1078.86" x2="208.6" y2="1078.86" gradientUnits="userSpaceOnUse"><stop offset="0" stop-color="#0c1153"/><stop offset="0.58" stop-color="#2f2fe2"/><stop offset="0.99" stop-color="#ff586b"/></linearGradient><linearGradient id="linear-gradient-64" x1="-15700.8" y1="1154.66" x2="-15638.75" y2="819.58" gradientTransform="translate(-889.57 -14649.04) rotate(-90)" xlink:href="#linear-gradient-15"/><linearGradient id="linear-gradient-65" x1="6005.97" y1="7438.16" x2="5954.79" y2="7630.67" gradientTransform="translate(7882.28 -4471.4) rotate(93.97)" xlink:href="#linear-gradient-15"/><linearGradient id="linear-gradient-66" x1="-15219.13" y1="1095.74" x2="-15711.54" y2="726.84" gradientTransform="translate(-889.57 -14649.04) rotate(-90)" xlink:href="#linear-gradient-15"/><linearGradient id="linear-gradient-67" x1="-5236.71" y1="9734.66" x2="-4738.1" y2="9895.32" xlink:href="#linear-gradient-2"/><linearGradient id="linear-gradient-68" x1="-5226.55" y1="9703.18" x2="-4727.93" y2="9863.85" xlink:href="#linear-gradient-2"/><linearGradient id="linear-gradient-69" x1="-5258.66" y1="9802.7" x2="-4759.92" y2="9963.4" xlink:href="#linear-gradient-2"/><linearGradient id="linear-gradient-70" x1="-5251.72" y1="9781.13" x2="-4752.95" y2="9941.85" xlink:href="#linear-gradient-2"/><linearGradient id="linear-gradient-71" x1="-5258.41" y1="9801.96" x2="-4759.69" y2="9962.65" xlink:href="#linear-gradient-2"/><linearGradient id="linear-gradient-72" x1="2379.79" y1="-2634.55" x2="2057.93" y2="-1946.86" gradientTransform="matrix(0.78, 0.63, -0.63, 0.78, -2430.63, 1322.53)" gradientUnits="userSpaceOnUse"><stop offset="0.01" stop-color="#2f2fe2"/><stop offset="1" stop-color="#0c1153"/></linearGradient><linearGradient id="linear-gradient-73" x1="2141.59" y1="-2746.01" x2="1819.78" y2="-2058.43" xlink:href="#linear-gradient-72"/><linearGradient id="linear-gradient-74" x1="2181.67" y1="-2727.23" x2="1859.9" y2="-2039.71" xlink:href="#linear-gradient-72"/><linearGradient id="linear-gradient-75" x1="2221.61" y1="-2708.51" x2="1899.85" y2="-2021.02" xlink:href="#linear-gradient-72"/><linearGradient id="linear-gradient-76" x1="2150.27" y1="-2741.93" x2="1828.49" y2="-2054.41" xlink:href="#linear-gradient-72"/><linearGradient id="linear-gradient-77" x1="2427.87" y1="-2611.86" x2="2106.13" y2="-1924.43" xlink:href="#linear-gradient-72"/><linearGradient id="linear-gradient-78" x1="2177.74" y1="-2729.09" x2="1855.94" y2="-2041.52" xlink:href="#linear-gradient-72"/><linearGradient id="linear-gradient-79" x1="2221.31" y1="-2708.68" x2="1899.52" y2="-2021.13" xlink:href="#linear-gradient-72"/><linearGradient id="linear-gradient-80" x1="2257.95" y1="-2691.5" x2="1936.18" y2="-2003.99" xlink:href="#linear-gradient-72"/><linearGradient id="linear-gradient-81" x1="2448.53" y1="-2602.29" x2="2126.73" y2="-1914.72" xlink:href="#linear-gradient-72"/><linearGradient id="linear-gradient-82" x1="2353.02" y1="-2646.96" x2="2031.26" y2="-1959.48" xlink:href="#linear-gradient-72"/><linearGradient id="linear-gradient-83" x1="2271.87" y1="-2685.07" x2="1950.03" y2="-1997.4" xlink:href="#linear-gradient-72"/><linearGradient id="linear-gradient-84" x1="2392.55" y1="-2628.51" x2="2070.75" y2="-1940.94" xlink:href="#linear-gradient-72"/><linearGradient id="linear-gradient-85" x1="2315.17" y1="-2664.65" x2="1993.43" y2="-1977.22" xlink:href="#linear-gradient-72"/><linearGradient id="linear-gradient-86" x1="2374.96" y1="-2636.67" x2="2053.21" y2="-1949.2" xlink:href="#linear-gradient-72"/><linearGradient id="linear-gradient-87" x1="2026.68" y1="-2735.71" x2="1704.95" y2="-2048.28" xlink:href="#linear-gradient-72"/><linearGradient id="linear-gradient-88" x1="2506.78" y1="-2575.01" x2="2184.98" y2="-1887.45" xlink:href="#linear-gradient-72"/><linearGradient id="linear-gradient-89" x1="2344.44" y1="-2651.01" x2="2022.66" y2="-1963.48" xlink:href="#linear-gradient-72"/><linearGradient id="linear-gradient-90" x1="2302.49" y1="-2670.65" x2="1980.71" y2="-1983.13" xlink:href="#linear-gradient-72"/></defs><title>SignIn</title><rect class="cls-2" x="398.93" y="40.7" width="868" height="1146.09"/><g class="cls-3"><path class="cls-4" d="M-190.44,341.12c3.94-10.14,55-85.27,26.19-144-22.84-46.58,2.64-53.52,25.68-51.09s43.74,15,48.94-13.68C-72.53,37.92,1.24-23,17.44,40.22c8.75,34.19,48.86,18.29,53.75-5.51,10.37-50.47,40.26-79.84,60.53-47.23,19.92,32.07,42.91,41.69,54.81,22.31S199.84-54.36,240-36.78c15.82,6.92,25.88,49.34,7.42,80-10.52,17.46-57.59,61.94-6,66,53.13,4.2,31.26,41.75,3.11,49.94-10.49,3.06-105.37,38.93-75.6,54.21,35.15,18,21.86,49.72-28.42,54.4-22.83,2.12-73.8-8.37-70.47,11.11s1.66,47.62-33.37,50.29C-23.78,333.76-182.25,320.07-190.44,341.12Z" transform="translate(398.93 40.79)"/><path class="cls-2" d="M-245.23,387.27l-1.71-1.79c57.48-54.87,110-83.58,197.07-131.16,24.82-13.56,53-28.93,84.86-46.9,74.47-41.94,125.9-97.68,155.94-137,32.56-42.68,47.69-75.87,47.84-76.2l2.25,1c-.15.34-15.36,33.73-48.07,76.62-30.19,39.58-81.88,95.6-156.75,137.77-31.92,18-60.06,33.35-84.88,46.92C-135.56,304-188,332.63-245.23,387.27Z" transform="translate(398.93 40.79)"/><path class="cls-2" d="M110.07,158.67l-2.14-1.25c27.42-47.29,10.67-124.14,10.5-124.91l2.42-.54C121,32.75,138,110.54,110.07,158.67Z" transform="translate(398.93 40.79)"/><path class="cls-2" d="M99.34,167.31l-1.2-2.16C161.39,130,239.21,135.46,240,135.52L239.8,138C239,137.93,161.93,132.56,99.34,167.31Z" transform="translate(398.93 40.79)"/><path class="cls-2" d="M-20.68,238.54C-27.88,96-13.45,60.61-12.83,59.17l2.27,1c-.15.35-14.8,36.59-7.64,178.26Z" transform="translate(398.93 40.79)"/><path class="cls-2" d="M169.66,242.25c-1.17-.3-116.95-29.39-145.36-26L24,213.79c12.14-1.45,40.46,2.5,84.16,11.73,32.48,6.87,61.8,14.25,62.09,14.32Z" transform="translate(398.93 40.79)"/><path class="cls-2" d="M46.1,305.8C45.19,305.45-46.47,271-105.38,288l-.69-2.38C-46.36,268.35,46.06,303.13,47,303.49Z" transform="translate(398.93 40.79)"/><path class="cls-5" d="M459.93,133.51s-15.42-30.79-45.07-43.06C404.12,86,381.71,87.68,377,99.2s5,26.5,20.66,33C427.27,144.42,459.93,133.51,459.93,133.51Z" transform="translate(398.93 40.79)"/><path class="cls-6" d="M492.17,198.45s-26.65-21.82-58.71-20.91c-11.62.34-31.39,11-31,23.47s15.41,22.13,32.31,21.64C466.81,221.75,492.17,198.45,492.17,198.45Z" transform="translate(398.93 40.79)"/><path class="cls-7" d="M471.4,126.7s30-10.84,48.29-37.2c6.64-9.56,11.3-30.76,2.93-36.57S499,54.54,489.41,68.44C471.09,94.8,471.4,126.7,471.4,126.7Z" transform="translate(398.93 40.79)"/><path class="cls-8" d="M501.58,193s30.87-10.24,49.16-36.59c6.64-9.57,10.91-31,2-37.19s-24.45,1-34.09,14.91C500.4,160.44,501.58,193,501.58,193Z" transform="translate(398.93 40.79)"/><path class="cls-9" d="M548.24,278.93s27.37-5.17,41.33-25.3c5.07-7.29,6.63-24.87-2.22-31s-22.46-1.86-29.82,8.74C543.55,251.48,548.24,278.93,548.24,278.93Z" transform="translate(398.93 40.79)"/><path class="cls-10" d="M537,284.38s-19-18.59-44.87-21.72c-9.37-1.14-26.42,4.09-27.48,12.95s10,17.5,23.59,19.14C514.09,297.89,537,284.38,537,284.38Z" transform="translate(398.93 40.79)"/><path class="cls-11" d="M443.66,73.56s13.87-36.87,1.51-71.95c-4.47-12.71-22.89-30.89-36.09-26.24S390.89,0,397.4,18.44C409.74,53.53,443.66,73.56,443.66,73.56Z" transform="translate(398.93 40.79)"/><path class="cls-12" d="M424.73,3.83l-5.89,1.53C419.29,7,463.93,175.11,588.35,356.3l5-3.44C469.57,172.59,425.16,5.5,424.73,3.83Z" transform="translate(398.93 40.79)"/><rect class="cls-2" x="452.11" y="89.31" width="89.81" height="1" transform="matrix(0.57, -0.82, 0.82, 0.57, 538.61, 487.53)"/><rect class="cls-2" x="485.74" y="86.19" width="1" height="16.41" transform="translate(390.12 151.73) rotate(-12.9)"/><rect class="cls-2" x="503.39" y="56.25" width="1" height="21.64" transform="translate(394.84 127.07) rotate(-9.75)"/><rect class="cls-2" x="532.03" y="125.57" width="1" height="21.64" transform="translate(383.52 132.91) rotate(-9.75)"/><rect class="cls-2" x="497.37" y="87.57" width="15.71" height="1" transform="translate(393.27 84.04) rotate(-4.87)"/><rect class="cls-2" x="576.64" y="236.86" width="15.71" height="1" transform="translate(380.87 91.32) rotate(-4.87)"/><rect class="cls-2" x="419.29" y="72.45" width="1" height="92.55" transform="translate(559.49 510.41) rotate(-69.34)"/><rect class="cls-2" x="427.61" y="88.37" width="1" height="39.04" transform="translate(395.49 241.9) rotate(-26.33)"/><rect class="cls-2" x="400.47" y="87.27" width="1" height="27.92" transform="translate(391.46 206.84) rotate(-23.19)"/><rect class="cls-2" x="398.86" y="122.89" width="20.87" height="1" transform="translate(389.77 251.65) rotate(-28.58)"/><rect class="cls-2" x="402.4" y="200.41" width="89.84" height="1" transform="translate(388.61 65.56) rotate(-3.14)"/><rect class="cls-2" x="482.38" y="156.88" width="88.98" height="1" transform="translate(476.57 515.28) rotate(-51.85)"/><rect class="cls-2" x="500.32" y="243.55" width="1" height="72.89" transform="translate(561.51 784.26) rotate(-83.09)"/><rect class="cls-2" x="533.51" y="250.27" width="68.57" height="1" transform="translate(436.81 614.79) rotate(-55.21)"/><rect class="cls-2" x="501.92" y="258.15" width="1" height="28.04" transform="translate(360.52 497.38) rotate(-47.27)"/><rect class="cls-2" x="471.14" y="283.85" width="20.87" height="1" transform="translate(321.57 305.89) rotate(-28.59)"/><rect class="cls-2" x="564.34" y="226.28" width="1" height="26.17" transform="translate(375.22 107.08) rotate(-6.58)"/><rect class="cls-2" x="426.28" y="178.73" width="1" height="27.61" transform="translate(398.4 424.71) rotate(-48.41)"/><rect class="cls-2" x="462.25" y="182.29" width="1" height="20.5" transform="translate(400.49 429.59) rotate(-45.64)"/><rect class="cls-2" x="428.96" y="211.01" width="27.25" height="1" transform="translate(413.58 492.08) rotate(-54.81)"/><rect class="cls-2" x="425.87" y="-27.58" width="1" height="104.1" transform="translate(415 183.78) rotate(-19.4)"/><rect class="cls-2" x="409.28" y="-4.41" width="30" height="1" transform="translate(737.5 452.44) rotate(-77.82)"/><rect class="cls-2" x="414.79" y="17.01" width="1" height="28.16" transform="translate(705.02 473.76) rotate(-79.08)"/><path class="cls-13" d="M10.43,381.2,7.5,380c50-126.59,106.56-210.15,145.25-258,42-51.87,72.57-74.09,72.87-74.31l1.84,2.56c-.3.22-30.65,22.27-72.37,73.87C116.57,171.82,60.21,255.07,10.43,381.2Z" transform="translate(398.93 40.79)"/><path class="cls-14" d="M-3.12,352l-3.11-.52c13.05-77.5,42.84-147.17,65.54-192,24.6-48.53,46.41-79.16,46.63-79.46l2.56,1.83c-.22.3-21.92,30.78-46.41,79.12C39.5,205.59,9.85,274.91-3.12,352Z" transform="translate(398.93 40.79)"/><path class="cls-15" d="M52,370.91l-3.1-.53c12.28-71.26,46.58-114.11,73.19-137.51,28.87-25.39,55.25-34,55.52-34.11l1,3c-.26.08-26.13,8.58-54.52,33.58C97.85,258.4,64.09,300.64,52,370.91Z" transform="translate(398.93 40.79)"/><path class="cls-16" d="M242.23,30.38c19.3,16.24,29.62,35.75,23,43.58s-27.55,1-46.85-15.24S188.8,23,195.38,15.15,222.93,14.14,242.23,30.38Z" transform="translate(398.93 40.79)"/><path class="cls-2" d="M234.1,40.05c6.13,5.16,9.41,11.35,7.32,13.84s-8.75.32-14.88-4.84-9.4-11.35-7.31-13.83S228,34.9,234.1,40.05Z" transform="translate(398.93 40.79)"/><path class="cls-17" d="M113.75,73.2c8,6.76,12.33,14.89,9.59,18.15s-11.47.41-19.51-6.35S91.5,70.12,94.24,66.86,105.71,66.44,113.75,73.2Z" transform="translate(398.93 40.79)"/><path class="cls-2" d="M110.37,77.23c2.55,2.14,3.91,4.72,3,5.76s-3.64.13-6.19-2-3.92-4.72-3-5.76S107.81,75.08,110.37,77.23Z" transform="translate(398.93 40.79)"/><path class="cls-18" d="M186.22,194.59c7.73,11.12,10.34,22.67,5.84,25.8s-14.42-3.34-22.15-14.46-10.34-22.67-5.84-25.81S178.49,183.47,186.22,194.59Z" transform="translate(398.93 40.79)"/><path class="cls-2" d="M180.65,198.46c2.46,3.53,3.29,7.2,1.86,8.19s-4.58-1.06-7-4.59-3.29-7.2-1.86-8.19S178.2,194.93,180.65,198.46Z" transform="translate(398.93 40.79)"/><path class="cls-19" d="M563.41,441.42c7.92-3.78,65.36-49.3,114.3-29.59,38.83,15.64,42.9-5.29,39.59-23.7s-14.66-34.35,8.12-40.22c75-19.35,119.66-82.36,67.81-91.67-28-5-17.6-38.28,1.25-43.62,40-11.33,61.87-37.13,34.43-51.53-27-14.16-36.07-32.1-21.18-42.83S858.56,103.75,842,72.44c-6.5-12.34-41.23-17.93-64.79-1.26-13.42,9.5-46.43,50-52.75,8.76-6.51-42.54-35.43-22.71-40.36.44C682.3,89,659,167.54,645,144.47c-16.59-27.24-41.29-14.67-42.08,26.1-.36,18.51,11.09,58.94-4.78,57.41s-38.41,1.47-38.49,29.84C559.49,306.76,579.86,433.58,563.41,441.42Z" transform="translate(398.93 40.79)"/><path class="cls-2" d="M531.05,489.54l-1.54-1.27c40.58-49.33,60.54-93.25,93.61-166,9.45-20.79,20.16-44.36,32.74-71.13,29.51-62.78,71.53-107.72,101.59-134.36C790,87.88,816,73.65,816.26,73.51l1,1.76c-.26.14-26.06,14.28-58.48,43C728.83,144.81,687,189.52,657.67,252c-12.57,26.76-23.28,50.32-32.73,71.11C591.81,396,571.8,440,531.05,489.54Z" transform="translate(398.93 40.79)"/><path class="cls-2" d="M693.59,190.28l-1.13-1.66c37.08-25.3,100.66-16.25,101.3-16.15l-.29,2C792.84,174.35,730,165.41,693.59,190.28Z" transform="translate(398.93 40.79)"/><path class="cls-2" d="M688,198.62l-1.82-.84c24.27-52.47,15.4-114.24,15.3-114.85l2-.3C703.52,83.25,712.47,145.61,688,198.62Z" transform="translate(398.93 40.79)"/><path class="cls-2" d="M635.92,298.64l0-2c114.41-2.6,142.69-16.54,143-16.68l.92,1.78C778.65,282.32,751.06,296,635.92,298.64Z" transform="translate(398.93 40.79)"/><path class="cls-2" d="M653.2,261.19l-2-.09c1-23.08-29.19-114.61-29.5-115.53l1.9-.63C624.85,148.72,654.26,237.75,653.2,261.19Z" transform="translate(398.93 40.79)"/><path class="cls-2" d="M603.07,370.19l-2-.41c10.25-48.46-22.91-120.23-23.25-120.95l1.81-.85C580,248.71,613.45,321.08,603.07,370.19Z" transform="translate(398.93 40.79)"/><path class="cls-20" d="M416.64,872.13c5.72-9.26,35-95.25,99.15-107.61,50.92-9.81,41.12-34.33,25.31-51.28s-38.31-25.91-18.54-47.33c65.07-70.51,69.31-166.15,9.08-141-32.56,13.59-44-28-28-46.25,34-38.68,39.49-80.23,1.25-76.79-37.58,3.38-59.1-9.19-50.8-30.36s43.19-49.26,5-70.77c-15-8.47-55,9-68.3,42.22-7.6,18.92-14.76,83.3-49,44.57-35.34-39.92-52.14.16-41.73,27.58,3.87,10.22,32.37,107.61,2.24,93-35.56-17.21-52.84,12.47-26.3,55.45,12.05,19.51,51.11,53.93,33.56,63s-39,27.34-20,56.93C322.18,734.54,428.51,852.91,416.64,872.13Z" transform="translate(398.93 40.79)"/><path class="cls-2" d="M415.25,944l-2.46-.29c9.15-78.62.45-137.76-14-235.75-4.11-28-8.78-59.73-13.65-96.06-11.42-85.19,2.17-160.22,15.59-208.16,14.54-51.95,32-84.21,32.2-84.53l2.17,1.19c-.17.32-17.55,32.38-32,84.09-13.34,47.69-26.86,122.34-15.5,207.08,4.87,36.31,9.54,68,13.65,96C415.72,805.76,424.44,865,415.25,944Z" transform="translate(398.93 40.79)"/><path class="cls-2" d="M383.62,523.17l-2.28-1C403,471,475.24,437.66,476,437.33l1,2.25C476.27,439.91,404.85,472.81,383.62,523.17Z" transform="translate(398.93 40.79)"/><path class="cls-2" d="M380.9,536C371,465.07,320.26,406.7,319.74,406.12l1.86-1.64c.52.59,51.7,59.5,61.75,131.16Z" transform="translate(398.93 40.79)"/><path class="cls-2" d="M396.31,674.74l-1.39-2C512.56,592.94,532.39,559.6,532.58,559.27l2.15,1.23C534,561.86,514.43,594.67,396.31,674.74Z" transform="translate(398.93 40.79)"/><path class="cls-2" d="M387,625.39c-14.4-24.73-107.32-99.71-108.26-100.47l1.56-1.93c3.84,3.1,94.21,76,108.84,101.16Z" transform="translate(398.93 40.79)"/><path class="cls-2" d="M407.81,772.2C386,714.86,303.26,662.41,302.42,661.89l1.32-2.1c.84.53,84.23,53.42,106.38,111.53Z" transform="translate(398.93 40.79)"/><path class="cls-21" d="M174.89,167.12c44.63,61.4,57.21,135.18,39.92,197.69-64.77-2.8-131-37.5-175.68-98.9S-18.09,130.72-.8,68.21C64,71,130.25,105.71,174.89,167.12Z" transform="translate(398.93 40.79)"/><rect class="cls-2" x="111.72" y="60.06" width="1" height="323.86" transform="translate(289.85 149.2) rotate(-36.01)"/><rect class="cls-2" x="30.39" y="115.84" width="1" height="50.86" transform="translate(285.46 190.53) rotate(-81.02)"/><rect class="cls-2" x="57.02" y="153.67" width="1" height="62.69" transform="translate(264.73 253.76) rotate(-81.02)"/><rect class="cls-2" x="68.69" y="173.99" width="1" height="104.8" transform="translate(233.7 300.21) rotate(-81.02)"/><rect class="cls-2" x="102.57" y="220.3" width="1" height="101.96" transform="translate(217.95 371.56) rotate(-81.02)"/><rect class="cls-2" x="157.35" y="291.09" width="1" height="56.78" transform="translate(216.59 466.34) rotate(-81.02)"/><rect class="cls-2" x="31.3" y="113.72" width="50.89" height="1" transform="translate(334.01 193.29) rotate(-81.05)"/><rect class="cls-2" x="51.76" y="144.33" width="79.35" height="1" transform="translate(333.05 253.38) rotate(-81.04)"/><rect class="cls-2" x="75.8" y="179.14" width="99.31" height="1" transform="matrix(0.16, -0.99, 0.99, 0.16, 327.4, 316.39)"/><rect class="cls-2" x="107.13" y="222.47" width="102.01" height="1" transform="translate(312.19 385.26) rotate(-81.04)"/><rect class="cls-2" x="145.66" y="274.24" width="87.64" height="1" transform="translate(287.54 459.96) rotate(-81.05)"/><path class="cls-22" d="M307.08,239.44s10.08-38,40.36-58.6c11-7.45,36.41-10.8,44.4,1s.51,30.79-15.45,41.64C346.11,244,307.08,239.44,307.08,239.44Z" transform="translate(398.93 40.79)"/><path class="cls-23" d="M286.13,319.5s24.71-30.57,60.75-37c13.06-2.32,37.64,5,40.13,19s-12.09,28.31-31.09,31.69C319.87,339.65,286.13,319.5,286.13,319.5Z" transform="translate(398.93 40.79)"/><path class="cls-24" d="M292.68,234.49s-36-5.15-62.61-30.35C220.43,195,210.3,172.39,218.3,164S245,160.27,259,173.57C285.61,198.77,292.68,234.49,292.68,234.49Z" transform="translate(398.93 40.79)"/><path class="cls-25" d="M274.33,315.54s-36.87-4.27-63.44-29.46C201.26,276.93,191.5,253.92,200,245s27.56-4.54,41.56,8.74C268.1,278.94,274.33,315.54,274.33,315.54Z" transform="translate(398.93 40.79)"/><path class="cls-26" d="M242.15,422.48s-31.79.58-52.06-18.68c-7.36-7-13.18-26.25-4.72-35.17s24.66-7.31,35.35,2.83C241,390.7,242.15,422.48,242.15,422.48Z" transform="translate(398.93 40.79)"/><path class="cls-27" d="M256,426s16.94-25.19,45.11-34.7c10.21-3.46,30.47-1.57,33.72,8.08s-7.07,21.88-21.92,26.88C284.72,435.72,256,426,256,426Z" transform="translate(398.93 40.79)"/><path class="cls-12" d="M316.3,86.33l6.94.34c-.12,2-11,200.19-108,431.59l-6.39-2.68C305.38,285.35,316.21,88.29,316.3,86.33Z" transform="translate(398.93 40.79)"/><rect class="cls-2" x="254.92" y="147.97" width="1.14" height="102.5" transform="translate(334.05 288.29) rotate(-46.52)"/><rect class="cls-2" x="259.23" y="201.27" width="18.73" height="1.14" transform="translate(460.21 507.03) rotate(-88.82)"/><rect class="cls-2" x="246.29" y="256.71" width="1.14" height="33.33" transform="translate(376.66 62.68) rotate(-4.86)"/><rect class="cls-2" x="241.95" y="163.06" width="1.14" height="24.7" transform="translate(392.98 49.32) rotate(-1.99)"/><rect class="cls-2" x="236.94" y="198.61" width="17.93" height="1.14" transform="translate(376.84 71.67) rotate(-6.88)"/><rect class="cls-2" x="295.68" y="213.01" width="105.65" height="1.14" transform="translate(338.73 260.75) rotate(-32.4)"/><rect class="cls-2" x="314.4" y="202.85" width="44.57" height="1.14" transform="matrix(0.25, -0.97, 0.97, 0.25, 453.98, 518.83)"/><rect class="cls-2" x="349.54" y="189.09" width="31.87" height="1.14" transform="translate(505.96 550.99) rotate(-78.55)"/><rect class="cls-2" x="360.74" y="204.45" width="1.14" height="23.82" transform="matrix(0.29, -0.96, 0.96, 0.29, 448.3, 540.09)"/><rect class="cls-2" x="285.55" y="311.26" width="102.54" height="1.14" transform="translate(356.06 94.69) rotate(-8.6)"/><rect class="cls-2" x="237.24" y="230.89" width="1.14" height="101.56" transform="translate(268.1 322.84) rotate(-49.89)"/><rect class="cls-2" x="253.8" y="412.07" width="83.2" height="1.14" transform="translate(282.52 156.86) rotate(-18.64)"/><rect class="cls-2" x="213.19" y="356.42" width="1.14" height="78.26" transform="translate(178.59 319.23) rotate(-46.51)"/><rect class="cls-2" x="275.79" y="403.7" width="32.01" height="1.14" transform="translate(192.15 447.18) rotate(-54.42)"/><rect class="cls-2" x="317.34" y="401.13" width="1.14" height="23.82" transform="translate(229.29 638.12) rotate(-73.12)"/><rect class="cls-2" x="213.84" y="367.18" width="1.14" height="29.87" transform="translate(365.44 61.61) rotate(-5.16)"/><rect class="cls-2" x="342.07" y="297.13" width="31.52" height="1.14" transform="translate(304.19 447.35) rotate(-53.28)"/><rect class="cls-2" x="305.93" y="305.49" width="23.4" height="1.14" transform="translate(285.33 439.64) rotate(-56.08)"/><rect class="cls-2" x="344" y="307.02" width="1.14" height="31.1" transform="translate(272.52 394.5) rotate(-46.89)"/><rect class="cls-2" x="208.46" y="281.83" width="29.28" height="1.14" transform="translate(374.91 61.55) rotate(-5.06)"/><path class="cls-28" d="M311.34,168.66s-24.06-38-18.39-80.06c2.05-15.24,18.4-39.84,34.23-37.71s26,23.25,23.06,45.41C344.6,138.39,311.34,168.66,311.34,168.66Z" transform="translate(398.93 40.79)"/><rect class="cls-2" x="259.85" y="109.21" width="118.83" height="1.14" transform="translate(566.76 452.31) rotate(-82.33)"/><rect class="cls-2" x="314.44" y="60.46" width="1.14" height="34.24" transform="translate(394.52 175.14) rotate(-23.91)"/><rect class="cls-2" x="317.11" y="114.02" width="32.14" height="1.14" transform="translate(380.49 177.94) rotate(-22.65)"/><path class="cls-29" d="M402.89,657.37c-4.28-10.82-59.31-90.9-28.86-153.89,24.15-50-3.14-57.24-27.78-54.51s-46.71,16.31-52.43-14.35C275,333.69,195.69,268.91,178.73,336.68c-9.16,36.63-52.17,19.85-57.54-5.57-11.39-53.94-43.53-85.19-65-50.17C35,315.35,10.5,325.77-2.34,305.12S-17,236.57-59.84,255.61c-16.89,7.5-27.39,52.94-7.47,85.61,11.36,18.62,62,65.93,6.85,70.58-56.81,4.8-33.19,44.85-3,53.45,11.24,3.21,113,41,81.2,57.55-37.49,19.51-23.1,53.32,30.72,58,24.43,2.13,78.91-9.39,75.46,11.47s-1.51,51,36,53.6C224.54,650.47,394,634.9,402.89,657.37Z" transform="translate(398.93 40.79)"/><path class="cls-2" d="M461.77,706.42c-61.56-58.12-117.83-88.47-211-138.75C224.09,553.3,193.9,537,159.65,518,79.31,473.3,23.68,413.67-8.84,371.51c-35.25-45.7-51.72-81.33-51.89-81.69l2.41-1.1c.16.35,16.55,35.76,51.63,81.23C25.67,411.9,81,471.23,160.94,515.66c34.23,19,64.41,35.31,91,49.67,93.41,50.39,149.8,80.81,211.61,139.17Z" transform="translate(398.93 40.79)"/><path class="cls-2" d="M80.32,463.94C50.2,412.62,67.87,329.3,68.06,328.46l2.58.57c-.18.82-17.63,83.15,12,133.57Z" transform="translate(398.93 40.79)"/><path class="cls-2" d="M91.86,473.13C24.7,436.32-57.76,442.51-58.58,442.58l-.21-2.64c.83-.07,84.05-6.33,151.92,30.86Z" transform="translate(398.93 40.79)"/><path class="cls-2" d="M220.67,548.62,218,548.5c6.83-151.61-9.06-190.29-9.22-190.66l2.43-1.06C211.9,358.31,227.54,396.05,220.67,548.62Z" transform="translate(398.93 40.79)"/><path class="cls-2" d="M17.07,553.7l-.66-2.56c.31-.08,31.63-8.15,66.34-15.68,46.7-10.14,77-14.52,90-13.05l-.3,2.63C142,521.57,18.32,553.38,17.07,553.7Z" transform="translate(398.93 40.79)"/><path class="cls-2" d="M149.62,621l-1-2.47c1-.38,99.65-38.14,163.64-20l-.73,2.55C248.45,583.16,150.6,620.59,149.62,621Z" transform="translate(398.93 40.79)"/><path class="cls-2" d="M215.53,757.18c.13,0-10.19-27.84-33.41-44C165.86,701.6,141.73,691,127.84,686.5,110.33,680.8,101,675.73,101,675.73s11.94,13.47,22.6,21,29.21,20,44.59,30c15.54,9.83,46.05,26.73,47.67,36.46S215.58,757.17,215.53,757.18Z" transform="translate(398.93 40.79)"/><path class="cls-2" d="M216.34,752.15s10.21-7.59,20.06-15,29.92-23.08,44-29.35c14-6,51.48-24.37,52.9-26.36,1.49-1.7-21.51,27.89-38.1,38.81-16.56,11.29-50.29,25-65.79,31.41S213,754.84,216.34,752.15Z" transform="translate(398.93 40.79)"/><path class="cls-2" d="M214.56,717.91c.31-.13-22.9-33.53-39.8-44.7-16.46-11.38-37.37-21.75-57.61-29.17s-26.43-8.63-26.41-8.64c.2-.13,29,24.22,43.64,33.82,14.94,9.41,29.17,19.62,45.59,28.39s33.14,19.54,34.79,29.37S214.64,717.89,214.56,717.91Z" transform="translate(398.93 40.79)"/><path class="cls-2" d="M216.41,719.77s5.83-7.88,15.84-22.32,22.91-32.41,30.67-39.23c7.74-6.47,48.29-28.52,49.31-29.67,1.15-.83-13.78,34.28-28.58,47.29-17.38,15.62-36.19,23.45-53.19,38.35s-15.9,16.11-15.89,16.17Q215.53,725.08,216.41,719.77Z" transform="translate(398.93 40.79)"/><path class="cls-2" d="M209.51,682.32s-7.2-14.36-28.13-32.75S146.32,621.26,131,615.19s-38.86-12.72-38.87-12.71,14.71,14.1,27.58,22.82c13.06,8.59,40.31,25,56.29,35.74s31.72,22.49,35.87,34.08S209.65,682.29,209.51,682.32Z" transform="translate(398.93 40.79)"/><path class="cls-2" d="M209.39,676.71c.08-.05,1.3-20.77,15.54-38.28s18.4-27.29,27-33.14c8.57-5.69,36.91-28.22,36.91-28.38.29.19-18.59,46.08-33.18,59.82-14.28,14-33.58,24.75-43.91,41.52C206.34,686.9,209.4,676.71,209.39,676.71Z" transform="translate(398.93 40.79)"/><path class="cls-2" d="M203,642.62c.09,0-15.76-20.49-29.66-31.39s-28.57-21.4-53.07-31.25-36.36-13.2-36.33-13.23,8.13,13.51,32.24,28.52,45.83,25.49,56.7,32.51,26.66,16.35,30.67,22.1S203,642.61,203,642.62Z" transform="translate(398.93 40.79)"/><path class="cls-2" d="M200.31,619.46c.15.13,14.32-34.24,17.45-47.94,4.77-19.21,35.49-40.74,37.43-43.72,2.16-2.74-5,39.93-14.11,52.75-4.81,7.41-27.11,34-33.78,44.31S198.36,628.59,200.31,619.46Z" transform="translate(398.93 40.79)"/><path class="cls-2" d="M192.74,605.56s-12.75-13.3-26-24.42c-13.05-11.27-39.28-29.47-52.95-33.72-13.51-4.41-38-10.32-38-10.3s6.08,12.41,26.48,23.61S141.3,582,155.59,588.84s36.37,19.68,39.56,27S192.81,605.54,192.74,605.56Z" transform="translate(398.93 40.79)"/><path class="cls-2" d="M186.11,579.94a121.3,121.3,0,0,1,2.64-27.5c3.22-13.75,6.76-30.28,9.93-40.75S211.57,485,211.55,485c.16-.05,6.22,29.18,2.25,44.6-3.65,15.55-20.73,43.58-24,57.46C187.07,599,186.18,579.93,186.11,579.94Z" transform="translate(398.93 40.79)"/><path class="cls-2" d="M179.75,572.12c.06,0-15.8-16-22.16-26.42-6.11-10.63-27.9-29.37-44-35.64C97.64,503.64,77,496,77,496s14.47,13.32,22.93,20.28,18.19,15,39.2,30S182,579.43,185.4,583.54,179.82,572.09,179.75,572.12Z" transform="translate(398.93 40.79)"/><path class="cls-2" d="M179.51,562.78s-1.19-6-3.53-21-11.24-41.17-17.33-48.82c-5.63-7.93-40-31.71-42.1-33.95-1.61-2.51,11.77,28.15,16.23,37.49,4.76,9.25,7.5,20.84,15.41,29.49,8.22,8.49,29,36,29.39,40.73C178.21,571.34,179.52,562.79,179.51,562.78Z" transform="translate(398.93 40.79)"/><path class="cls-2" d="M218.85,759.62c.48-18.08.24-33.29-.8-40.83,1-28.36-15.54-106.65-29.59-139.17-7.28-19.51-19.3-32.61-19.68-34.21s7.75,22.49,10.65,30.27c3.4,7.66,15.69,45.17,21,67.14,6.14,21.82,9.91,59.14,10.89,74.92,1.31,7.3,1.8,29.5.55,56" transform="translate(398.93 40.79)"/><path class="cls-30" d="M666.8,421.39s10.08-38,40.37-58.59c11-7.46,36.4-10.81,44.39,1s.51,30.79-15.44,41.64C705.83,426,666.8,421.39,666.8,421.39Z" transform="translate(398.93 40.79)"/><path class="cls-31" d="M645.85,501.46s24.72-30.58,60.76-37c13.06-2.32,37.64,5,40.13,19s-12.1,28.31-31.09,31.69C679.6,521.6,645.85,501.46,645.85,501.46Z" transform="translate(398.93 40.79)"/><path class="cls-32" d="M652.4,416.44s-36-5.15-62.6-30.35C580.16,377,570,354.34,578,345.9s26.73-3.67,40.72,9.62C645.34,380.72,652.4,416.44,652.4,416.44Z" transform="translate(398.93 40.79)"/><path class="cls-33" d="M634.05,497.49s-36.87-4.26-63.43-29.46c-9.64-9.15-19.39-32.16-10.93-41.09s27.56-4.54,41.57,8.74C627.83,460.89,634.05,497.49,634.05,497.49Z" transform="translate(398.93 40.79)"/><path class="cls-34" d="M601.87,604.43s-31.78.58-52.06-18.68c-7.35-7-13.18-26.24-4.72-35.17s24.67-7.31,35.35,2.83C600.74,572.66,601.87,604.43,601.87,604.43Z" transform="translate(398.93 40.79)"/><path class="cls-35" d="M615.71,607.91s16.94-25.2,45.11-34.71c10.2-3.45,30.47-1.57,33.72,8.09s-7.07,21.87-21.92,26.87C644.44,617.67,615.71,607.91,615.71,607.91Z" transform="translate(398.93 40.79)"/><path class="cls-12" d="M676,268.28l6.94.35c-.12,2-11,200.18-108,431.58l-6.4-2.68C665.1,467.31,675.94,270.25,676,268.28Z" transform="translate(398.93 40.79)"/><rect class="cls-2" x="614.64" y="329.92" width="1.14" height="102.5" transform="translate(314.21 606.03) rotate(-46.52)"/><rect class="cls-2" x="618.96" y="383.22" width="18.73" height="1.14" transform="translate(630.64 1044.9) rotate(-88.82)"/><rect class="cls-2" x="606.02" y="438.66" width="1.14" height="33.33" transform="translate(362.54 93.8) rotate(-4.86)"/><rect class="cls-2" x="601.68" y="345.01" width="1.14" height="24.7" transform="translate(386.86 61.95) rotate(-1.99)"/><rect class="cls-2" x="596.67" y="380.56" width="17.93" height="1.14" transform="translate(357.64 116.05) rotate(-6.88)"/><rect class="cls-2" x="655.4" y="394.97" width="105.65" height="1.14" transform="translate(297.24 481.8) rotate(-32.4)"/><rect class="cls-2" x="674.12" y="384.8" width="44.57" height="1.14" transform="matrix(0.25, -0.97, 0.97, 0.25, 547.04, 1003.11)"/><rect class="cls-2" x="709.27" y="371.04" width="31.87" height="1.14" transform="translate(615.93 1049.39) rotate(-78.55)"/><rect class="cls-2" x="720.47" y="386.4" width="1.14" height="23.82" transform="translate(529.43 1013.4) rotate(-73.12)"/><rect class="cls-2" x="645.27" y="493.21" width="102.54" height="1.14" transform="translate(332.89 150.56) rotate(-8.6)"/><rect class="cls-2" x="596.96" y="412.85" width="1.14" height="101.56" transform="translate(256.9 662.66) rotate(-49.89)"/><rect class="cls-2" x="613.52" y="594.03" width="83.2" height="1.14" transform="translate(243.23 281.4) rotate(-18.64)"/><rect class="cls-2" x="572.91" y="538.38" width="1.14" height="78.26" transform="translate(158.75 636.97) rotate(-46.51)"/><rect class="cls-2" x="635.51" y="585.65" width="32.01" height="1.14" transform="translate(194.59 815.84) rotate(-54.42)"/><rect class="cls-2" x="677.07" y="583.08" width="1.14" height="23.82" transform="translate(310.46 1111.47) rotate(-73.12)"/><rect class="cls-2" x="573.56" y="549.13" width="1.14" height="29.87" transform="translate(350.54 94.68) rotate(-5.16)"/><rect class="cls-2" x="701.79" y="479.08" width="31.52" height="1.14" transform="translate(303.07 809.09) rotate(-53.3)"/><rect class="cls-2" x="665.65" y="487.44" width="23.4" height="1.14" transform="translate(293.31 818.51) rotate(-56.08)"/><rect class="cls-2" x="703.72" y="488.98" width="1.14" height="31.1" transform="translate(253.59 714.75) rotate(-46.89)"/><rect class="cls-2" x="568.19" y="463.78" width="29.28" height="1.14" transform="translate(360.28 93.95) rotate(-5.06)"/><path class="cls-36" d="M671.07,350.61s-24.06-38-18.4-80.06c2.05-15.24,18.41-39.84,34.24-37.7s26,23.24,23.06,45.41C704.32,320.34,671.07,350.61,671.07,350.61Z" transform="translate(398.93 40.79)"/><rect class="cls-2" x="619.58" y="291.16" width="118.83" height="1.14" transform="translate(698.13 966.47) rotate(-82.33)"/><rect class="cls-2" x="674.16" y="242.41" width="1.14" height="34.24" transform="translate(351.64 336.58) rotate(-23.91)"/><rect class="cls-2" x="676.84" y="295.98" width="32.14" height="1.14" transform="translate(338.17 330.5) rotate(-22.65)"/><path class="cls-37" d="M488.82,804.45C535.89,864,603.51,896,668.33,896.22c14.77-63.16-.76-136.37-47.82-195.93S505.82,608.72,441,608.53C426.23,671.68,441.76,744.89,488.82,804.45Z" transform="translate(398.93 40.79)"/><polygon class="cls-2" points="1057.46 927.02 856.67 672.93 857.45 672.31 1058.24 926.4 1057.46 927.02"/><rect class="cls-2" x="477.32" y="658.25" width="50.89" height="1" transform="translate(188.72 1121.92) rotate(-83.29)"/><rect class="cls-2" x="506.33" y="695.7" width="62.72" height="1" transform="translate(182.37 1189.68) rotate(-83.29)"/><rect class="cls-2" x="521.94" y="718.11" width="104.85" height="1" transform="translate(192.55 1245.94) rotate(-83.3)"/><rect class="cls-2" x="557.44" y="762.84" width="102.01" height="1" transform="translate(178.3 1319.44) rotate(-83.31)"/><rect class="cls-2" x="611.65" y="828.62" width="56.8" height="1" transform="translate(140.9 1408.94) rotate(-83.31)"/><rect class="cls-2" x="469.26" y="650.93" width="1" height="50.86" transform="translate(142.31 1105.13) rotate(-83.33)"/><rect class="cls-2" x="489.37" y="678.38" width="1" height="79.31" transform="translate(118.7 1161.94) rotate(-83.33)"/><rect class="cls-2" x="513.7" y="710.57" width="1" height="99.27" transform="translate(98.31 1223.36) rotate(-83.33)"/><rect class="cls-2" x="546.6" y="752.39" width="1" height="101.96" transform="translate(84.52 1294.21) rotate(-83.33)"/><rect class="cls-2" x="587.97" y="803.73" width="1" height="87.6" transform="translate(77.22 1374.32) rotate(-83.33)"/><path class="cls-38" d="M593.17,69.38s-7.93-3-14.18-.81c-12.66,4.43-10.13,13.16-.81,14.19s19.36-3.33,23.16-5.46-11.52,4-7.57,15.48S613.2,80.65,600.47,69s8.62,17.66,15.73,23.67,12.21-2.45,8.38-8.74c-2.87-4.72-4.6-12.42-30.51-11s10.81,8.46,25.5-6.31,13.71-19.85,6-19.32S594.2,64,607.5,78.54s-1.45-.91-2.93-9.14c-1-5.69-3.75-21.79-9.83-25.41-7.57-4.51-13.26-2-8.62,11.38S593.17,69.38,593.17,69.38Z" transform="translate(398.93 40.79)"/><path class="cls-2" d="M602.94,73.59a2.46,2.46,0,1,1,.76-3.24A2.36,2.36,0,0,1,602.94,73.59Z" transform="translate(398.93 40.79)"/><path class="cls-39" d="M781,969.71s-7.93-3-14.19-.8c-12.66,4.43-10.12,13.15-.8,14.19s19.35-3.34,23.16-5.47-11.53,4-7.58,15.48S801,981,788.25,969.37,796.87,987,804,993.05s12.2-2.46,8.37-8.75c-2.87-4.71-4.6-12.42-30.51-11s10.82,8.47,25.5-6.31,13.72-19.85,6.06-19.31S782,964.3,795.27,978.87s-1.44-.91-2.92-9.14c-1-5.69-3.75-21.79-9.84-25.41-7.56-4.5-13.26-2-8.62,11.38S781,969.71,781,969.71Z" transform="translate(398.93 40.79)"/><path class="cls-2" d="M790.71,973.93a2.46,2.46,0,1,1,.77-3.24A2.35,2.35,0,0,1,790.71,973.93Z" transform="translate(398.93 40.79)"/><path class="cls-40" d="M513.7,375.48s6.54,5.39,13.17,5.33c13.41-.12,13.81-9.2,5.33-13.17s-19.41-3.08-23.69-2.29,12.18,0,12.15-12.22-22.3,5.22-14,20.32S504.19,354,499.4,346s-12.35-1.61-10.74,5.58c1.19,5.39.35,13.24,25.33,20.27s-7.52-11.5-26.17-2.24S468.45,384,475.87,385.91s35.11-5.64,27.21-23.72,1.07,1.33-.17,9.6C502,377.5,499.45,393.62,504,399c5.71,6.7,11.93,6.12,11.83-8S513.7,375.48,513.7,375.48Z" transform="translate(398.93 40.79)"/><path class="cls-2" d="M505.8,368.34a2.47,2.47,0,1,1-1.76,2.82A2.37,2.37,0,0,1,505.8,368.34Z" transform="translate(398.93 40.79)"/><path class="cls-41" d="M151.92,1060.81c4.52-3.64,9.41-6.62,23.25-7.92s46.52-8,65-6.53c18.3,1.63,45.52,3,47,2.66,1.37-.16-40.26,14.82-62.49,15.51-18.71.78-37.61-1.14-48.68-2.31s-22.22-.8-28,2.77A33.38,33.38,0,0,1,151.92,1060.81Z" transform="translate(398.93 40.79)"/><path class="cls-42" d="M164.51,1032.09s1-13.19-8.9-32.59-20.5-36.09-27.37-43.67-25.84-20.55-28.05-22.75c-2-2.25,6.06,19,9.4,25.48,3.52,6.44,11.79,18.6,24.43,32.05C146.85,1004,162,1025.87,164.51,1032.09Z" transform="translate(398.93 40.79)"/><path class="cls-43" d="M166.61,1030.14c7-2.7,23.75-5.07,33.87-6.92s18.78.15,56.82-10.61a244.91,244.91,0,0,0,58.14-25.13s-6.47.84-27.75,1.47-51.34,12.82-75.86,20.1-39.72,15.65-39.75,15.67Q169.35,1027.44,166.61,1030.14Z" transform="translate(398.93 40.79)"/><path class="cls-44" d="M184.35,1002.05c.3,0-10.26-35.93-19.41-52.35-8.67-16.49-14.73-29.33-34.78-38.31S100.74,896,100.74,896s13.9,19.45,26,34.2c12.35,14.65,27.39,35.14,33.42,41.56C166.49,978.06,180.15,1002.14,184.35,1002.05Z" transform="translate(398.93 40.79)"/><path class="cls-45" d="M189.06,981.51c8.11-5.31,16.7-9.51,36.8-17,19-7.07,41.87-15.76,54.17-18.19,12.14-2.21,52.63-10.69,53.75-11,1.05-.06-29.12,21.73-48.15,27.54-19,6-35.22,12.17-59.65,13.83s-36.75,7-42.47,13.17S187.14,982.79,189.06,981.51Z" transform="translate(398.93 40.79)"/><path class="cls-46" d="M194.57,960c.07,0-5.28-16.7-15.41-24.23-9.82-7.64-30.18-31.6-36.27-39.61-5.47-8.26-33.3-39.75-34.91-42.3-1.25-2.73,14.27,9.27,28.17,16.23s29.93,23.64,39.38,38.06c9.82,14.31,21.73,42.07,22.07,46.29A5.14,5.14,0,0,1,194.57,960Z" transform="translate(398.93 40.79)"/><path class="cls-47" d="M202.38,943.89s17.71-9.12,34.08-16.66,45.57-17.31,53.38-21.14c7.65-3.56,47.89-14.51,48.94-15.89,1-1.2-22.19,20.17-47.58,32.11s-43.1,16-60.82,19.29-28.23,7.22-31.65,11.17S202.41,943.9,202.38,943.89Z" transform="translate(398.93 40.79)"/><path class="cls-48" d="M209.94,902c.23-.07-15.82-29.24-26.76-40.77-10.57-11.66-21.77-25.68-33.58-33.72s-30-20.06-30.08-20,14.09,21.73,25.39,35.75c11.51,13.94,23.66,29.57,38.29,43.38a289.29,289.29,0,0,0,28,23.31Q210.62,906,209.94,902Z" transform="translate(398.93 40.79)"/><path class="cls-49" d="M215.74,900.22c0,.13,31.41-18.17,48.72-26.91,17.22-8.42,46.81-21.1,59.75-24.9a219.12,219.12,0,0,0,24.47-8.73c0,.35-47.1,36.44-69.8,43.52C256,891,216.61,904.63,209.6,914,202.53,923.53,215.83,900.28,215.74,900.22Z" transform="translate(398.93 40.79)"/><path class="cls-50" d="M217.79,860.63c.27-.09-17.74-31.71-25.34-41.24-7.15-9.71-24.92-24.25-36.89-29.58-11.81-5.44-39.25-19-43-23.08s10.06,17.52,25,30.14c15.2,12.51,36.78,30,52.87,44.55s24.41,20,25.62,31.2S217.9,860.64,217.79,860.63Z" transform="translate(398.93 40.79)"/><path class="cls-51" d="M222.26,856.94s17.18-12.79,31.67-20.71,36.79-16.65,47.47-22c10.56-5.1,49.84-18.86,51.87-21.26,2-2.09-30.51,30.68-58.11,42-27.52,11.53-47,15.64-56.82,20.35s-19.16,10.44-19.16,10.44Q220.74,861.34,222.26,856.94Z" transform="translate(398.93 40.79)"/><path class="cls-52" d="M220.4,812.92c.13,0-16.76-25.73-34.62-39.76-17.59-14.15-48-24.94-58.87-29.16a102.45,102.45,0,0,0-17.62-5.43s14.36,13.08,31,26.44,41.07,26.17,52.19,31.91,27.32,19.83,28.41,24.23S220.44,812.92,220.4,812.92Z" transform="translate(398.93 40.79)"/><path class="cls-53" d="M224.74,815.45c0,.06,21.1-19,39.8-28.83s35.64-20.5,45.73-24.67,35.12-18.23,35.14-18.3-16,22.58-38.13,36.85c-16.66,11.06-65.45,29.94-79.64,38.58C216.19,826.2,224.75,815.46,224.74,815.45Z" transform="translate(398.93 40.79)"/><path class="cls-54" d="M219.84,776.07c.15,0-12.71-28.87-38.38-44.54-18-11.23-44.24-20.95-59.23-24.82C103.32,701.78,93.05,697,93.05,697s13.56,13.52,25.36,20.88,32.27,19.38,49.23,28.94,50.53,25.41,52.93,35.61S219.9,776.06,219.84,776.07Z" transform="translate(398.93 40.79)"/><path class="cls-55" d="M220.35,770.69s10.27-8.7,20.16-17.14,30-26.38,44.4-33.92c14.33-7.18,52.7-29.09,54.07-31.3,1.45-1.89-20.79,30.94-37.56,43.57-16.71,13-51.4,29.72-67.34,37.47S217,773.75,220.35,770.69Z" transform="translate(398.93 40.79)"/><path class="cls-56" d="M216.08,734.5c.32-.15-26.55-34.09-45.19-44.85-18.19-11-41-20.69-62.93-27.27s-28.53-7.46-28.52-7.48c.21-.15,32.35,23.83,48.49,33.08,16.45,9,32.21,18.95,50.17,27.2s36.39,18.61,38.82,28.92S216.16,734.48,216.08,734.5Z" transform="translate(398.93 40.79)"/><path class="cls-57" d="M218.16,736.36s5.62-8.72,15.19-24.67,21.94-35.81,29.67-43.53c7.73-7.35,49.05-33.3,50.05-34.59,1.15-1-12.18,37.22-26.91,51.95-17.28,17.66-36.61,27.16-53.54,44S217,747.64,217,747.71Q217.6,742,218.16,736.36Z" transform="translate(398.93 40.79)"/><path class="cls-58" d="M208.25,697.1s-8.61-14.77-32-32.94-39-27.78-55.65-33.24-42-11-42-11,16.53,14,30.74,22.44c14.41,8.27,44.36,24,62,34.31s35.1,21.83,40.29,33.85S208.4,697.06,208.25,697.1Z" transform="translate(398.93 40.79)"/><path class="cls-59" d="M207.74,691.16c.08-.06-.08-22.11,13.75-41.57s17.53-30.1,26.17-36.85c8.67-6.57,37-32.25,37-32.42.32.18-16.43,50-30.88,65.51-14.12,15.81-33.77,28.38-43.52,46.81C205.22,702.15,207.75,691.15,207.74,691.16Z" transform="translate(398.93 40.79)"/><path class="cls-60" d="M198.55,655.42c.1,0-18.08-20.71-33.54-31.39-15.3-10.75-31.68-20.87-58.27-29.76S67.39,582.6,67.42,582.56s9.53,13.8,36.06,28.19,50.22,24.1,62.21,30.86,29.31,15.64,34,21.48S198.59,655.41,198.55,655.42Z" transform="translate(398.93 40.79)"/><path class="cls-61" d="M194.14,631c.16.13,12.74-37.2,15.09-51.93,3.7-20.67,34.66-45.44,36.51-48.72,2.09-3-2.47,42.64-11.23,56.82-4.56,8.15-26.29,37.72-32.61,49.11S192.72,640.85,194.14,631Z" transform="translate(398.93 40.79)"/><path class="cls-62" d="M185.17,616.78S170.76,603.5,156,592.55c-14.58-11.12-43.58-28.74-58.32-32.38-14.59-3.82-40.91-8.53-40.93-8.5S64,564.43,86.38,575s42.77,20.07,58.35,26.42,39.81,18.55,43.7,26.07S185.24,616.76,185.17,616.78Z" transform="translate(398.93 40.79)"/><path class="cls-63" d="M176.37,590.05a127.66,127.66,0,0,1,.87-29.32c2.44-14.79,5-32.53,7.64-43.84s11.77-29.07,11.74-29.11c.17,0,8.61,30.54,5.49,47.14-2.77,16.73-18.85,47.52-21.34,62.44C178.71,610.15,176.44,590,176.37,590.05Z" transform="translate(398.93 40.79)"/><path class="cls-64" d="M169.1,582.16c.06,0-17.82-15.93-25.27-26.6-7.2-10.88-31.54-29.36-49-35C77.53,514.78,55.18,508,55.16,508s16.23,13.2,25.65,20,20.28,14.79,43.53,29.31,47.62,32.4,51.53,36.54S169.17,582.12,169.1,582.16Z" transform="translate(398.93 40.79)"/><path class="cls-65" d="M168.19,572.28s-1.68-6.3-5.2-22.08-14.76-42.93-21.73-50.64c-6.5-8.06-44.53-31.08-46.86-33.32-1.88-2.57,14.41,29.09,19.77,38.71,5.67,9.51,9.38,21.62,18.35,30.28,9.28,8.48,33.16,36.28,33.9,41.32C167.42,581.44,168.21,572.28,168.19,572.28Z" transform="translate(398.93 40.79)"/><path class="cls-66" d="M154,1065.15c32.52-53,62-144.05,64.5-171,8.4-29.23,6.38-134.18,1.3-159-1-30.12-23.88-112.06-41-145.65-9.06-20.22-22.68-33.34-23.19-35S165.4,577.89,169,586c4.13,7.9,19.73,46.89,26.94,69.83,8,22.75,14.61,62.07,16.74,78.74,4.07,16.42,9,105.93-2.36,157.88-2.08,11.74-11.85,51.87-28.79,92.66a579.47,579.47,0,0,1-27.73,59.13" transform="translate(398.93 40.79)"/><path class="cls-67" d="M552.72,1053.21c-3.94-7.85-50.62-64.36-31.94-113.72,14.82-39.17-6.17-42.81-24.51-39.12s-34,15.38-40.35-7.28c-20.89-74.59-84.78-118-93-65.94-4.45,28.14-37.89,18.4-43.61-.35-12.16-39.77-38.39-61.11-52.21-33.36-13.59,27.27-31.33,36.74-42.36,22.07s-15.55-50.54-46.5-33.37c-12.2,6.76-17.07,41.61.08,64.83,9.78,13.24,51,45.41,9.85,52.59-42.37,7.39-22,35.91,1.28,40.36,8.66,1.66,87.62,23.3,64.85,37.84-26.88,17.16-13.8,41.61,27,41.56,18.51,0,58.68-12.31,57.47,3.59s2.27,38.39,30.62,37.88C418.24,1059.91,544.55,1036.91,552.72,1053.21Z" transform="translate(398.93 40.79)"/><path class="cls-2" d="M600.24,1086.14c-50.13-39.57-94.43-58.62-167.83-90.19-21-9-44.75-19.25-71.77-31.28-63.35-28.21-109.13-69.32-136.37-98.84-29.53-32-44.29-57.66-44.43-57.92l1.73-1c.15.25,14.82,25.77,44.21,57.6,27.11,29.37,72.66,70.26,135.68,98.32,27,12,50.77,22.25,71.74,31.27,73.55,31.63,117.94,50.73,168.27,90.46Z" transform="translate(398.93 40.79)"/><path class="cls-2" d="M297.43,929.35c-26.06-36.56-18.32-100.35-18.24-101l2,.25c-.08.64-7.71,63.66,17.89,99.58Z" transform="translate(398.93 40.79)"/><path class="cls-2" d="M306.71,935.49c-52.92-23.19-114.47-13-115.09-12.93l-.33-2c.62-.11,62.74-10.37,116.22,13.06Z" transform="translate(398.93 40.79)"/><path class="cls-2" d="M406.54,983.72c-5-114.39-19.48-142.4-19.63-142.67l1.76-.95c.6,1.1,14.87,28.42,19.87,143.53Z" transform="translate(398.93 40.79)"/><path class="cls-2" d="M255.88,1001l-.67-1.88c3.75-1.33,92.08-32.62,115.55-32l-.05,2C347.63,968.57,256.79,1000.7,255.88,1001Z" transform="translate(398.93 40.79)"/><path class="cls-2" d="M360,1042.74l-.89-1.79c.72-.36,72.35-35.3,121.64-25.94l-.37,2C431.72,1007.73,360.68,1042.39,360,1042.74Z" transform="translate(398.93 40.79)"/><path class="cls-68" d="M589.64,1100.8C539.86,974.66,483.5,891.42,445,843.79c-41.73-51.59-72.07-73.65-72.37-73.86l1.83-2.56c.31.22,30.91,22.44,72.88,74.31,38.68,47.81,95.28,131.37,145.24,258Z" transform="translate(398.93 40.79)"/><path class="cls-69" d="M603.2,1071.6c-13-77.11-42.65-146.46-65.25-191-24.48-48.32-46.15-78.76-46.37-79.06l2.56-1.84c.22.31,22,30.94,46.62,79.47,22.7,44.79,52.5,114.45,65.54,191.95Z" transform="translate(398.93 40.79)"/><path class="cls-70" d="M548.09,1090.51C536,1020.16,502.16,977.9,475.93,954.84c-28.38-25-54.14-33.4-54.4-33.48l1-3c.26.08,26.65,8.72,55.52,34.11,26.61,23.4,60.91,66.25,73.19,137.5Z" transform="translate(398.93 40.79)"/><path class="cls-16" d="M357.85,750c-19.31,16.24-29.62,35.75-23,43.57s27.55,1,46.85-15.24,29.62-35.74,23-43.56S377.15,733.74,357.85,750Z" transform="translate(398.93 40.79)"/><path class="cls-2" d="M366,759.65c-6.13,5.16-9.4,11.35-7.31,13.84s8.74.31,14.87-4.84,9.41-11.35,7.32-13.84S372.1,754.49,366,759.65Z" transform="translate(398.93 40.79)"/><path class="cls-17" d="M486.33,792.8c-8,6.76-12.34,14.88-9.6,18.14s11.48.42,19.51-6.34,12.33-14.89,9.59-18.15S494.36,786,486.33,792.8Z" transform="translate(398.93 40.79)"/><path class="cls-2" d="M489.71,796.83c-2.55,2.14-3.92,4.72-3,5.76s3.65.13,6.2-2,3.91-4.72,3-5.76S492.26,794.68,489.71,796.83Z" transform="translate(398.93 40.79)"/><path class="cls-18" d="M413.86,914.18C406.13,925.3,403.52,936.86,408,940s14.42-3.34,22.14-14.46,10.35-22.68,5.84-25.81S421.58,903.06,413.86,914.18Z" transform="translate(398.93 40.79)"/><path class="cls-2" d="M419.42,918.06c-2.45,3.53-3.28,7.19-1.85,8.19s4.57-1.06,7-4.59,3.28-7.2,1.85-8.2S421.88,914.52,419.42,918.06Z" transform="translate(398.93 40.79)"/><path class="cls-38" d="M255.19,1086.09s-6.49,5.46-7.63,12c-2.32,13.22,6.54,15.26,12,7.63s6.54-18.53,6.54-22.89-2.18,12,9.81,14.17-1.09-22.89-17.44-17.44,19.62,1.09,28.33-2.18,3.82-11.86-3.54-11.59c-5.51.21-13.07-2-24.51,21.26s12.66-5.31,6.94-25.34S255.05,1040,251.78,1047s-.82,35.57,18.39,31.07-1.5.81-9.4-1.91c-5.46-1.89-20.84-7.36-27-3.81-7.62,4.4-8.17,10.62,5.72,13.08S255.19,1086.09,255.19,1086.09Z" transform="translate(398.93 40.79)"/><ellipse class="cls-2" cx="660.1" cy="1120.4" rx="2.45" ry="2.25"/><path class="cls-71" d="M127.12,1103.9l22,21.38a318.64,318.64,0,0,0,59.52-37.18,258.45,258.45,0,0,0-38-53.44C96,954.13-70.64,1002.07-95.37,1144-53,1164.53,10.46,1168.54,79,1150.92a377.68,377.68,0,0,0,51-17.06Z" transform="translate(398.93 40.79)"/><path class="cls-2" d="M-95,1144.3l-.67-.62c30.4-33.15,65.33-56.72,103.81-70.06,30.79-10.68,63.91-14.87,98.43-12.44,58.78,4.12,101.85,26.29,102.28,26.51l-.43.81c-.42-.22-43.35-22.31-101.94-26.41-34.4-2.41-67.39,1.76-98.06,12.4C-29.95,1087.78-64.75,1111.27-95,1144.3Z" transform="translate(398.93 40.79)"/><rect class="cls-2" x="148.33" y="1057.34" width="36.52" height="0.91" transform="translate(-210.16 360.33) rotate(-37.47)"/><rect class="cls-2" x="103.88" y="1041.25" width="59.27" height="0.91" transform="translate(-276.6 412.84) rotate(-43.08)"/><rect class="cls-2" x="58.37" y="1032.25" width="77.29" height="0.91" transform="translate(-332.88 449.84) rotate(-47.67)"/><rect class="cls-2" x="13.98" y="1031" width="84.96" height="0.91" transform="translate(-438.97 555.32) rotate(-56.84)"/><rect class="cls-2" x="-21.54" y="1037.74" width="84.23" height="0.91" transform="translate(-520.55 637.87) rotate(-63.73)"/><rect class="cls-2" x="-62.79" y="1055.99" width="83.03" height="0.91" transform="translate(-599.81 695.86) rotate(-68.83)"/><rect class="cls-2" x="-95.15" y="1083.02" width="74.54" height="0.91" transform="translate(-672.83 737.86) rotate(-72.2)"/><polygon class="cls-2" points="575.24 1150.89 551.91 1109.46 552.71 1109.02 576.04 1150.44 575.24 1150.89"/><rect class="cls-2" x="131.6" y="1055.96" width="0.91" height="73.79" transform="translate(-177.13 290.83) rotate(-33.15)"/><rect class="cls-2" x="92.28" y="1055.65" width="0.91" height="89.5" transform="translate(-123.98 224.42) rotate(-29.07)"/><rect class="cls-2" x="53.52" y="1062.25" width="0.91" height="94.7" transform="translate(-81.56 176.49) rotate(-25.97)"/><rect class="cls-2" x="19.95" y="1072.03" width="0.91" height="90.77" transform="translate(-54.12 145.84) rotate(-24.02)"/><polygon class="cls-2" points="394.98 1203.17 362.22 1136.14 363.04 1135.74 395.8 1202.76 394.98 1203.17"/><rect class="cls-2" x="-57.6" y="1115.54" width="0.91" height="46.49" transform="translate(-203.76 178.33) rotate(-31.46)"/><path class="cls-72" d="M-197.08,1011.44a66.16,66.16,0,0,0,14.86,6.52,147,147,0,0,1-32-46.09,166.18,166.18,0,0,1-10.5-31.24c3.05-1.9,6-3.58,8.7-5,5.66-3,12.6-7.25,20.35-12.4,2.72,15.79,9.24,29.92,19.39,40.72-6.8-14-9.68-30.67-8.42-48.18,28.59-19.88,64.32-47.45,89.41-64.91,4.28,21,15.43,38.75,33,49.25,1.59.95,3.21,1.8,4.86,2.6-15.7-14.78-23.81-36.92-23.72-61.26l1.81-1.13c11.28-6.89,25.78-17,41.14-27.69a66.71,66.71,0,0,1,11.28,9.61A73.71,73.71,0,0,0-34.39,810c12.11-8.4,24.64-17,36.46-24.5,1.57,25.47,12.39,47.9,31.73,61C21.5,826.37,18.3,799.36,25,772a118.87,118.87,0,0,1,14.74-6.68c30.62-10.93,106.83.25,105.17,5.26-4.26,12.88,7.76,24.06,2.67,86.27a217.63,217.63,0,0,1-7.21,40.29c-19.93,3.89-42.9.61-64.26-10.5a111.5,111.5,0,0,0,57.16,32.15A314.14,314.14,0,0,1,106.11,973c-13.59-.06-28.55-4.18-42.54-12.54-2.22-1.33-4.34-2.74-6.38-4.19a86.11,86.11,0,0,0,29.34,28.42,91.36,91.36,0,0,0,8.88,4.69c-7.76,11.31-16.06,22.32-24.67,33-7.51,9.34-18.1,19.49-30.92,30.12-.52-.77-1-1.55-1.59-2.32-3.14-4.46-6.38-8.7-9.66-12.68a110.3,110.3,0,0,1,5.36,19.81c-10.83,8.67-23,17.63-36.13,26.7-11.42-6.43-24.13-17.53-36.14-32.09a187,187,0,0,0,22,41.67c-16.12,10.74-33.28,21.58-50.8,32.22a179,179,0,0,1-17.18-34.88c-1.91,10.3.64,24.87,7,41-25.73,15.42-51.89,30.33-76.27,43.87-7.23-14.8-11.83-28.74-13.38-40.21-6.18,8.65-4.87,25.78,2.55,46.2q-6.6,3.65-13,7.12c-86.45,47.26-221.6-4.28-221.6-4.28s76.74-129.55,86.78-159.64c5.77-17.29,47.93-57.54,80.18-79.57C-231.1,973.49-219.15,998.23-197.08,1011.44Z" transform="translate(398.93 40.79)"/><path class="cls-73" d="M-314.4,1149.62s-7.79-94.55,2.25-124.64c5.77-17.29,47.93-57.54,80.18-79.57.87,28.08,12.82,52.82,34.89,66a66.16,66.16,0,0,0,14.86,6.52,147,147,0,0,1-32-46.09,166.18,166.18,0,0,1-10.5-31.24c3.05-1.9,6-3.58,8.7-5,5.66-3,12.6-7.25,20.35-12.4,2.72,15.79,9.24,29.92,19.39,40.72-6.8-14-9.68-30.67-8.42-48.18,28.59-19.88,64.32-47.45,89.41-64.91,4.28,21,15.43,38.75,33,49.25,1.59.95,3.21,1.8,4.86,2.6-15.7-14.78-23.81-36.92-23.72-61.26l1.81-1.13c11.28-6.89,25.78-17,41.14-27.69a66.71,66.71,0,0,1,11.28,9.61A73.71,73.71,0,0,0-34.39,810c12.11-8.4,24.64-17,36.46-24.5,1.57,25.47,12.39,47.9,31.73,61C21.5,826.37,18.3,799.36,25,772a118.87,118.87,0,0,1,14.74-6.68c29-10.35,98.81-.89,104.78,4.4C.1,951.51-162.42,1084.86-313.46,1151.14-314.09,1150.17-314.4,1149.62-314.4,1149.62Z" transform="translate(398.93 40.79)"/><path class="cls-74" d="M-312,1143.52c149.5-67,296.46-177.21,455.64-374.22a5.67,5.67,0,0,1,1.32.8c-144,182-307.29,313.23-457.14,380.19C-312.82,1149.32-311.72,1148.45-312,1143.52Z" transform="translate(398.93 40.79)"/><path class="cls-75" d="M385.92,1083.82s-14-28-41.05-39.22c-9.79-4-30.2-2.53-34.53,8s4.6,24.14,18.83,30C356.17,1093.75,385.92,1083.82,385.92,1083.82Z" transform="translate(398.93 40.79)"/><path class="cls-76" d="M415.29,1143s-24.27-19.88-53.48-19c-10.58.31-28.6,10-28.27,21.38s14,20.16,29.44,19.71C392.19,1164.2,415.29,1143,415.29,1143Z" transform="translate(398.93 40.79)"/><path class="cls-77" d="M396.37,1077.61s27.32-9.88,44-33.89c6.05-8.7,10.3-28,2.67-33.31s-21.48,1.47-30.25,14.13C396.09,1048.56,396.37,1077.61,396.37,1077.61Z" transform="translate(398.93 40.79)"/><path class="cls-78" d="M423.87,1138s28.11-9.32,44.78-33.33c6-8.71,9.93-28.27,1.87-33.88s-22.28.93-31.06,13.58C422.79,1108.35,423.87,1138,423.87,1138Z" transform="translate(398.93 40.79)"/><path class="cls-79" d="M371.1,1029.21s12.63-33.59,1.38-65.55c-4.08-11.57-20.85-28.13-32.87-23.89S323,962.16,329,979C340.2,1011,371.1,1029.21,371.1,1029.21Z" transform="translate(398.93 40.79)"/><path class="cls-12" d="M455.15,1200c-73.27-128.84-101-233-101.29-234.29l-5.37,1.39c.35,1.28,29.15,109.72,105.68,242.32.49.86,1,1.72,1.49,2.58" transform="translate(398.93 40.79)"/><rect class="cls-2" x="378.8" y="1043.56" width="81.81" height="0.91" transform="translate(-278.21 833.69) rotate(-55.2)"/><rect class="cls-2" x="409.43" y="1040.72" width="0.91" height="14.95" transform="translate(175.2 158.79) rotate(-12.9)"/><rect class="cls-2" x="425.51" y="1013.44" width="0.91" height="19.71" transform="translate(231.86 127.66) rotate(-9.75)"/><rect class="cls-2" x="451.61" y="1076.58" width="0.91" height="19.71" transform="translate(221.53 133) rotate(-9.75)"/><rect class="cls-2" x="420.02" y="1041.97" width="14.31" height="0.91" transform="translate(312.32 80.64) rotate(-4.85)"/><rect class="cls-2" x="348.9" y="1028.2" width="0.91" height="84.31" transform="translate(-376.49 1060.34) rotate(-69.34)"/><rect class="cls-2" x="356.49" y="1042.7" width="0.91" height="35.57" transform="translate(-34.47 309.19) rotate(-26.33)"/><rect class="cls-2" x="331.76" y="1041.7" width="0.91" height="25.43" transform="translate(10.61 256.76) rotate(-23.19)"/><rect class="cls-2" x="330.29" y="1074.15" width="19.01" height="0.91" transform="translate(-73.91 334.46) rotate(-28.59)"/><rect class="cls-2" x="333.52" y="1144.76" width="81.84" height="0.91" transform="translate(336.95 62.94) rotate(-3.13)"/><rect class="cls-2" x="406.37" y="1105.11" width="81.06" height="0.91" transform="translate(-299.72 815.13) rotate(-51.86)"/><rect class="cls-2" x="355.27" y="1125.01" width="0.91" height="25.15" transform="translate(-332.3 689.31) rotate(-48.41)"/><polygon class="cls-2" points="793.78 1185.23 780.43 1172.18 781.06 1171.53 794.41 1184.58 793.78 1185.23"/><polygon class="cls-2" points="762.27 1206.07 761.53 1205.55 775.82 1185.25 776.57 1185.78 762.27 1206.07"/><rect class="cls-2" x="354.9" y="937.07" width="0.91" height="94.83" transform="translate(92.15 214.68) rotate(-19.4)"/><rect class="cls-2" x="339.79" y="958.18" width="27.33" height="0.91" transform="translate(-259.14 1143.46) rotate(-77.87)"/><rect class="cls-2" x="344.8" y="977.69" width="0.91" height="25.65" transform="translate(-293.79 1182.69) rotate(-79.08)"/><path class="cls-80" d="M651.31,1249.09a978.83,978.83,0,0,1,15.43-274.44,962.48,962.48,0,0,1,67-207.81c51.28-113,107.55-177.25,108.11-177.89l5.73,5.06c-.56.63-56.2,64.26-107,176.27a955,955,0,0,0-66.42,206.07,971.63,971.63,0,0,0-15.27,272.1Z" transform="translate(398.93 40.79)"/><path class="cls-81" d="M837.31,598.73s2.89-24.58,19.74-42.22c6.09-6.38,21.44-12.83,27.38-7.16s3,18.39-5.88,27.69C861.71,594.68,837.31,598.73,837.31,598.73Z" transform="translate(398.93 40.79)"/><path class="cls-82" d="M813.44,633.65s14.92-16.27,36.6-20.84c7.84-1.67,22.61,1.08,24.07,8s-7.35,14.65-18.77,17.07C833.66,642.47,813.44,633.65,813.44,633.65Z" transform="translate(398.93 40.79)"/><path class="cls-83" d="M778.25,696.36s14.61-14.08,33.34-14.93c6.8-.3,18.79,5.17,19.12,12.58s-8.05,13.79-17.92,14.23C794,709.09,778.25,696.36,778.25,696.36Z" transform="translate(398.93 40.79)"/><path class="cls-84" d="M816.89,632.89s-18.36-8.29-26-25.31c-2.78-6.17-2.14-19.26,4.57-22.29s15.69,2.36,19.72,11.33C822.81,613.63,816.89,632.89,816.89,632.89Z" transform="translate(398.93 40.79)"/><path class="cls-85" d="M657,1053.44s-20.58-1.72-35.75-15.29c-5.49-4.92-11.26-17.56-6.67-22.69s15.28-3,23.27,4.13C653,1033.16,657,1053.44,657,1053.44Z" transform="translate(398.93 40.79)"/><path class="cls-86" d="M774.43,694S754.19,682.82,744.81,662c-3.39-7.54-3.59-23.1,3.4-26.25s16.95,3.88,21.89,14.84C779.48,671.42,774.43,694,774.43,694Z" transform="translate(398.93 40.79)"/><path class="cls-87" d="M737.47,761.23s-21.61-8-29.79-26.16c-3-6.58-1.4-21,6.86-24.71s18.73,1.64,23,11.2C745.77,739.74,737.47,761.23,737.47,761.23Z" transform="translate(398.93 40.79)"/><path class="cls-88" d="M743.21,762.48s13.11-18.54,33.15-22.71c7.26-1.5,21.21,2.68,22.94,11.05s-6.08,17.09-16.64,19.28C762.61,774.26,743.21,762.48,743.21,762.48Z" transform="translate(398.93 40.79)"/><path class="cls-89" d="M658.8,1056.75a61.89,61.89,0,0,1,21.59-32.31c6.32-4.9,21.74-9.89,27.28-5.59s2,14-7.19,21.14C683,1053.54,658.8,1056.75,658.8,1056.75Z" transform="translate(398.93 40.79)"/><path class="cls-90" d="M688,901s11.52-9.44,31-9.58c7,0,21.13,4,23.49,9.18s-4.7,9.38-15,9.46C708,910.21,688,901,688,901Z" transform="translate(398.93 40.79)"/><path class="cls-91" d="M707.21,834.2s-12.19-6.87-17.89-23.32c-2.06-6-2.23-19.14,1.93-22.72s10.2,1.12,13.2,9.79C710.15,814.39,707.21,834.2,707.21,834.2Z" transform="translate(398.93 40.79)"/><path class="cls-92" d="M671.2,982.67s6.38-23.18,19.59-35.11c4.78-4.32,15-5.73,17.38,1.73s-1.75,19-8.72,25.29A32.65,32.65,0,0,1,671.2,982.67Z" transform="translate(398.93 40.79)"/><path class="cls-93" d="M688.89,904.21s-25.83-11-39.82-28.87c-5.07-6.49-7.33-19.25.67-21.19s20.92,4.73,28.29,14.16C692,886.2,688.89,904.21,688.89,904.21Z" transform="translate(398.93 40.79)"/><path class="cls-94" d="M667.5,985.19S643,974.72,631,958.08c-4.36-6-5.31-17.78,2.81-19.46s20.24,4.66,26.58,13.41C672.45,968.67,667.5,985.19,667.5,985.19Z" transform="translate(398.93 40.79)"/><path class="cls-95" d="M828.35,506.17s-20.59-1.71-35.75-15.29c-5.5-4.92-11.26-17.56-6.67-22.68s15.28-3,23.26,4.13C824.35,485.89,828.35,506.17,828.35,506.17Z" transform="translate(398.93 40.79)"/><path class="cls-96" d="M652.41,1126.37s5-14.1,21.6-24.17c6-3.66,20.28-7.31,25-4s.87,10.59-7.9,15.89C674.48,1124.11,652.41,1126.37,652.41,1126.37Z" transform="translate(398.93 40.79)"/><path class="cls-97" d="M794.67,851.46s13.65-17.71,30-24.55c5.91-2.48,15.91-1.32,15.71,5.4s-8,15.31-16.56,18.91C807.48,858.06,794.67,851.46,794.67,851.46Z" transform="translate(398.93 40.79)"/><path class="cls-98" d="M708,839.51s11.33-15.2,33.69-23.35c8.09-3,25.13-4.24,28.87.52S767,829,755.24,833.32C732.89,841.49,708,839.51,708,839.51Z" transform="translate(398.93 40.79)"/><path class="cls-18" d="M686.36,990.44a2.43,2.43,0,1,1-2.42-2.43A2.42,2.42,0,0,1,686.36,990.44Z" transform="translate(398.93 40.79)"/><path class="cls-18" d="M686.36,981.62a2.43,2.43,0,1,1-2.42-2.42A2.42,2.42,0,0,1,686.36,981.62Z" transform="translate(398.93 40.79)"/><path class="cls-18" d="M677.52,983.93a2.43,2.43,0,1,1-3.32.89A2.43,2.43,0,0,1,677.52,983.93Z" transform="translate(398.93 40.79)"/><path class="cls-18" d="M675.09,992.75a2.43,2.43,0,1,1-.89,3.32A2.42,2.42,0,0,1,675.09,992.75Z" transform="translate(398.93 40.79)"/><path class="cls-18" d="M681.51,999.26a2.43,2.43,0,1,1,2.43,2.43A2.43,2.43,0,0,1,681.51,999.26Z" transform="translate(398.93 40.79)"/><path class="cls-18" d="M690.36,997a2.42,2.42,0,1,1,3.31-.88A2.42,2.42,0,0,1,690.36,997Z" transform="translate(398.93 40.79)"/><path class="cls-18" d="M692.78,988.14a2.43,2.43,0,1,1,.89-3.32A2.42,2.42,0,0,1,692.78,988.14Z" transform="translate(398.93 40.79)"/><path class="cls-18" d="M826.26,658.53a2.43,2.43,0,1,1-2.43-2.43A2.43,2.43,0,0,1,826.26,658.53Z" transform="translate(398.93 40.79)"/><path class="cls-18" d="M826.26,649.71a2.43,2.43,0,1,1-2.43-2.43A2.43,2.43,0,0,1,826.26,649.71Z" transform="translate(398.93 40.79)"/><path class="cls-18" d="M817.41,652a2.43,2.43,0,1,1-3.32.89A2.43,2.43,0,0,1,817.41,652Z" transform="translate(398.93 40.79)"/><path class="cls-18" d="M815,660.84a2.43,2.43,0,1,1-.89,3.31A2.43,2.43,0,0,1,815,660.84Z" transform="translate(398.93 40.79)"/><path class="cls-18" d="M821.4,667.35a2.43,2.43,0,1,1,2.43,2.43A2.43,2.43,0,0,1,821.4,667.35Z" transform="translate(398.93 40.79)"/><path class="cls-18" d="M830.25,665a2.43,2.43,0,1,1,3.31-.89A2.43,2.43,0,0,1,830.25,665Z" transform="translate(398.93 40.79)"/><path class="cls-18" d="M832.68,656.22a2.43,2.43,0,1,1-2.43-4.2,2.43,2.43,0,0,1,2.43,4.2Z" transform="translate(398.93 40.79)"/><path class="cls-18" d="M828.25,568.55a2.43,2.43,0,1,1-2.42-2.43A2.42,2.42,0,0,1,828.25,568.55Z" transform="translate(398.93 40.79)"/><path class="cls-18" d="M828.25,559.74a2.43,2.43,0,1,1-2.42-2.43A2.42,2.42,0,0,1,828.25,559.74Z" transform="translate(398.93 40.79)"/><path class="cls-18" d="M819.41,562a2.43,2.43,0,1,1-3.32.89A2.43,2.43,0,0,1,819.41,562Z" transform="translate(398.93 40.79)"/><path class="cls-18" d="M817,570.86a2.43,2.43,0,1,1-.89,3.32A2.43,2.43,0,0,1,817,570.86Z" transform="translate(398.93 40.79)"/><path class="cls-18" d="M823.4,577.37a2.43,2.43,0,1,1,2.43,2.43A2.43,2.43,0,0,1,823.4,577.37Z" transform="translate(398.93 40.79)"/><path class="cls-18" d="M832.25,575.07a2.43,2.43,0,1,1,3.31-.89A2.43,2.43,0,0,1,832.25,575.07Z" transform="translate(398.93 40.79)"/><path class="cls-18" d="M834.67,566.25a2.43,2.43,0,1,1,.89-3.32A2.42,2.42,0,0,1,834.67,566.25Z" transform="translate(398.93 40.79)"/><path class="cls-18" d="M687.29,822.88a2.43,2.43,0,1,1-2.43-2.43A2.43,2.43,0,0,1,687.29,822.88Z" transform="translate(398.93 40.79)"/><path class="cls-18" d="M687.29,814.06a2.43,2.43,0,1,1-2.43-2.43A2.43,2.43,0,0,1,687.29,814.06Z" transform="translate(398.93 40.79)"/><path class="cls-18" d="M678.44,816.37a2.42,2.42,0,1,1-3.31.88A2.41,2.41,0,0,1,678.44,816.37Z" transform="translate(398.93 40.79)"/><path class="cls-18" d="M676,825.18a2.43,2.43,0,1,1-.89,3.32A2.42,2.42,0,0,1,676,825.18Z" transform="translate(398.93 40.79)"/><path class="cls-18" d="M682.44,831.7a2.43,2.43,0,1,1,2.42,2.43A2.42,2.42,0,0,1,682.44,831.7Z" transform="translate(398.93 40.79)"/><path class="cls-18" d="M691.28,829.39a2.43,2.43,0,1,1,3.32-.89A2.43,2.43,0,0,1,691.28,829.39Z" transform="translate(398.93 40.79)"/><path class="cls-18" d="M693.71,820.57a2.43,2.43,0,1,1,.89-3.32A2.42,2.42,0,0,1,693.71,820.57Z" transform="translate(398.93 40.79)"/></g></svg>